SplineFontDB: 3.2
FontName: GaramondMono-Italic
FullName: Garamond Mono Italic
FamilyName: Garamond Mono
Weight: Book
Copyright: Copyright 2017 The EB Garamond Project Authors (https://github.com/octaviopardo/EBGaramond12)
Version: 1.001
ItalicAngle: -17.2
UnderlinePosition: -125
UnderlineWidth: 50
Ascent: 800
Descent: 200
InvalidEm: 0
LayerCount: 2
Layer: 0 0 "+gMyXYgAA" 1
Layer: 1 0 "+Uk2XYgAA" 0
XUID: [1021 501 934139072 8846340]
StyleMap: 0x0001
FSType: 0
OS2Version: 4
OS2_WeightWidthSlopeOnly: 0
OS2_UseTypoMetrics: 1
CreationTime: 1508950587
ModificationTime: 1713185111
PfmFamily: 49
TTFWeight: 400
TTFWidth: 5
LineGap: 0
VLineGap: 0
Panose: 2 0 5 9 0 0 0 0 0 0
OS2TypoAscent: 1007
OS2TypoAOffset: 0
OS2TypoDescent: -298
OS2TypoDOffset: 0
OS2TypoLinegap: 0
OS2WinAscent: 1047
OS2WinAOffset: 0
OS2WinDescent: 390
OS2WinDOffset: 0
HheadAscent: 1007
HheadAOffset: 0
HheadDescent: -298
HheadDOffset: 0
OS2SubXSize: 650
OS2SubYSize: 600
OS2SubXOff: -23
OS2SubYOff: 75
OS2SupXSize: 650
OS2SupYSize: 600
OS2SupXOff: 108
OS2SupYOff: 350
OS2StrikeYSize: 50
OS2StrikeYPos: 240
OS2CapHeight: 650
OS2XHeight: 400
OS2FamilyClass: 258
OS2Vendor: 'PfEd'
Lookup: 1 0 0 "'onum' Oldstyle Figures" { "'onum' Oldstyle Figures-1" ("oldstyle") } ['onum' ('DFLT' <'dflt' > 'cyrl' <'MKD ' 'SRB ' 'dflt' > 'grek' <'dflt' > 'latn' <'MOL ' 'ROM ' 'dflt' > ) ]
Lookup: 1 0 0 "'locl' Romanian comma accent" { "'locl' Romanian comma accent-1"  } ['locl' ('latn' <'MOL ' 'ROM ' > ) ]
Lookup: 1 0 0 "'locl' Macedo-Serbian Cyrillic" { "'locl' Macedo-Serbian Cyrillic-1" ("mkd") } ['locl' ('cyrl' <'MKD ' 'SRB ' > ) ]
Lookup: 1 0 0 "'ss01' Original glyphs" { "'ss01' Original glyphs-1" ("ss01") } ['ss01' ('DFLT' <'dflt' > 'cyrl' <'MKD ' 'SRB ' 'dflt' > 'latn' <'MOL ' 'ROM ' 'dflt' > ) ]
MarkAttachClasses: 1
DEI: 91125
TtTable: prep
PUSHW_1
 511
SCANCTRL
PUSHB_1
 4
SCANTYPE
EndTTInstrs
ShortTable: maxp 16
  1
  0
  2906
  582
  23
  582
  7
  1
  0
  0
  0
  0
  0
  0
  7
  1
EndShort

StartChar: A
Encoding: 65 65 0
Width: 600
GlyphClass: 2
Flags: W
LayerCount: 2
Fore
SplineSet
-33 -5 m 0
 -40 -5 -46 -4 -49 -2 c 128
 -52 0 -54 3 -55 8 c 0
 -55 13 -53 17 -47 20 c 128
 -41 23 -33 26 -23 29 c 0
 -5 34 11 41 25 48 c 128
 39 55 53 64 65 74 c 128
 77 84 88 96 98 108 c 0
 145 163 187 215 226 266 c 128
 265 317 303 367 339 417 c 128
 375 467 411 518 449 569 c 0
 456 579 464 588 469 596 c 128
 474 604 479 610 483 615 c 128
 487 620 491 622 493 622 c 0
 506 622 514 624 519 629 c 128
 524 634 530 640 538 649 c 0
 547 660 552 666 555 670 c 128
 558 674 562 676 565 676 c 256
 568 676 570 674 571 670 c 128
 572 666 572 657 569 644 c 2
 460 122 l 2
 453 90 452 68 457 54 c 128
 462 40 473 30 490 25 c 0
 499 22 507 20 512 18 c 128
 517 16 519 12 518 7 c 0
 518 3 516 0 511 -2 c 128
 506 -4 499 -5 489 -5 c 0
 481 -5 472 -5 459 -4 c 128
 446 -3 434 -1 420 0 c 128
 406 1 392 1 379 1 c 0
 363 1 363 1 346 1 c 128
 335 1 324 0 314 0 c 128
 304 0 296 0 289 0 c 0
 276 0 270 4 268 12 c 0
 268 17 269 20 274 24 c 128
 279 28 286 31 294 32 c 0
 314 36 329 41 341 46 c 128
 353 51 362 58 368 68 c 128
 374 78 380 93 385 112 c 2
 417 231 l 2
 420 241 418 248 412 252 c 128
 406 256 400 258 391 258 c 2
 289 256 l 2
 279 256 271 254 265 252 c 128
 259 250 254 245 249 238 c 2
 152 102 l 2
 141 86 134 73 133 64 c 128
 132 55 134 48 139 44 c 128
 144 40 150 37 156 34 c 256
 162 31 168 28 172 25 c 128
 176 22 178 17 178 12 c 0
 177 7 176 4 171 2 c 128
 166 0 160 -1 153 -1 c 0
 145 -1 135 -1 123 0 c 128
 111 1 97 1 81 1 c 0
 62 1 42 0 20 -2 c 128
 -2 -4 -19 -5 -33 -5 c 0
313 290 m 2
 410 291 l 2
 417 291 422 293 426 297 c 128
 430 301 434 308 436 319 c 2
 486 538 l 2
 488 546 488 552 488 556 c 128
 488 560 486 561 483 561 c 0
 481 561 478 560 475 559 c 128
 472 558 469 554 465 549 c 2
 297 312 l 2
 293 305 289 300 289 296 c 128
 289 292 297 290 313 290 c 2
EndSplineSet
EndChar

StartChar: B
Encoding: 66 66 1
Width: 600
GlyphClass: 2
Flags: W
LayerCount: 2
Fore
SplineSet
18 -5 m 0
 2 -5 -6 -1 -6 6 c 0
 -6 11 -2 16 4 18 c 128
 10 20 19 22 30 24 c 0
 55 29 75 36 91 47 c 128
 107 58 119 75 126 99 c 2
 263 549 l 2
 270 574 272 590 266 600 c 128
 260 610 246 617 223 621 c 0
 213 623 206 626 202 628 c 128
 198 630 196 633 196 638 c 256
 196 643 200 646 207 648 c 128
 214 650 221 650 229 650 c 0
 240 650 250 650 258 649 c 128
 266 648 273 647 280 646 c 128
 287 645 295 645 304 645 c 0
 314 645 325 646 338 648 c 128
 351 650 364 650 376 652 c 128
 388 654 398 655 406 655 c 0
 451 655 488 649 515 637 c 128
 542 625 561 610 573 590 c 128
 585 570 591 548 591 525 c 0
 591 501 585 480 574 462 c 128
 563 444 548 427 530 414 c 128
 512 401 493 390 472 382 c 128
 451 374 431 369 412 366 c 0
 407 365 405 364 405 362 c 128
 405 360 406 357 409 356 c 0
 448 341 479 322 501 298 c 128
 523 274 534 239 534 192 c 0
 534 163 527 137 514 113 c 128
 501 89 482 68 458 50 c 128
 434 32 405 19 372 10 c 128
 339 1 304 -4 266 -4 c 0
 238 -4 215 -2 196 -0 c 128
 177 2 159 3 140 3 c 0
 124 3 110 2 99 1 c 128
 88 0 76 -2 64 -3 c 128
 52 -4 36 -5 18 -5 c 0
263 21 m 0
 286 21 309 25 331 34 c 128
 353 43 373 56 392 73 c 128
 411 90 426 110 437 132 c 128
 448 154 453 178 453 205 c 0
 453 251 440 286 412 310 c 128
 384 334 343 346 288 346 c 0
 283 346 279 344 275 341 c 128
 271 338 268 333 267 327 c 2
 203 108 l 2
 200 96 199 84 200 73 c 128
 201 62 205 52 213 45 c 0
 220 38 228 33 235 28 c 128
 242 23 252 21 263 21 c 0
299 371 m 0
 314 371 330 372 345 374 c 128
 360 376 375 380 391 383 c 1
 424 397 453 416 476 439 c 128
 499 462 510 491 510 525 c 0
 510 552 499 576 478 596 c 128
 457 616 426 625 387 625 c 0
 374 625 366 624 360 622 c 128
 354 620 350 615 349 609 c 2
 287 386 l 2
 284 376 288 371 299 371 c 0
EndSplineSet
EndChar

StartChar: C
Encoding: 67 67 2
Width: 600
GlyphClass: 2
Flags: W
LayerCount: 2
Fore
SplineSet
314 -14 m 0
 288 -14 260 -8 233 4 c 128
 206 16 180 32 156 54 c 128
 132 76 113 104 99 135 c 128
 85 166 77 201 78 240 c 0
 79 300 90 356 111 407 c 128
 132 458 162 503 199 542 c 128
 236 581 277 610 324 632 c 128
 371 654 420 665 471 665 c 0
 489 665 507 663 524 660 c 128
 541 657 559 653 577 646 c 0
 589 642 599 638 608 635 c 128
 617 632 624 630 630 630 c 0
 633 630 636 630 640 632 c 128
 645 634 644 635 650 638 c 0
 653 639 658 640 662 642 c 128
 666 644 670 645 673 645 c 0
 679 645 682 643 682 639 c 128
 682 635 681 632 679 629 c 0
 672 619 663 606 654 589 c 128
 645 572 637 555 629 537 c 128
 621 519 617 502 613 487 c 0
 612 482 611 478 607 474 c 128
 603 470 599 467 596 467 c 0
 590 467 586 470 584 476 c 128
 582 482 581 487 582 493 c 0
 586 508 587 524 586 540 c 128
 585 556 579 570 569 585 c 256
 559 600 544 611 527 620 c 128
 510 629 490 634 468 634 c 0
 441 634 413 627 384 614 c 128
 355 601 328 582 302 558 c 128
 276 534 252 504 231 471 c 128
 210 438 192 400 180 360 c 128
 168 320 163 277 162 232 c 0
 161 191 165 157 176 130 c 128
 187 103 201 81 219 64 c 128
 237 47 257 35 278 28 c 128
 299 21 319 17 339 17 c 0
 371 17 400 23 420 34 c 128
 440 45 456 60 471 78 c 128
 486 96 499 116 512 139 c 0
 516 144 518 148 521 152 c 128
 524 156 529 158 534 158 c 0
 537 158 538 156 539 153 c 128
 540 150 541 145 541 138 c 0
 540 133 537 124 531 108 c 128
 525 92 519 75 510 57 c 128
 501 39 492 23 485 10 c 128
 478 -3 472 -9 469 -9 c 0
 466 -9 464 -8 461 -6 c 128
 458 -4 455 -1 452 2 c 0
 450 5 445 6 442 8 c 128
 439 10 435 11 431 11 c 0
 427 11 422 10 415 8 c 128
 408 6 402 3 393 0 c 0
 383 -3 371 -7 358 -10 c 128
 345 -13 330 -14 314 -14 c 0
EndSplineSet
EndChar

StartChar: D
Encoding: 68 68 3
Width: 600
GlyphClass: 2
Flags: W
LayerCount: 2
Fore
SplineSet
252 -7 m 0
 242 -7 228 -6 210 -4 c 128
 192 -2 172 -1 151 0 c 128
 130 1 112 1 96 1 c 0
 86 1 75 1 66 0 c 128
 57 -1 45 -1 35 -2 c 128
 25 -3 13 -4 -0 -4 c 0
 -5 -4 -11 -4 -13 -2 c 128
 -15 0 -18 3 -17 8 c 0
 -16 19 -6 25 12 27 c 0
 28 28 40 32 50 37 c 128
 60 42 67 50 72 60 c 128
 77 70 82 83 88 98 c 2
 234 557 l 2
 239 573 240 584 234 592 c 128
 228 600 221 606 211 610 c 128
 201 614 189 618 177 621 c 0
 171 623 167 626 165 629 c 128
 163 632 161 636 162 641 c 0
 163 646 166 649 171 651 c 128
 176 653 180 654 186 654 c 0
 206 654 227 654 245 652 c 128
 263 650 282 649 299 649 c 0
 310 649 319 649 328 650 c 128
 337 651 346 653 356 654 c 128
 366 655 378 655 392 655 c 0
 442 655 487 644 522 622 c 128
 557 600 583 569 600 528 c 128
 617 487 626 437 622 379 c 0
 619 328 607 279 587 233 c 128
 567 187 541 146 508 110 c 128
 475 74 436 45 392 24 c 128
 348 3 302 -7 252 -7 c 0
256 25 m 0
 293 25 325 35 358 56 c 128
 391 77 420 106 445 142 c 128
 470 178 490 218 506 262 c 128
 522 306 531 351 534 397 c 0
 537 449 533 491 522 524 c 128
 511 557 494 580 472 596 c 128
 450 612 424 620 392 620 c 0
 373 620 358 618 349 615 c 128
 340 612 333 606 329 599 c 128
 325 592 321 582 318 571 c 2
 183 135 l 2
 175 108 173 86 177 70 c 128
 181 54 190 43 204 36 c 128
 218 29 236 25 256 25 c 0
EndSplineSet
EndChar

StartChar: E
Encoding: 69 69 4
Width: 600
GlyphClass: 2
Flags: W
LayerCount: 2
Fore
SplineSet
5 -5 m 0
 -3 -5 -9 -4 -13 -2 c 128
 -17 0 -19 2 -19 6 c 0
 -19 14 -7 20 17 24 c 0
 50 29 75 37 89 48 c 128
 103 59 113 76 120 99 c 2
 257 549 l 2
 266 578 267 597 258 606 c 128
 249 615 230 621 201 625 c 0
 191 626 185 628 181 631 c 128
 177 634 175 637 175 642 c 0
 175 646 179 648 185 650 c 128
 191 652 198 653 206 653 c 0
 211 653 221 653 235 652 c 128
 249 651 264 650 281 650 c 128
 298 650 313 650 327 650 c 2
 488 650 l 2
 525 650 553 650 572 652 c 128
 591 654 604 656 612 658 c 128
 620 660 624 660 625 660 c 0
 628 660 631 659 633 656 c 128
 635 653 636 650 636 647 c 0
 636 643 634 636 630 626 c 128
 626 616 622 602 617 587 c 128
 612 572 609 554 606 535 c 0
 605 528 604 523 600 520 c 128
 596 517 592 516 589 516 c 256
 586 516 583 518 581 523 c 128
 579 528 577 534 578 541 c 0
 580 572 577 592 570 604 c 128
 563 616 546 622 519 622 c 2
 397 622 l 2
 381 622 370 620 363 616 c 128
 356 612 351 603 348 592 c 2
 281 380 l 2
 277 368 276 360 278 355 c 128
 280 350 286 348 297 349 c 2
 421 352 l 2
 438 353 453 357 463 364 c 128
 473 371 482 379 490 389 c 0
 495 394 500 400 506 408 c 128
 512 416 517 420 523 420 c 0
 528 420 532 418 532 412 c 128
 532 406 530 399 527 392 c 0
 521 381 516 370 512 360 c 128
 508 350 503 340 500 331 c 0
 496 320 493 310 490 298 c 128
 487 286 483 273 480 258 c 0
 479 253 478 249 476 244 c 128
 474 239 470 237 467 237 c 0
 462 237 459 241 457 248 c 128
 455 255 454 261 454 264 c 0
 454 285 451 300 444 308 c 128
 437 316 427 320 416 320 c 2
 301 322 l 2
 290 322 280 321 272 318 c 128
 264 315 257 306 253 291 c 2
 202 109 l 2
 193 75 191 53 197 42 c 128
 203 31 215 26 236 26 c 2
 391 26 l 2
 408 26 423 29 436 34 c 128
 449 39 460 46 471 53 c 0
 481 60 490 70 499 80 c 128
 508 90 516 102 525 116 c 0
 529 122 529 122 533 128 c 128
 536 132 539 134 543 134 c 0
 546 134 548 132 549 127 c 128
 550 122 550 118 550 114 c 0
 550 108 548 99 543 86 c 128
 538 73 533 61 527 48 c 128
 521 35 516 24 511 16 c 0
 507 9 503 4 498 0 c 128
 493 -4 486 -5 478 -5 c 0
 451 -5 424 -4 398 -4 c 128
 372 -4 346 -4 321 -3 c 128
 296 -2 273 -2 250 -1 c 128
 227 0 206 0 185 0 c 128
 164 0 144 1 125 1 c 0
 109 1 95 1 83 -0 c 128
 71 -1 60 -3 48 -4 c 128
 36 -5 22 -5 5 -5 c 0
EndSplineSet
EndChar

StartChar: F
Encoding: 70 70 5
Width: 600
GlyphClass: 2
Flags: W
LayerCount: 2
Fore
SplineSet
61 -5 m 0
 53 -5 47 -4 43 -3 c 128
 39 -2 37 1 37 6 c 0
 37 11 41 16 47 18 c 128
 53 20 62 22 73 24 c 0
 98 29 116 36 128 46 c 128
 140 56 150 74 157 99 c 2
 294 549 l 2
 302 573 302 590 294 600 c 128
 286 610 271 617 249 622 c 0
 239 624 232 627 229 630 c 128
 226 633 224 637 224 642 c 0
 224 646 228 648 234 650 c 128
 240 652 247 653 255 653 c 0
 262 653 278 653 300 652 c 128
 322 651 343 650 364 650 c 2
 523 650 l 2
 568 650 603 652 626 656 c 128
 649 660 661 662 664 662 c 0
 667 662 670 662 671 660 c 128
 672 658 672 655 672 652 c 0
 672 649 672 646 671 643 c 128
 670 640 668 635 667 630 c 0
 664 619 660 604 655 586 c 128
 650 568 646 553 644 540 c 0
 643 537 642 533 640 529 c 128
 638 525 634 523 627 523 c 0
 622 523 619 525 618 530 c 128
 617 535 616 541 616 546 c 0
 616 558 616 569 616 580 c 128
 616 591 612 599 605 606 c 0
 602 609 597 612 591 614 c 128
 585 616 577 618 568 618 c 2
 424 618 l 2
 411 618 403 615 398 609 c 128
 393 603 388 596 385 588 c 0
 384 586 381 576 375 558 c 128
 369 540 363 520 355 496 c 128
 347 472 340 449 333 426 c 128
 326 403 320 386 316 374 c 0
 315 369 314 364 315 358 c 128
 316 352 318 349 323 349 c 2
 458 352 l 2
 486 353 510 366 529 389 c 0
 534 394 539 400 544 404 c 128
 549 408 552 410 555 410 c 0
 558 410 562 409 564 406 c 128
 566 403 566 399 564 394 c 0
 553 369 544 346 538 328 c 128
 532 310 525 288 518 263 c 0
 517 258 515 254 513 251 c 128
 511 248 508 246 505 246 c 0
 500 246 496 249 494 255 c 128
 492 261 490 266 490 269 c 0
 490 288 487 301 480 308 c 128
 473 315 464 319 453 320 c 0
 446 321 434 322 418 322 c 128
 402 322 385 322 370 322 c 128
 347 322 347 322 338 322 c 0
 327 322 317 321 309 318 c 128
 301 315 294 306 290 291 c 2
 239 113 l 2
 232 90 230 74 232 62 c 128
 234 50 241 42 251 37 c 128
 261 32 275 28 292 24 c 0
 302 22 309 20 312 18 c 128
 315 16 317 11 317 6 c 0
 317 1 314 -2 308 -3 c 128
 302 -4 295 -5 287 -5 c 0
 270 -5 257 -4 246 -3 c 128
 235 -2 225 -1 215 0 c 128
 205 1 193 2 180 2 c 0
 157 2 139 0 123 -2 c 128
 107 -4 86 -5 61 -5 c 0
EndSplineSet
EndChar

StartChar: G
Encoding: 71 71 6
Width: 600
GlyphClass: 2
Flags: W
LayerCount: 2
Fore
SplineSet
340 -14 m 0
 303 -14 268 -9 235 2 c 128
 202 13 175 30 151 52 c 128
 127 74 109 102 97 136 c 128
 85 170 79 209 81 254 c 0
 83 312 96 366 116 416 c 128
 136 466 166 509 201 546 c 128
 236 583 278 611 325 632 c 128
 372 653 421 663 475 663 c 4
 494 663 509 661 523 657 c 128
 537 653 549 649 559 644 c 0
 568 640 575 637 582 634 c 128
 589 631 597 629 604 629 c 0
 607 629 610 630 614 632 c 128
 619 635 619 635 624 638 c 0
 627 640 630 642 633 643 c 128
 636 644 639 645 642 645 c 0
 647 645 650 643 650 639 c 128
 650 635 650 632 648 629 c 0
 641 619 633 606 624 589 c 128
 615 572 607 555 599 537 c 128
 591 519 588 502 584 487 c 0
 583 480 578 474 575 470 c 128
 572 466 570 464 567 464 c 0
 555 464 551 474 555 493 c 0
 558 508 559 524 558 540 c 128
 557 556 552 571 543 585 c 0
 535 596 526 607 512 618 c 128
 498 629 480 634 457 634 c 0
 417 634 379 623 344 600 c 128
 309 577 276 546 249 507 c 128
 222 468 199 424 183 376 c 128
 167 328 159 279 157 228 c 0
 156 195 160 164 171 138 c 128
 182 112 196 90 214 71 c 128
 232 52 252 38 274 28 c 128
 296 18 318 14 340 14 c 0
 367 14 389 23 405 40 c 128
 421 57 433 77 439 100 c 2
 468 209 l 2
 471 222 471 231 469 237 c 128
 467 243 461 247 453 250 c 0
 446 253 437 254 431 256 c 128
 425 258 419 259 414 260 c 0
 408 261 403 263 397 265 c 128
 391 267 387 270 388 275 c 256
 389 280 391 283 397 286 c 128
 403 289 409 290 417 290 c 0
 430 290 441 289 452 288 c 128
 463 287 474 287 484 286 c 128
 494 285 506 284 519 284 c 0
 534 284 545 285 556 287 c 128
 567 289 578 290 593 290 c 0
 605 290 610 285 610 276 c 0
 610 273 608 269 603 265 c 128
 598 261 592 258 582 256 c 0
 569 253 559 248 551 242 c 128
 543 236 537 226 531 213 c 0
 525 200 518 185 513 168 c 128
 508 151 503 136 500 122 c 128
 497 108 495 97 494 92 c 0
 494 86 495 81 496 76 c 128
 497 71 500 66 503 60 c 1
 499 51 492 41 479 32 c 128
 466 23 451 15 434 8 c 128
 417 1 401 -4 384 -8 c 128
 367 -12 353 -14 340 -14 c 0
EndSplineSet
EndChar

StartChar: H
Encoding: 72 72 7
Width: 600
GlyphClass: 2
Flags: W
LayerCount: 2
Fore
SplineSet
2 -5 m 0
 -4 -5 -10 -4 -12 -2 c 128
 -14 0 -15 2 -15 6 c 0
 -14 11 -13 14 -8 16 c 128
 -3 18 4 22 13 25 c 0
 31 31 43 37 52 42 c 128
 61 47 66 57 71 72 c 2
 221 551 l 2
 228 574 231 590 230 600 c 128
 229 610 220 617 203 622 c 0
 196 624 189 627 187 630 c 128
 185 633 184 637 185 642 c 0
 185 646 187 648 192 650 c 128
 197 652 203 653 209 653 c 0
 222 653 232 653 240 652 c 128
 248 651 255 650 261 650 c 128
 267 650 275 650 285 650 c 0
 295 650 303 650 310 650 c 128
 317 650 324 651 332 652 c 128
 340 653 351 653 364 653 c 0
 377 653 383 649 383 642 c 0
 382 637 380 633 374 630 c 128
 368 627 362 624 352 622 c 0
 339 619 327 614 318 608 c 128
 309 602 301 594 295 585 c 128
 289 576 284 564 280 551 c 2
 219 354 l 2
 217 348 220 345 226 345 c 2
 494 345 l 2
 497 345 501 349 503 357 c 2
 563 552 l 2
 569 570 570 585 567 597 c 128
 564 609 553 617 536 622 c 0
 529 624 523 627 521 630 c 128
 519 633 517 637 518 642 c 0
 518 646 520 648 525 650 c 128
 530 652 536 653 542 653 c 0
 555 653 566 653 575 652 c 128
 584 651 591 650 599 650 c 128
 607 650 616 650 627 650 c 0
 636 650 643 650 648 650 c 128
 653 650 660 651 666 652 c 128
 672 653 683 653 696 653 c 0
 702 653 707 652 710 650 c 128
 713 648 715 646 715 642 c 0
 714 633 704 626 684 622 c 0
 663 617 650 609 643 598 c 128
 636 587 629 571 623 552 c 2
 478 81 l 2
 473 65 472 52 475 43 c 128
 478 34 486 27 501 24 c 0
 508 22 515 20 517 17 c 128
 519 14 522 11 521 6 c 0
 521 2 518 0 513 -2 c 128
 508 -4 501 -5 495 -5 c 0
 482 -5 472 -5 465 -4 c 128
 458 -3 452 -2 445 -1 c 128
 438 0 430 0 420 0 c 256
 410 0 402 0 395 -1 c 128
 388 -2 379 -3 371 -4 c 128
 363 -5 352 -5 339 -5 c 0
 326 -5 321 -1 321 6 c 0
 322 11 324 14 329 17 c 128
 334 20 340 22 350 24 c 0
 367 27 383 35 396 47 c 128
 409 59 418 76 424 97 c 2
 485 292 l 2
 486 295 487 299 488 302 c 128
 489 305 489 307 486 307 c 2
 211 307 l 2
 208 307 206 303 204 296 c 2
 144 104 l 2
 135 75 135 56 142 46 c 128
 149 36 160 28 177 24 c 0
 184 22 191 20 193 17 c 128
 195 14 197 11 196 6 c 0
 196 2 193 0 188 -2 c 128
 183 -4 177 -5 171 -5 c 0
 158 -5 148 -5 139 -4 c 128
 130 -3 122 -2 114 -1 c 128
 106 0 96 0 85 0 c 0
 74 0 66 0 59 -1 c 128
 52 -2 43 -3 35 -4 c 128
 27 -5 15 -5 2 -5 c 0
EndSplineSet
EndChar

StartChar: I
Encoding: 73 73 8
Width: 600
GlyphClass: 2
Flags: W
LayerCount: 2
Fore
SplineSet
122 -5 m 0
 114 -5 108 -4 104 -2 c 128
 100 0 98 2 98 6 c 0
 98 14 110 20 134 24 c 0
 159 29 180 36 196 47 c 128
 212 58 223 75 230 98 c 2
 368 550 l 2
 375 573 376 590 370 600 c 128
 364 610 349 617 327 622 c 0
 317 624 311 627 308 630 c 128
 305 633 303 637 303 642 c 0
 303 646 306 648 312 650 c 128
 318 652 325 653 333 653 c 0
 350 653 363 653 374 652 c 128
 385 651 395 650 405 650 c 128
 415 650 427 650 441 650 c 0
 454 650 466 650 475 650 c 128
 484 650 493 651 503 652 c 128
 513 653 526 653 543 653 c 0
 559 653 567 649 567 642 c 0
 567 637 564 633 557 630 c 128
 550 627 541 624 530 622 c 0
 514 619 501 615 489 610 c 128
 477 605 467 597 460 588 c 128
 453 579 447 566 442 550 c 2
 304 98 l 2
 299 83 298 70 301 60 c 128
 304 50 310 42 319 37 c 128
 328 32 340 27 355 24 c 0
 365 22 372 20 375 17 c 128
 378 14 380 11 380 6 c 0
 380 2 377 0 371 -2 c 128
 365 -4 358 -5 350 -5 c 0
 333 -5 320 -5 309 -4 c 128
 298 -3 289 -2 279 -1 c 128
 269 0 257 0 242 0 c 0
 219 0 200 0 184 -2 c 128
 168 -4 147 -5 122 -5 c 0
EndSplineSet
EndChar

StartChar: J
Encoding: 74 74 9
Width: 600
GlyphClass: 2
Flags: W
LayerCount: 2
Fore
SplineSet
61 -200 m 0
 31 -200 9 -194 -6 -182 c 128
 -21 -170 -28 -158 -28 -147 c 0
 -28 -133 -27 -122 -23 -114 c 128
 -19 -106 -13 -102 -4 -102 c 0
 1 -102 8 -106 16 -113 c 128
 24 -120 33 -128 44 -135 c 0
 52 -141 61 -147 71 -153 c 128
 81 -159 91 -162 102 -162 c 0
 115 -162 128 -158 139 -150 c 128
 150 -142 161 -126 173 -103 c 128
 185 -80 197 -48 210 -5 c 2
 379 551 l 2
 386 574 387 590 381 600 c 128
 375 610 362 617 340 622 c 0
 330 624 323 627 320 630 c 128
 317 633 315 637 315 642 c 0
 315 646 318 648 324 650 c 128
 330 652 338 653 346 653 c 0
 363 653 376 653 386 652 c 128
 396 651 407 650 417 650 c 128
 427 650 439 650 453 650 c 0
 464 650 473 650 480 650 c 128
 487 650 495 651 504 652 c 128
 513 653 525 653 542 653 c 0
 557 653 565 649 565 642 c 0
 565 637 561 633 555 630 c 128
 549 627 540 624 529 622 c 0
 513 619 500 615 491 610 c 128
 482 605 474 597 469 588 c 128
 464 579 459 566 454 551 c 2
 329 142 l 2
 313 89 298 48 286 16 c 128
 274 -16 262 -42 252 -60 c 128
 242 -78 232 -92 223 -103 c 128
 214 -114 204 -124 195 -134 c 0
 176 -153 156 -170 134 -182 c 128
 112 -194 88 -200 61 -200 c 0
EndSplineSet
EndChar

StartChar: K
Encoding: 75 75 10
Width: 600
GlyphClass: 2
Flags: W
LayerCount: 2
Fore
SplineSet
5 -5 m 0
 -2 -5 -7 -4 -10 -2 c 128
 -13 0 -14 2 -14 6 c 0
 -14 14 -4 20 17 24 c 0
 39 29 56 37 67 48 c 128
 78 59 86 76 94 101 c 2
 233 551 l 2
 240 574 241 590 236 600 c 128
 231 610 219 617 201 622 c 0
 193 624 187 627 184 630 c 128
 181 633 179 637 180 642 c 0
 180 646 182 648 188 650 c 128
 194 652 200 653 207 653 c 0
 221 653 233 652 242 652 c 128
 251 652 259 652 267 652 c 128
 275 652 285 651 296 651 c 0
 306 651 314 652 320 652 c 128
 326 652 333 652 341 652 c 128
 349 652 360 653 374 653 c 0
 388 653 394 649 394 642 c 0
 393 637 391 633 385 630 c 128
 379 627 372 624 362 622 c 0
 348 619 336 616 329 612 c 128
 322 608 316 601 311 592 c 128
 306 583 303 569 297 551 c 2
 239 360 l 2
 237 355 239 352 240 350 c 128
 241 348 244 347 248 347 c 0
 257 347 267 351 276 358 c 128
 285 365 297 374 308 385 c 2
 497 567 l 2
 504 574 512 582 517 588 c 128
 522 594 524 600 525 605 c 0
 525 607 524 609 522 612 c 128
 520 615 517 617 510 620 c 0
 504 623 498 625 494 628 c 128
 490 631 489 635 490 640 c 0
 490 644 494 646 501 648 c 128
 508 650 515 651 522 651 c 2
 565 651 l 2
 588 651 611 652 635 653 c 128
 659 654 680 655 695 655 c 0
 705 655 709 651 709 644 c 0
 708 639 706 635 700 632 c 128
 694 629 686 626 676 624 c 0
 654 619 632 612 608 602 c 128
 584 592 559 577 535 558 c 0
 509 537 486 516 464 496 c 128
 442 476 420 455 397 432 c 128
 374 409 349 384 322 357 c 0
 319 354 318 351 318 348 c 128
 318 345 318 342 320 339 c 0
 351 268 376 212 400 169 c 128
 424 126 445 93 464 70 c 0
 476 55 489 46 501 40 c 128
 513 34 526 29 540 24 c 0
 549 21 555 18 557 16 c 128
 559 14 562 11 561 6 c 0
 561 2 558 0 552 -2 c 128
 546 -4 541 -5 534 -5 c 0
 519 -5 506 -5 495 -4 c 128
 484 -3 472 -2 458 -1 c 128
 444 0 423 0 397 0 c 0
 388 0 388 0 382 0 c 128
 378 0 373 0 367 0 c 128
 361 0 352 -1 340 -1 c 0
 333 -1 328 0 325 2 c 128
 322 4 321 6 321 10 c 0
 322 15 323 18 328 20 c 128
 333 22 339 25 347 27 c 0
 359 30 366 33 371 36 c 128
 376 39 377 43 376 48 c 128
 375 53 373 61 367 72 c 2
 257 306 l 2
 255 312 250 316 243 319 c 128
 236 322 232 323 230 323 c 256
 228 323 226 321 224 316 c 128
 222 311 221 306 220 302 c 2
 165 110 l 2
 157 81 156 61 161 49 c 128
 166 37 178 29 196 24 c 0
 204 22 210 20 213 17 c 128
 216 14 219 11 218 6 c 0
 218 2 215 0 209 -2 c 128
 203 -4 198 -5 191 -5 c 0
 177 -5 166 -4 158 -3 c 128
 150 -2 142 -1 135 0 c 128
 128 1 120 2 109 2 c 0
 90 2 72 0 58 -2 c 128
 44 -4 27 -5 5 -5 c 0
EndSplineSet
EndChar

StartChar: L
Encoding: 76 76 11
Width: 600
GlyphClass: 2
Flags: W
LayerCount: 2
Fore
SplineSet
14 -5 m 0
 6 -5 0 -4 -4 -2 c 128
 -8 0 -10 2 -10 6 c 0
 -10 14 2 20 26 24 c 0
 51 29 73 37 93 48 c 128
 113 59 126 76 133 99 c 2
 274 560 l 2
 281 584 283 600 278 606 c 128
 273 612 259 617 237 622 c 0
 227 624 220 627 217 630 c 128
 214 633 212 637 212 642 c 0
 212 646 215 648 221 650 c 128
 227 652 234 653 242 653 c 0
 259 653 273 653 283 652 c 128
 293 651 303 651 312 650 c 128
 321 649 333 648 346 648 c 0
 361 648 375 649 387 650 c 128
 399 651 411 651 424 652 c 128
 437 653 451 653 468 653 c 0
 483 653 491 649 491 642 c 0
 491 637 487 632 480 630 c 128
 473 628 463 626 452 625 c 0
 435 624 420 620 406 616 c 128
 392 612 380 606 371 598 c 128
 362 590 355 580 351 567 c 2
 216 113 l 2
 209 88 208 67 213 52 c 128
 218 37 233 30 258 30 c 2
 338 30 l 2
 375 30 405 34 427 42 c 128
 449 50 466 59 479 72 c 256
 492 85 502 97 511 110 c 128
 520 123 529 137 540 152 c 0
 543 156 546 159 548 160 c 128
 550 161 552 162 556 162 c 0
 559 162 562 161 563 159 c 128
 564 157 564 154 564 150 c 0
 564 145 563 137 559 125 c 128
 555 113 550 99 545 84 c 128
 540 69 535 55 529 42 c 128
 523 29 518 18 513 11 c 0
 510 7 507 3 503 0 c 128
 499 -3 495 -5 490 -5 c 0
 452 -5 417 -5 385 -4 c 128
 353 -3 322 -3 293 -2 c 128
 264 -1 237 -1 212 0 c 128
 187 1 162 1 139 1 c 0
 114 1 94 0 77 -2 c 128
 60 -4 39 -5 14 -5 c 0
EndSplineSet
EndChar

StartChar: M
Encoding: 77 77 12
Width: 600
GlyphClass: 2
Flags: W
LayerCount: 2
Fore
SplineSet
227 -14 m 0
 225 -14 224 -12 223 -8 c 128
 222 -4 222 3 223 10 c 0
 234 91 243 172 252 252 c 128
 261 332 269 413 277 493 c 0
 278 506 276 511 273 510 c 128
 270 509 265 502 260 489 c 0
 236 433 212 377 190 321 c 128
 168 265 147 209 125 152 c 0
 114 122 106 98 102 81 c 128
 98 64 98 52 100 44 c 128
 102 36 106 31 112 28 c 0
 118 27 121 25 124 22 c 128
 127 19 128 15 127 10 c 0
 126 6 123 2 118 0 c 128
 113 -2 109 -3 105 -3 c 0
 95 -3 86 -3 80 -2 c 128
 74 -1 69 0 63 0 c 128
 57 0 50 0 41 0 c 0
 33 0 27 0 21 -1 c 128
 15 -2 9 -3 3 -4 c 128
 -3 -5 -10 -5 -17 -5 c 0
 -27 -5 -30 -1 -29 6 c 0
 -28 11 -25 15 -21 18 c 128
 -17 21 -13 23 -6 25 c 0
 6 29 16 34 25 42 c 128
 34 50 44 62 54 78 c 128
 64 94 75 118 89 149 c 2
 248 521 l 2
 256 541 262 558 264 572 c 128
 266 586 263 596 257 605 c 128
 251 614 237 620 221 625 c 0
 214 627 209 629 206 631 c 128
 203 633 202 637 203 642 c 0
 204 648 205 652 210 654 c 128
 215 656 222 658 229 658 c 0
 236 658 246 658 259 657 c 128
 272 656 284 655 298 654 c 128
 312 653 324 653 333 653 c 0
 340 653 344 650 346 644 c 128
 348 638 349 628 348 617 c 128
 347 606 345 591 343 574 c 2
 301 182 l 2
 300 170 301 164 304 165 c 128
 307 166 312 170 317 178 c 0
 346 221 375 265 403 310 c 128
 431 355 458 399 486 444 c 128
 514 489 541 532 566 574 c 0
 572 588 578 600 582 610 c 128
 586 620 591 628 595 636 c 0
 599 645 604 650 609 650 c 2
 634 650 l 2
 640 650 647 651 655 652 c 128
 663 653 672 655 680 656 c 128
 688 657 695 658 699 658 c 0
 704 658 707 656 710 654 c 128
 713 652 716 648 715 643 c 256
 714 638 711 633 707 629 c 128
 703 625 696 622 685 619 c 0
 673 616 665 611 657 606 c 128
 649 601 643 593 638 582 c 128
 633 571 627 554 620 532 c 0
 601 469 584 403 566 336 c 128
 548 269 533 203 517 138 c 0
 509 101 504 74 507 58 c 128
 510 42 517 32 530 28 c 0
 536 27 539 25 541 22 c 128
 543 19 543 15 542 10 c 0
 541 7 539 4 535 1 c 128
 531 -2 527 -3 523 -3 c 0
 514 -3 505 -2 496 -1 c 128
 487 0 478 2 470 4 c 128
 462 6 453 6 444 6 c 256
 435 6 427 6 419 4 c 128
 411 2 403 0 396 -1 c 128
 389 -2 379 -3 369 -3 c 0
 365 -3 362 -2 360 0 c 128
 358 2 358 6 358 10 c 0
 360 15 362 19 366 22 c 128
 370 25 374 27 380 30 c 0
 395 35 407 44 415 54 c 128
 423 64 431 80 438 102 c 0
 454 149 466 193 478 234 c 128
 490 275 502 316 513 356 c 128
 524 396 536 437 547 480 c 0
 548 483 548 486 546 486 c 128
 544 486 543 484 541 481 c 2
 330 155 l 1
 245 9 l 2
 241 2 237 -4 234 -8 c 128
 231 -12 229 -14 227 -14 c 0
EndSplineSet
EndChar

StartChar: N
Encoding: 78 78 13
Width: 600
GlyphClass: 2
Flags: W
LayerCount: 2
Fore
SplineSet
9 -4 m 0
 4 -4 -1 -4 -4 -2 c 128
 -7 0 -9 3 -8 8 c 256
 -7 13 -4 16 -0 19 c 128
 4 22 9 24 17 27 c 0
 39 34 55 44 66 56 c 128
 77 68 85 83 91 101 c 2
 231 521 l 2
 239 542 242 560 243 575 c 128
 244 590 241 601 232 609 c 128
 223 617 209 622 190 624 c 0
 181 625 175 627 170 630 c 128
 165 633 162 638 163 643 c 0
 164 649 167 653 173 655 c 128
 179 657 183 658 186 658 c 0
 199 658 211 658 225 657 c 128
 239 656 251 655 264 654 c 128
 277 653 289 653 300 653 c 0
 305 653 310 651 314 648 c 128
 318 645 321 640 322 635 c 2
 458 167 l 2
 459 164 460 160 463 156 c 128
 466 152 468 150 470 150 c 0
 473 150 476 156 481 168 c 0
 483 175 489 187 494 204 c 128
 499 221 506 240 513 264 c 128
 520 288 527 313 535 340 c 128
 543 367 550 392 558 417 c 128
 566 442 573 464 578 484 c 128
 583 504 587 518 589 528 c 0
 596 558 596 579 587 592 c 128
 578 605 560 615 535 620 c 0
 523 623 517 629 518 638 c 0
 518 642 521 646 527 648 c 128
 533 650 538 651 543 651 c 0
 559 651 575 650 588 648 c 128
 601 646 615 646 627 646 c 0
 637 646 648 647 656 648 c 128
 664 649 673 651 683 652 c 128
 693 653 705 653 719 653 c 0
 730 653 735 649 735 641 c 0
 734 636 732 632 726 628 c 128
 720 624 713 622 706 621 c 0
 693 619 682 616 674 612 c 128
 666 608 659 599 653 588 c 128
 647 577 640 562 632 541 c 0
 630 534 626 520 619 501 c 128
 612 482 604 458 595 431 c 128
 586 404 577 375 567 344 c 128
 557 313 548 284 538 255 c 128
 528 226 520 201 513 178 c 128
 506 155 500 137 497 126 c 0
 493 113 490 102 491 94 c 128
 492 86 493 77 497 67 c 0
 500 59 502 53 506 48 c 128
 510 43 515 38 518 33 c 0
 522 29 525 25 528 22 c 128
 531 19 532 14 531 9 c 0
 531 5 530 3 528 2 c 128
 526 1 524 0 521 0 c 0
 510 0 500 -1 492 -2 c 128
 484 -3 477 -3 471 -4 c 128
 465 -5 457 -6 451 -6 c 0
 441 -6 433 -3 428 2 c 128
 423 7 418 17 414 30 c 0
 408 51 402 75 395 102 c 128
 388 129 380 157 372 187 c 128
 364 217 357 248 348 278 c 128
 339 308 332 338 324 366 c 128
 316 394 308 420 301 444 c 128
 294 468 289 490 282 507 c 0
 281 512 278 517 275 521 c 128
 272 525 270 527 268 527 c 0
 265 527 263 524 259 518 c 128
 255 512 253 506 250 497 c 0
 243 473 234 446 224 414 c 128
 214 382 204 348 193 312 c 128
 182 276 170 240 160 204 c 128
 150 168 141 133 132 101 c 0
 126 80 128 64 134 52 c 128
 140 40 154 32 174 26 c 0
 180 24 186 22 189 20 c 128
 192 18 194 13 193 8 c 0
 192 4 191 1 186 -1 c 128
 181 -3 176 -4 170 -4 c 0
 157 -4 145 -3 137 -2 c 128
 129 -1 123 0 116 0 c 128
 109 0 102 0 94 0 c 0
 83 0 72 0 63 -1 c 128
 54 -2 44 -2 36 -3 c 128
 28 -4 18 -4 9 -4 c 0
EndSplineSet
EndChar

StartChar: O
Encoding: 79 79 14
Width: 600
GlyphClass: 2
Flags: W
LayerCount: 2
Fore
SplineSet
262 -14 m 0
 217 -14 181 -2 153 22 c 128
 125 46 105 77 93 116 c 128
 81 155 75 197 77 243 c 0
 79 291 89 340 105 389 c 128
 121 438 146 484 177 526 c 128
 208 568 244 601 287 626 c 128
 330 651 379 664 433 664 c 0
 478 664 513 652 541 628 c 128
 569 604 589 573 601 534 c 128
 613 495 618 453 616 407 c 0
 614 359 604 310 588 261 c 128
 572 212 547 166 516 124 c 128
 485 82 449 49 406 24 c 128
 363 -1 316 -14 262 -14 c 0
265 17 m 0
 296 17 326 25 353 42 c 128
 380 59 406 83 429 112 c 128
 452 141 472 173 488 210 c 128
 504 247 518 286 527 326 c 128
 536 366 543 406 545 445 c 0
 547 476 543 507 536 536 c 128
 529 565 516 589 499 608 c 128
 482 627 458 636 429 636 c 0
 399 636 370 627 343 610 c 128
 316 593 290 569 268 540 c 128
 246 511 225 477 208 440 c 128
 191 403 177 365 167 324 c 128
 157 283 151 244 149 205 c 0
 147 174 152 144 159 115 c 128
 166 86 178 62 195 44 c 128
 212 26 236 17 265 17 c 0
EndSplineSet
EndChar

StartChar: P
Encoding: 80 80 15
Width: 600
GlyphClass: 2
Flags: W
LayerCount: 2
Fore
SplineSet
43 -5 m 0
 35 -5 29 -4 25 -2 c 128
 21 0 19 2 19 6 c 0
 19 11 23 14 29 17 c 128
 35 20 44 22 55 24 c 0
 80 29 99 36 114 47 c 128
 129 58 140 75 147 100 c 2
 281 537 l 2
 290 566 291 588 283 602 c 128
 275 616 253 624 220 627 c 0
 210 628 203 630 200 632 c 128
 197 634 195 637 195 642 c 0
 195 646 199 648 205 650 c 128
 211 652 218 653 226 653 c 0
 231 653 231 653 247 653 c 128
 258 653 269 652 282 652 c 128
 295 652 306 652 315 652 c 0
 322 652 333 652 347 653 c 128
 361 654 376 654 391 655 c 128
 406 656 417 656 426 656 c 0
 468 656 505 649 537 634 c 128
 569 619 594 598 612 571 c 128
 630 544 638 511 638 472 c 0
 638 440 631 411 616 384 c 128
 601 357 581 334 555 315 c 128
 529 296 500 281 467 270 c 128
 434 259 400 254 365 254 c 0
 358 254 350 254 339 256 c 128
 328 258 323 262 323 267 c 0
 323 271 325 274 330 276 c 128
 335 278 340 279 346 280 c 0
 355 281 365 282 374 284 c 128
 383 286 392 288 401 290 c 0
 430 298 455 310 478 326 c 128
 501 342 519 364 533 390 c 128
 547 416 553 445 553 480 c 0
 553 508 548 533 536 556 c 128
 524 579 507 597 484 610 c 128
 461 623 433 630 400 630 c 0
 395 630 390 629 387 626 c 128
 384 623 381 618 379 612 c 128
 377 606 373 598 370 588 c 2
 224 111 l 2
 215 84 215 65 222 52 c 128
 229 39 246 29 272 24 c 0
 282 22 289 20 292 17 c 128
 295 14 297 11 297 6 c 0
 297 2 294 0 288 -2 c 128
 282 -4 275 -5 267 -5 c 0
 250 -5 237 -4 226 -3 c 128
 215 -2 206 -1 197 0 c 128
 188 1 178 2 166 2 c 0
 142 2 122 0 106 -2 c 128
 90 -4 68 -5 43 -5 c 0
EndSplineSet
EndChar

StartChar: Q
Encoding: 81 81 16
Width: 600
GlyphClass: 1
Flags: W
LayerCount: 2
Fore
SplineSet
459 -270 m 0
 428 -270 400 -262 373 -246 c 128
 346 -230 320 -215 295 -198 c 0
 271 -181 245 -167 220 -154 c 128
 195 -141 168 -135 139 -135 c 0
 129 -135 120 -136 111 -137 c 128
 102 -138 92 -141 85 -144 c 0
 76 -148 69 -152 62 -156 c 128
 55 -160 49 -161 44 -161 c 0
 39 -161 36 -161 35 -160 c 128
 34 -159 33 -157 34 -152 c 0
 34 -145 41 -137 53 -128 c 128
 65 -119 81 -110 100 -101 c 128
 119 -92 138 -83 160 -74 c 128
 182 -65 202 -56 221 -48 c 128
 240 -40 257 -33 270 -26 c 0
 323 1 370 37 411 82 c 128
 452 127 485 181 509 242 c 128
 533 303 547 370 550 445 c 0
 552 476 547 507 539 536 c 128
 531 565 517 588 498 607 c 128
 479 626 453 635 421 635 c 0
 392 635 364 627 338 610 c 128
 312 593 287 569 265 540 c 128
 243 511 223 477 207 440 c 128
 191 403 176 364 167 324 c 128
 158 284 152 244 150 205 c 0
 148 174 154 142 164 112 c 128
 174 82 190 57 216 37 c 128
 242 17 277 7 323 7 c 0
 328 7 329 7 334 7 c 128
 337 7 341 7 344 8 c 1
 314 -10 l 2
 312 -10 305 -11 297 -12 c 128
 289 -13 281 -14 271 -14 c 0
 224 -14 187 -2 158 22 c 128
 129 46 108 77 95 116 c 128
 82 155 76 197 78 243 c 0
 80 291 90 340 106 389 c 128
 122 438 147 484 177 526 c 128
 207 568 243 601 286 626 c 128
 329 651 379 664 434 664 c 0
 479 664 514 652 543 628 c 128
 572 604 592 573 605 534 c 128
 618 495 623 453 621 407 c 0
 619 362 612 317 595 270 c 128
 578 223 556 179 526 138 c 128
 496 97 458 60 414 29 c 0
 388 10 365 -6 344 -20 c 128
 323 -34 298 -48 272 -61 c 128
 246 -74 214 -87 176 -100 c 1
 158 -93 l 1
 166 -90 174 -88 181 -87 c 128
 188 -86 196 -85 203 -85 c 0
 228 -85 253 -91 279 -102 c 128
 305 -113 329 -127 350 -142 c 0
 376 -161 402 -178 427 -194 c 128
 452 -210 475 -217 496 -217 c 0
 514 -217 531 -212 546 -202 c 128
 561 -192 574 -180 585 -165 c 0
 590 -158 593 -154 596 -154 c 128
 599 -154 602 -156 603 -159 c 128
 604 -162 604 -166 601 -171 c 0
 596 -182 589 -194 579 -206 c 128
 569 -218 559 -228 546 -238 c 128
 533 -248 520 -255 505 -261 c 128
 490 -267 475 -270 459 -270 c 0
EndSplineSet
EndChar

StartChar: R
Encoding: 82 82 17
Width: 600
GlyphClass: 2
Flags: W
LayerCount: 2
Fore
SplineSet
23 -5 m 0
 16 -5 11 -4 8 -2 c 128
 5 0 3 2 3 6 c 0
 3 14 14 20 35 24 c 0
 57 29 75 36 88 47 c 128
 101 58 110 75 118 100 c 2
 253 538 l 2
 260 561 264 579 264 590 c 128
 264 601 259 608 249 612 c 128
 239 616 225 620 203 622 c 0
 194 623 188 625 184 628 c 128
 180 631 178 634 179 639 c 0
 180 644 182 648 189 650 c 128
 196 652 202 653 209 653 c 0
 213 653 214 653 231 653 c 128
 243 653 254 652 265 652 c 128
 276 652 284 652 287 652 c 0
 298 652 309 652 321 652 c 128
 333 652 344 653 355 654 c 128
 366 655 376 655 384 655 c 0
 414 655 441 650 467 640 c 128
 493 630 513 614 528 592 c 128
 543 570 551 542 550 507 c 0
 549 471 540 440 524 414 c 128
 508 388 488 366 464 350 c 128
 440 334 418 321 392 312 c 0
 384 309 379 303 382 295 c 0
 384 286 390 273 396 255 c 128
 402 237 410 217 417 196 c 128
 425 175 432 156 438 138 c 128
 444 120 449 107 453 98 c 0
 464 72 475 55 485 46 c 128
 495 37 508 30 525 27 c 0
 533 26 539 24 545 22 c 128
 551 20 555 18 554 13 c 0
 554 6 549 1 540 -1 c 128
 531 -3 521 -4 509 -4 c 0
 493 -4 477 -4 464 -2 c 128
 451 0 440 4 430 9 c 128
 420 14 412 22 407 32 c 0
 398 51 389 74 379 100 c 128
 369 126 358 152 349 179 c 128
 340 206 333 229 326 249 c 0
 320 268 313 281 307 288 c 128
 301 295 290 298 274 298 c 0
 261 298 253 296 248 294 c 128
 243 292 241 287 239 280 c 2
 186 111 l 2
 179 87 177 68 180 53 c 128
 183 38 196 29 214 24 c 0
 222 22 228 20 231 17 c 128
 234 14 236 11 235 6 c 0
 235 2 233 0 227 -2 c 128
 221 -4 215 -5 208 -5 c 0
 193 -5 183 -4 175 -3 c 128
 167 -2 161 -1 155 0 c 128
 149 1 141 2 131 2 c 0
 110 2 93 0 78 -2 c 128
 63 -4 45 -5 23 -5 c 0
307 318 m 0
 319 318 335 321 353 327 c 128
 371 333 391 344 409 358 c 128
 427 372 443 391 456 416 c 128
 469 441 476 471 477 508 c 0
 479 542 470 570 451 594 c 128
 432 618 407 630 376 630 c 0
 368 630 361 628 355 624 c 128
 349 620 344 614 340 603 c 128
 336 592 329 576 323 555 c 2
 269 356 l 2
 265 341 266 331 271 326 c 128
 276 321 288 318 307 318 c 0
EndSplineSet
EndChar

StartChar: S
Encoding: 83 83 18
Width: 600
GlyphClass: 2
Flags: W
LayerCount: 2
Fore
SplineSet
250 -15 m 0
 233 -15 216 -13 199 -10 c 128
 182 -7 164 -3 147 4 c 0
 138 7 131 10 125 12 c 128
 119 14 116 16 114 16 c 0
 111 16 107 15 103 14 c 128
 99 13 96 11 93 10 c 0
 89 7 85 5 82 3 c 128
 79 1 76 0 73 0 c 256
 70 0 66 2 61 6 c 128
 56 10 54 15 54 19 c 256
 54 23 57 32 63 46 c 128
 69 60 75 78 83 100 c 128
 91 122 97 145 100 171 c 0
 102 184 107 191 116 191 c 0
 121 191 125 188 126 182 c 128
 127 176 128 165 128 152 c 0
 128 127 132 103 140 82 c 128
 148 61 161 45 179 33 c 128
 197 21 220 15 247 15 c 0
 290 15 325 28 355 52 c 128
 385 76 400 110 400 155 c 0
 400 172 397 188 392 203 c 128
 387 218 379 232 367 248 c 128
 355 264 338 282 317 302 c 0
 288 328 263 355 243 383 c 128
 223 411 213 444 213 482 c 0
 213 517 222 549 240 576 c 128
 258 603 283 624 315 640 c 128
 347 656 383 664 422 664 c 0
 433 664 444 662 456 660 c 128
 468 658 480 655 491 652 c 0
 504 648 515 644 524 640 c 128
 533 636 540 635 545 635 c 0
 552 635 559 637 564 640 c 0
 567 641 569 643 572 644 c 128
 575 645 578 645 581 645 c 0
 586 645 590 643 591 639 c 128
 592 635 593 632 593 629 c 0
 593 628 590 624 586 616 c 128
 582 608 577 596 571 578 c 128
 565 560 560 533 555 498 c 0
 554 488 551 480 547 474 c 128
 543 468 541 466 539 466 c 0
 534 466 531 469 529 474 c 128
 527 479 527 485 527 492 c 0
 527 539 516 574 495 598 c 128
 474 622 445 635 410 635 c 0
 387 635 365 629 345 616 c 128
 325 603 310 588 299 568 c 128
 288 548 282 527 282 506 c 0
 282 489 285 472 291 456 c 128
 297 440 306 423 320 406 c 128
 334 389 352 369 375 348 c 0
 409 317 434 289 451 264 c 128
 468 239 477 212 477 184 c 0
 477 147 468 114 451 84 c 128
 434 54 408 30 374 12 c 128
 340 -6 299 -15 250 -15 c 0
EndSplineSet
EndChar

StartChar: T
Encoding: 84 84 19
Width: 600
GlyphClass: 2
Flags: W
LayerCount: 2
Fore
SplineSet
141 -5 m 0
 133 -5 127 -4 124 -2 c 128
 121 0 119 2 119 6 c 0
 120 11 122 14 129 16 c 128
 136 18 144 20 155 22 c 0
 179 27 198 36 214 48 c 128
 230 60 242 78 248 102 c 2
 370 530 l 2
 380 564 385 587 383 598 c 128
 381 609 376 614 368 614 c 2
 288 614 l 2
 256 614 232 607 215 594 c 128
 198 581 184 568 172 553 c 0
 166 546 161 540 156 532 c 128
 151 524 147 517 142 512 c 128
 137 507 134 504 130 504 c 256
 126 504 123 504 122 506 c 128
 121 508 119 512 119 517 c 0
 119 518 119 522 121 527 c 128
 123 532 126 539 130 548 c 0
 136 561 144 577 152 594 c 128
 160 611 167 629 171 646 c 0
 173 651 175 656 178 660 c 128
 181 664 185 666 188 666 c 256
 191 666 193 664 196 662 c 128
 199 660 201 657 204 654 c 0
 206 652 211 650 214 648 c 128
 217 646 224 645 234 644 c 128
 244 643 258 642 278 642 c 2
 623 642 l 2
 643 642 657 643 667 644 c 128
 677 645 684 647 689 649 c 128
 694 651 697 653 699 655 c 0
 702 658 704 661 707 663 c 128
 710 665 712 666 715 666 c 0
 721 666 725 662 725 655 c 0
 724 650 724 645 721 640 c 128
 718 635 717 630 715 627 c 0
 712 620 707 606 699 584 c 128
 691 562 685 538 680 511 c 0
 679 506 678 502 676 500 c 128
 674 498 672 497 669 497 c 0
 664 497 662 500 659 504 c 128
 656 508 656 513 656 520 c 0
 657 551 652 574 643 590 c 128
 634 606 616 614 592 614 c 2
 496 614 l 2
 488 614 480 612 475 608 c 128
 470 604 465 596 460 584 c 128
 455 572 449 552 441 527 c 2
 320 102 l 2
 314 78 315 60 323 48 c 128
 331 36 346 27 367 22 c 0
 376 20 383 18 386 16 c 128
 389 14 392 11 391 6 c 0
 391 2 388 0 382 -2 c 128
 376 -4 369 -5 361 -5 c 0
 345 -5 333 -5 322 -4 c 128
 311 -3 303 -2 293 -1 c 128
 283 0 273 0 259 0 c 0
 244 0 230 0 219 -1 c 128
 208 -2 196 -3 184 -4 c 128
 172 -5 157 -5 141 -5 c 0
EndSplineSet
EndChar

StartChar: U
Encoding: 85 85 20
Width: 600
GlyphClass: 2
Flags: W
LayerCount: 2
Fore
SplineSet
258 -14 m 0
 231 -14 205 -8 182 2 c 128
 159 12 138 28 124 49 c 128
 110 70 102 98 99 131 c 128
 96 164 102 204 117 251 c 2
 206 547 l 2
 213 571 217 589 212 600 c 128
 207 611 201 617 193 620 c 0
 176 626 167 633 168 642 c 0
 168 646 170 648 178 650 c 128
 186 652 193 653 200 653 c 0
 212 653 225 653 237 652 c 128
 249 651 261 650 276 650 c 0
 289 650 301 650 312 651 c 128
 323 652 332 652 341 652 c 0
 355 652 361 648 360 641 c 0
 359 636 357 633 351 630 c 128
 345 627 337 624 327 621 c 0
 318 618 307 610 296 596 c 128
 285 582 275 562 267 535 c 2
 179 238 l 2
 165 189 160 148 167 117 c 128
 174 86 188 63 209 48 c 128
 230 33 254 26 282 26 c 0
 324 26 360 37 389 60 c 128
 418 83 443 113 462 150 c 128
 481 187 498 227 510 269 c 0
 518 294 526 320 534 346 c 128
 542 372 551 397 558 420 c 128
 565 443 571 461 575 474 c 0
 588 514 595 544 597 563 c 128
 599 582 596 596 589 604 c 128
 582 612 573 618 559 622 c 0
 554 623 549 625 544 628 c 128
 539 631 536 635 537 640 c 0
 537 644 540 646 546 648 c 128
 552 650 558 651 565 651 c 0
 577 651 577 651 593 651 c 128
 604 651 613 650 624 650 c 128
 635 650 645 650 652 650 c 0
 661 650 668 650 676 650 c 128
 684 650 691 651 698 652 c 128
 705 653 711 653 717 653 c 0
 724 653 730 652 733 650 c 128
 736 648 739 646 738 642 c 0
 738 634 726 627 704 622 c 0
 695 619 687 615 679 610 c 128
 671 605 665 595 657 580 c 128
 649 565 639 540 626 506 c 0
 613 469 598 430 584 387 c 128
 570 344 555 300 539 254 c 0
 521 203 499 157 475 116 c 128
 451 75 421 43 386 20 c 128
 351 -3 309 -14 258 -14 c 0
EndSplineSet
EndChar

StartChar: V
Encoding: 86 86 21
Width: 600
GlyphClass: 2
Flags: W
LayerCount: 2
Fore
SplineSet
168 -14 m 0
 160 -14 155 -8 150 2 c 128
 145 12 145 32 151 63 c 0
 173 175 190 270 204 349 c 128
 218 428 228 495 234 550 c 0
 236 571 235 588 232 600 c 128
 229 612 216 619 192 623 c 0
 183 624 178 626 175 630 c 128
 172 634 171 638 172 643 c 256
 173 648 174 651 180 653 c 128
 186 655 192 656 199 656 c 0
 211 656 224 655 240 653 c 128
 256 651 273 650 291 650 c 0
 302 650 313 650 323 650 c 128
 333 650 345 651 354 651 c 128
 368 651 367 651 377 651 c 0
 384 651 390 650 393 648 c 128
 396 646 397 644 397 640 c 0
 396 635 393 631 387 628 c 128
 381 625 374 622 366 621 c 0
 349 618 335 613 325 604 c 128
 315 595 308 578 303 553 c 2
 229 143 l 2
 227 132 227 124 227 119 c 128
 227 114 230 112 232 112 c 256
 234 112 236 115 240 121 c 128
 244 127 250 135 258 146 c 2
 517 492 l 2
 539 521 555 546 562 564 c 128
 569 582 569 596 566 605 c 128
 563 614 558 620 549 621 c 0
 539 622 534 624 532 628 c 128
 530 632 528 636 529 641 c 0
 529 645 531 648 537 650 c 128
 543 652 549 652 556 652 c 0
 564 652 575 652 591 651 c 128
 607 650 621 650 636 650 c 0
 654 650 668 651 679 653 c 128
 690 655 703 656 716 656 c 0
 723 656 728 654 731 652 c 128
 734 650 736 647 736 643 c 0
 735 638 732 634 726 630 c 128
 720 626 712 623 702 620 c 0
 686 615 669 607 651 596 c 128
 633 585 614 567 597 543 c 2
 254 95 l 2
 244 82 236 70 227 57 c 128
 218 44 209 33 202 22 c 128
 195 11 187 3 182 -4 c 128
 177 -11 172 -14 168 -14 c 0
EndSplineSet
EndChar

StartChar: W
Encoding: 87 87 22
Width: 600
GlyphClass: 2
Flags: W
LayerCount: 2
Fore
SplineSet
111 -15 m 0
 106 -15 102 -10 101 1 c 128
 100 12 101 26 103 42 c 128
 105 58 108 74 112 91 c 0
 120 128 130 166 139 206 c 128
 148 246 157 285 166 324 c 128
 175 363 183 401 191 436 c 128
 199 471 206 503 212 532 c 0
 216 555 220 573 220 584 c 128
 220 595 218 603 214 608 c 128
 210 613 202 618 192 621 c 0
 187 623 183 625 180 628 c 128
 177 631 177 636 178 642 c 0
 179 647 180 650 185 652 c 128
 190 654 194 655 200 655 c 0
 208 655 218 654 229 652 c 128
 240 650 252 650 265 650 c 0
 272 650 280 650 288 651 c 128
 296 652 304 652 311 652 c 128
 322 652 322 652 330 652 c 0
 334 652 337 651 339 649 c 128
 341 647 344 644 342 639 c 256
 340 634 338 630 333 626 c 128
 328 622 323 620 318 619 c 0
 309 618 302 615 296 610 c 128
 290 605 286 598 282 588 c 128
 278 578 274 563 269 544 c 0
 255 483 242 423 228 362 c 128
 214 301 200 239 186 178 c 0
 182 160 180 150 183 150 c 128
 186 150 193 159 203 176 c 2
 389 483 l 2
 401 502 410 519 416 532 c 128
 422 545 426 557 427 568 c 0
 429 584 428 596 424 604 c 128
 420 612 413 617 401 621 c 0
 396 623 392 626 389 629 c 128
 386 632 385 637 386 642 c 256
 387 647 389 650 394 652 c 128
 399 654 403 655 408 655 c 0
 414 655 420 655 429 654 c 128
 438 653 448 653 457 652 c 128
 466 651 473 650 480 650 c 256
 487 650 495 651 503 652 c 128
 511 653 518 653 525 654 c 128
 532 655 541 656 548 656 c 0
 556 656 560 651 559 642 c 0
 558 637 555 634 551 630 c 128
 547 626 542 623 537 622 c 0
 520 617 507 610 500 600 c 128
 493 590 487 575 482 552 c 2
 397 178 l 2
 393 160 393 151 396 151 c 128
 399 151 406 160 415 177 c 2
 592 483 l 2
 610 514 621 539 628 558 c 128
 635 577 637 591 635 601 c 128
 633 611 629 617 621 620 c 0
 616 622 613 625 611 628 c 128
 609 631 608 634 610 639 c 0
 611 644 613 648 617 650 c 128
 621 652 626 653 630 653 c 256
 634 653 640 653 648 652 c 128
 656 651 662 650 670 650 c 128
 678 650 685 650 692 650 c 0
 703 650 713 651 721 653 c 128
 729 655 737 656 746 656 c 0
 750 656 755 654 757 652 c 128
 759 650 760 647 759 642 c 256
 758 637 756 633 751 629 c 128
 746 625 741 622 735 620 c 0
 723 616 711 608 698 596 c 128
 685 584 672 565 659 542 c 2
 397 108 l 2
 386 90 375 71 364 52 c 128
 353 33 344 18 336 5 c 128
 328 -8 321 -14 318 -14 c 0
 312 -14 309 -10 308 -3 c 128
 307 4 306 14 308 26 c 128
 310 38 312 52 316 67 c 128
 320 82 322 97 326 112 c 0
 335 150 344 191 354 234 c 128
 364 277 375 320 385 362 c 128
 395 404 403 444 412 482 c 1
 189 109 l 2
 183 98 174 84 167 70 c 128
 160 56 151 43 144 30 c 128
 137 17 129 6 124 -2 c 128
 119 -10 114 -15 111 -15 c 0
EndSplineSet
EndChar

StartChar: X
Encoding: 88 88 23
Width: 600
GlyphClass: 2
Flags: W
LayerCount: 2
Fore
SplineSet
-36 -5 m 0
 -44 -5 -49 -4 -52 -2 c 128
 -55 0 -58 2 -58 6 c 0
 -57 11 -54 16 -48 20 c 128
 -42 24 -32 27 -21 28 c 0
 -5 30 8 34 23 40 c 128
 38 46 54 56 71 69 c 128
 88 82 108 101 129 124 c 2
 276 284 l 2
 285 294 292 304 297 313 c 128
 302 322 303 335 298 351 c 2
 251 529 l 2
 244 556 237 576 228 588 c 128
 219 600 209 608 198 612 c 128
 187 616 178 620 166 622 c 0
 157 623 150 626 144 630 c 128
 138 634 134 638 135 643 c 0
 135 647 139 650 148 652 c 128
 157 654 164 655 172 655 c 0
 187 655 205 654 226 652 c 128
 247 650 270 650 291 650 c 0
 309 650 325 650 338 651 c 128
 351 652 361 652 369 652 c 0
 377 652 383 652 386 650 c 128
 389 648 391 645 391 641 c 0
 390 636 388 632 382 628 c 128
 376 624 367 622 356 621 c 0
 332 619 318 612 314 600 c 128
 310 588 312 565 321 528 c 2
 352 397 l 2
 354 388 358 382 362 382 c 128
 366 382 372 386 378 394 c 2
 481 520 l 2
 502 545 515 565 521 578 c 128
 527 591 528 601 524 607 c 128
 520 613 513 617 502 620 c 0
 496 621 491 624 486 628 c 128
 481 632 478 635 479 640 c 0
 479 644 482 646 488 648 c 128
 494 650 501 651 509 651 c 0
 520 651 530 650 542 650 c 128
 554 650 568 650 581 650 c 0
 598 650 616 651 636 653 c 128
 656 655 672 656 684 656 c 0
 692 656 697 656 700 654 c 128
 703 652 706 649 706 645 c 0
 705 640 703 637 696 634 c 128
 689 631 681 628 670 625 c 0
 658 622 643 615 626 604 c 128
 609 593 591 580 572 564 c 128
 553 548 535 532 518 513 c 2
 391 370 l 2
 383 360 378 353 375 348 c 128
 372 343 372 337 373 331 c 2
 426 111 l 2
 431 92 437 78 443 68 c 128
 449 58 459 50 471 44 c 128
 483 38 502 33 525 26 c 0
 534 23 541 21 544 18 c 128
 547 15 549 11 548 6 c 0
 548 2 545 0 539 -2 c 128
 533 -4 527 -5 519 -5 c 0
 511 -5 499 -5 483 -4 c 128
 467 -3 451 -1 433 0 c 128
 415 1 399 1 385 1 c 0
 367 1 352 0 339 0 c 128
 326 0 314 0 303 0 c 0
 295 0 290 0 287 2 c 128
 284 4 280 7 280 11 c 0
 281 16 285 20 294 23 c 128
 303 26 310 29 317 31 c 0
 339 37 353 46 359 59 c 128
 365 72 365 89 360 111 c 2
 321 270 l 2
 319 277 316 281 313 282 c 128
 310 283 307 280 303 275 c 2
 162 100 l 2
 152 87 146 76 143 67 c 128
 140 58 141 50 145 44 c 128
 149 38 155 33 165 30 c 0
 174 27 181 24 184 22 c 128
 187 20 189 17 188 12 c 0
 188 8 185 4 179 2 c 128
 173 0 168 -1 160 -1 c 0
 152 -1 139 -1 124 0 c 128
 109 1 93 1 77 1 c 0
 57 1 38 0 17 -2 c 128
 -4 -4 -21 -5 -36 -5 c 0
EndSplineSet
EndChar

StartChar: Y
Encoding: 89 89 24
Width: 600
GlyphClass: 2
Flags: W
LayerCount: 2
Fore
SplineSet
137 -5 m 0
 129 -5 123 -4 119 -2 c 128
 115 0 113 2 113 6 c 0
 113 11 117 14 123 17 c 128
 129 20 138 22 149 24 c 0
 174 29 195 38 212 52 c 128
 229 66 241 84 248 108 c 2
 299 268 l 2
 304 281 306 293 305 304 c 128
 304 315 302 328 298 342 c 2
 242 548 l 2
 236 571 229 588 219 600 c 128
 209 612 196 619 181 620 c 0
 172 621 165 624 160 628 c 128
 155 632 153 637 153 642 c 0
 153 646 157 648 165 650 c 128
 173 652 180 653 188 653 c 0
 202 653 218 653 236 652 c 128
 254 651 274 650 296 650 c 0
 311 650 324 650 337 651 c 128
 350 652 361 652 371 652 c 0
 379 652 385 652 389 650 c 128
 393 648 394 645 394 641 c 0
 394 636 391 632 385 629 c 128
 379 626 369 623 357 621 c 0
 338 618 327 613 322 606 c 128
 317 599 318 583 324 560 c 2
 366 401 l 2
 369 388 373 378 376 372 c 128
 379 366 382 363 385 363 c 256
 388 363 393 366 399 372 c 128
 405 378 412 386 421 395 c 0
 443 420 463 443 479 464 c 128
 495 485 514 509 537 537 c 0
 559 564 570 584 569 596 c 128
 568 608 557 615 538 620 c 0
 531 621 526 624 521 628 c 128
 516 632 514 635 514 640 c 0
 514 644 517 646 523 648 c 128
 529 650 536 651 544 651 c 0
 558 651 571 650 583 650 c 128
 595 650 607 650 622 650 c 0
 641 650 660 651 678 652 c 128
 696 653 709 653 720 653 c 0
 728 653 735 652 739 650 c 128
 743 648 745 646 745 642 c 0
 745 637 742 634 735 632 c 128
 728 630 720 626 711 623 c 0
 698 619 684 612 668 602 c 128
 652 592 636 580 621 568 c 128
 606 556 594 545 584 534 c 0
 567 517 549 496 528 473 c 128
 507 450 487 427 467 405 c 128
 447 383 431 365 418 352 c 0
 403 336 393 320 386 306 c 128
 379 292 373 275 367 256 c 2
 322 108 l 2
 315 85 317 66 325 52 c 128
 333 38 348 29 370 24 c 0
 380 22 387 20 390 17 c 128
 393 14 395 11 395 6 c 0
 395 2 392 0 386 -2 c 128
 380 -4 373 -5 365 -5 c 0
 348 -5 335 -5 324 -4 c 128
 313 -3 303 -2 293 -1 c 128
 283 0 271 0 257 0 c 0
 242 0 228 0 216 -1 c 128
 204 -2 192 -3 180 -4 c 128
 168 -5 154 -5 137 -5 c 0
EndSplineSet
EndChar

StartChar: Z
Encoding: 90 90 25
Width: 600
GlyphClass: 2
Flags: W
LayerCount: 2
Fore
SplineSet
474 -5 m 0
 451 -5 426 -4 398 -4 c 128
 370 -4 340 -4 311 -3 c 128
 282 -2 254 -2 227 -2 c 128
 200 -2 178 -1 158 -1 c 0
 148 -1 131 -2 110 -2 c 128
 89 -2 68 -2 45 -2 c 128
 22 -2 2 -3 -15 -3 c 0
 -18 -3 -19 -1 -18 4 c 128
 -17 11 -17 11 -17 11 c 2
 -16 14 -10 21 -2 32 c 128
 6 43 17 56 29 69 c 128
 41 82 52 94 62 104 c 0
 107 151 147 194 183 234 c 128
 219 274 257 314 292 353 c 128
 327 392 363 432 400 472 c 128
 437 512 478 555 522 601 c 0
 525 604 527 606 528 610 c 128
 529 614 525 616 514 617 c 0
 504 618 490 618 471 618 c 128
 452 618 431 617 409 616 c 128
 387 615 364 613 343 612 c 128
 322 611 303 609 288 608 c 0
 275 607 256 598 233 584 c 128
 210 570 188 548 171 518 c 0
 167 511 164 505 159 500 c 128
 154 495 150 493 146 493 c 0
 142 493 139 495 137 499 c 128
 135 503 133 507 134 512 c 0
 134 514 135 517 137 522 c 128
 139 527 139 532 142 537 c 0
 148 550 155 566 164 584 c 128
 173 602 180 616 184 627 c 0
 188 636 191 642 195 646 c 128
 199 650 205 653 212 653 c 0
 220 653 232 652 246 650 c 128
 260 648 275 648 291 647 c 0
 314 646 340 646 369 646 c 128
 412 646 412 646 441 646 c 0
 466 646 488 646 509 646 c 128
 530 646 551 648 571 648 c 128
 591 648 612 648 633 649 c 0
 637 649 640 646 643 640 c 128
 646 634 647 629 645 627 c 2
 570 550 l 2
 525 503 485 461 448 423 c 128
 411 385 377 348 343 312 c 128
 309 276 274 239 239 200 c 128
 204 161 165 116 124 67 c 0
 110 50 111 40 129 38 c 0
 142 37 155 35 171 34 c 128
 187 33 203 32 223 32 c 0
 236 32 253 32 273 33 c 128
 293 34 315 35 335 36 c 128
 355 37 373 39 387 41 c 0
 420 46 450 57 478 74 c 128
 506 91 528 116 549 150 c 0
 551 154 555 158 558 162 c 128
 561 166 565 169 569 169 c 0
 574 169 577 167 577 163 c 128
 577 159 579 155 578 150 c 0
 578 145 574 136 568 124 c 128
 562 112 555 97 546 82 c 128
 537 67 529 53 521 40 c 128
 513 27 508 18 504 12 c 0
 502 8 498 4 494 0 c 128
 490 -4 483 -5 474 -5 c 0
EndSplineSet
EndChar

StartChar: a
Encoding: 97 97 26
Width: 600
GlyphClass: 2
Flags: W
LayerCount: 2
Fore
SplineSet
101 -14 m 0
 93 -14 85 -12 77 -8 c 128
 69 -4 63 2 58 9 c 128
 53 16 50 23 50 30 c 0
 50 54 58 82 74 114 c 128
 90 146 112 179 141 214 c 128
 170 249 203 282 240 315 c 0
 276 346 305 370 328 386 c 128
 351 402 367 409 378 409 c 256
 389 409 398 404 406 395 c 0
 415 383 420 377 419 378 c 128
 418 379 417 380 418 380 c 0
 419 380 421 381 422 382 c 128
 423 383 423 384 424 386 c 0
 433 402 439 412 441 415 c 128
 443 418 443 419 441 416 c 1
 445 423 449 426 453 426 c 0
 459 426 465 425 471 423 c 128
 477 421 482 418 486 415 c 128
 490 412 491 408 491 405 c 256
 491 402 489 393 484 380 c 2
 372 83 l 2
 363 60 368 49 385 49 c 0
 397 49 412 54 429 66 c 128
 446 78 460 92 473 109 c 0
 474 110 476 111 478 112 c 128
 480 113 481 114 482 114 c 0
 485 114 487 114 488 112 c 128
 489 110 489 107 489 103 c 0
 489 98 484 90 475 76 c 128
 466 62 456 50 446 40 c 0
 427 23 409 9 390 0 c 128
 371 -9 353 -14 337 -14 c 0
 330 -14 324 -12 317 -8 c 128
 310 -4 305 1 301 7 c 128
 297 13 294 19 294 25 c 0
 294 32 296 40 300 48 c 1
 297 42 298 42 300 48 c 128
 302 54 306 63 312 76 c 128
 318 89 323 102 330 116 c 128
 337 130 342 142 347 153 c 0
 350 160 352 166 352 170 c 128
 352 174 349 173 345 168 c 0
 304 123 270 87 241 60 c 128
 212 33 186 14 164 3 c 128
 142 -8 121 -14 101 -14 c 0
157 49 m 0
 172 49 194 62 223 86 c 128
 252 110 284 144 321 187 c 0
 346 216 366 243 381 268 c 128
 396 293 403 311 403 323 c 0
 403 328 399 335 390 342 c 0
 386 345 382 348 377 350 c 128
 372 352 368 353 365 353 c 0
 353 353 337 347 316 335 c 128
 295 323 275 309 258 292 c 0
 236 271 215 247 195 220 c 128
 175 193 159 168 147 143 c 128
 135 118 128 98 128 83 c 0
 128 73 131 64 136 58 c 128
 141 52 148 49 157 49 c 0
EndSplineSet
EndChar

StartChar: b
Encoding: 98 98 27
Width: 600
GlyphClass: 2
Flags: W
LayerCount: 2
Fore
SplineSet
213 -8 m 0
 187 -8 166 -1 151 14 c 128
 136 29 128 49 128 74 c 0
 128 91 130 109 134 130 c 128
 138 151 144 173 151 195 c 2
 277 576 l 2
 280 585 282 595 284 604 c 128
 286 613 287 621 287 630 c 0
 287 633 285 636 281 639 c 128
 277 642 271 644 262 647 c 0
 241 652 231 657 231 662 c 0
 231 665 232 668 234 670 c 128
 236 672 241 674 247 676 c 0
 254 679 263 682 275 686 c 128
 287 690 299 693 311 696 c 128
 323 699 333 702 343 704 c 128
 353 706 359 707 362 707 c 0
 373 707 378 704 378 697 c 0
 378 691 377 686 376 682 c 128
 375 678 374 671 371 664 c 0
 366 651 358 630 349 604 c 128
 340 578 329 548 318 516 c 128
 307 484 296 451 285 418 c 128
 274 385 263 355 253 326 c 128
 243 297 236 274 231 257 c 0
 228 250 228 246 231 245 c 128
 234 244 238 246 243 252 c 0
 282 304 320 344 355 372 c 128
 390 400 420 414 445 414 c 0
 466 414 484 407 498 393 c 128
 512 379 519 361 519 340 c 0
 519 309 512 278 500 246 c 128
 488 214 471 182 450 152 c 128
 429 122 406 94 379 70 c 128
 352 46 324 27 296 13 c 128
 268 -1 240 -8 213 -8 c 0
239 24 m 0
 248 24 259 29 273 38 c 128
 287 47 302 60 318 76 c 128
 334 92 351 111 366 132 c 0
 382 153 397 176 410 202 c 128
 423 228 433 252 441 276 c 128
 449 300 453 320 453 336 c 0
 453 347 450 356 444 364 c 128
 438 372 432 376 424 376 c 0
 403 376 380 364 353 341 c 128
 326 318 295 282 260 234 c 0
 238 203 220 175 207 149 c 128
 194 123 187 104 187 91 c 0
 187 73 192 57 202 44 c 128
 212 31 225 24 239 24 c 0
EndSplineSet
EndChar

StartChar: c
Encoding: 99 99 28
Width: 600
GlyphClass: 2
Flags: W
LayerCount: 2
Fore
SplineSet
244 -15 m 0
 230 -15 215 -11 199 -2 c 128
 183 7 169 20 157 36 c 128
 145 52 138 69 137 90 c 0
 137 114 139 141 146 170 c 128
 153 199 164 227 179 256 c 128
 194 285 214 311 238 335 c 128
 262 359 290 378 321 392 c 128
 352 406 388 414 429 414 c 0
 451 414 475 410 484 404 c 128
 493 398 498 391 498 382 c 0
 498 371 495 361 489 350 c 128
 483 339 475 333 468 333 c 0
 463 333 459 335 455 340 c 128
 451 345 447 350 444 357 c 0
 440 364 435 372 429 378 c 128
 423 384 396 387 383 387 c 0
 364 387 338 377 317 358 c 128
 296 339 277 314 260 284 c 128
 243 254 229 222 220 189 c 128
 211 156 208 125 211 98 c 0
 213 76 221 61 234 53 c 128
 247 45 265 41 283 41 c 0
 308 41 342 46 355 54 c 128
 368 62 380 72 393 84 c 0
 398 89 402 92 404 94 c 128
 406 96 409 97 413 97 c 0
 418 97 421 93 421 84 c 0
 421 79 417 71 409 60 c 128
 401 49 389 38 375 26 c 128
 361 14 343 5 325 -3 c 128
 307 -11 268 -15 244 -15 c 0
EndSplineSet
EndChar

StartChar: d
Encoding: 100 100 29
Width: 600
GlyphClass: 2
Flags: W
LayerCount: 2
Fore
SplineSet
112 -14 m 0
 93 -14 77 -7 65 6 c 128
 53 19 47 37 47 58 c 0
 47 83 53 112 64 143 c 128
 75 174 90 206 109 238 c 128
 128 270 149 300 173 327 c 0
 199 356 225 380 252 396 c 128
 279 412 303 420 324 420 c 0
 333 420 340 418 345 416 c 128
 350 414 362 407 381 395 c 0
 395 386 403 381 405 380 c 128
 407 379 406 379 405 379 c 1
 407 379 409 381 410 386 c 2
 477 611 l 2
 478 615 480 618 480 620 c 128
 480 622 481 625 481 626 c 128
 481 627 481 627 481 628 c 128
 481 630 481 630 481 631 c 0
 481 638 479 644 475 648 c 128
 471 652 464 657 453 661 c 0
 438 666 430 669 427 670 c 128
 424 671 423 673 423 675 c 0
 423 680 426 683 431 686 c 128
 436 689 445 691 457 693 c 0
 467 694 478 696 488 698 c 128
 498 700 507 701 516 702 c 128
 525 703 532 703 538 704 c 128
 544 705 548 705 550 705 c 0
 558 705 562 700 562 691 c 0
 562 688 562 684 561 680 c 128
 560 676 559 673 558 668 c 2
 396 107 l 2
 395 102 394 97 393 92 c 128
 392 87 391 81 391 76 c 0
 391 61 396 54 405 54 c 0
 414 54 424 58 436 64 c 128
 448 70 460 78 472 89 c 128
 484 100 494 111 503 123 c 0
 504 125 506 126 507 127 c 128
 508 128 510 128 511 128 c 0
 516 128 518 125 517 120 c 0
 517 113 513 103 506 92 c 128
 499 81 489 68 477 56 c 128
 465 44 453 33 439 22 c 128
 425 11 412 3 399 -4 c 128
 386 -11 376 -14 367 -14 c 0
 360 -14 353 -12 346 -8 c 128
 339 -4 334 3 330 10 c 128
 326 17 323 24 323 31 c 0
 323 34 324 43 327 57 c 0
 328 64 330 73 333 84 c 128
 336 95 339 106 341 116 c 128
 343 126 345 134 346 139 c 128
 347 144 346 143 345 137 c 1
 346 142 347 146 345 148 c 128
 343 150 341 150 339 147 c 0
 293 89 253 48 218 23 c 128
 183 -2 148 -14 112 -14 c 0
149 33 m 0
 167 33 187 39 208 52 c 128
 229 65 251 82 272 104 c 128
 293 126 312 150 330 176 c 128
 348 202 361 228 372 254 c 128
 383 280 388 304 388 326 c 0
 388 345 384 361 375 372 c 128
 366 383 354 388 338 388 c 0
 323 388 305 381 286 366 c 128
 267 351 247 332 227 308 c 128
 207 284 189 258 172 230 c 128
 155 202 141 173 131 145 c 128
 121 117 115 92 115 71 c 0
 115 56 118 46 123 41 c 128
 128 36 136 33 149 33 c 0
EndSplineSet
EndChar

StartChar: e
Encoding: 101 101 30
Width: 600
GlyphClass: 2
Flags: W
LayerCount: 2
Fore
SplineSet
238 -15 m 0
 221 -15 203 -10 186 1 c 128
 169 12 154 26 142 42 c 128
 130 58 124 74 123 89 c 0
 121 122 126 158 140 196 c 128
 154 234 175 269 202 302 c 128
 229 335 259 361 296 382 c 128
 333 403 372 414 414 414 c 0
 441 414 463 410 479 400 c 128
 495 390 504 376 505 359 c 0
 506 338 499 320 484 305 c 128
 469 290 450 277 425 266 c 128
 400 255 370 245 338 238 c 128
 306 231 275 224 242 219 c 0
 237 218 232 217 230 216 c 128
 228 215 213 213 212 209 c 0
 207 194 203 178 198 161 c 128
 193 144 192 127 194 112 c 0
 196 89 204 71 217 58 c 128
 230 45 253 39 273 39 c 0
 301 39 325 45 344 57 c 128
 363 69 379 81 391 93 c 0
 399 100 405 104 411 104 c 0
 419 104 424 101 424 94 c 0
 424 93 424 92 424 90 c 128
 424 88 423 87 422 86 c 0
 408 64 391 45 372 30 c 128
 353 15 332 4 310 -4 c 128
 288 -12 264 -15 238 -15 c 0
249 242 m 0
 257 242 274 244 296 248 c 128
 318 252 342 260 365 270 c 128
 388 280 408 292 424 306 c 128
 440 320 448 337 446 357 c 0
 445 366 442 374 435 380 c 128
 428 386 413 389 402 389 c 0
 385 389 365 384 345 372 c 128
 325 360 306 346 288 330 c 128
 270 314 255 297 243 282 c 128
 231 267 227 255 228 248 c 0
 228 244 243 242 249 242 c 0
EndSplineSet
EndChar

StartChar: f
Encoding: 102 102 31
Width: 600
GlyphClass: 1
Flags: W
LayerCount: 2
Fore
SplineSet
30 -290 m 0
 5 -290 -15 -286 -30 -278 c 128
 -45 -270 -53 -257 -53 -240 c 0
 -53 -230 -48 -221 -38 -212 c 128
 -28 -203 -21 -198 -14 -198 c 0
 -9 -198 -4 -200 1 -206 c 128
 6 -212 11 -219 18 -226 c 0
 24 -233 32 -238 40 -243 c 128
 48 -248 58 -250 70 -250 c 0
 83 -250 94 -246 103 -239 c 128
 112 -232 122 -218 131 -199 c 128
 140 -180 149 -152 160 -115 c 2
 294 339 l 2
 298 351 293 357 280 357 c 2
 218 356 l 2
 213 356 210 358 208 360 c 128
 206 362 205 365 205 368 c 0
 205 373 207 378 211 384 c 128
 215 390 219 393 224 394 c 2
 294 398 l 2
 303 399 310 406 313 418 c 2
 321 450 l 2
 337 513 359 564 386 601 c 128
 413 638 441 666 471 682 c 128
 501 698 527 706 550 706 c 0
 579 706 602 699 619 686 c 128
 636 673 644 657 644 636 c 0
 644 619 640 607 631 598 c 128
 622 589 612 585 603 585 c 0
 598 585 594 588 590 596 c 128
 586 604 581 613 576 624 c 0
 570 637 562 647 553 654 c 128
 544 661 532 665 517 665 c 0
 498 665 483 661 470 652 c 128
 457 643 445 627 434 604 c 128
 423 581 411 547 398 503 c 0
 394 490 391 478 388 466 c 128
 385 454 381 442 377 429 c 0
 376 424 375 421 374 418 c 128
 373 415 372 412 372 409 c 256
 372 406 373 403 375 402 c 128
 377 401 379 400 382 400 c 0
 402 400 422 401 440 402 c 128
 458 403 475 403 492 403 c 0
 497 403 499 399 499 392 c 0
 499 389 498 386 496 381 c 128
 494 376 490 372 486 368 c 128
 482 364 476 363 470 363 c 2
 379 362 l 2
 372 362 367 360 363 358 c 128
 359 356 355 352 354 346 c 0
 331 271 308 195 286 118 c 128
 264 41 243 -35 224 -110 c 0
 217 -137 207 -161 191 -183 c 128
 175 -205 158 -224 138 -240 c 128
 118 -256 99 -268 80 -277 c 128
 61 -286 44 -290 30 -290 c 0
EndSplineSet
EndChar

StartChar: g
Encoding: 103 103 32
Width: 600
GlyphClass: 2
Flags: W
LayerCount: 2
Fore
SplineSet
209 -290 m 0
 170 -290 135 -285 103 -276 c 128
 71 -267 47 -254 28 -238 c 128
 9 -222 0 -203 0 -180 c 0
 0 -165 10 -150 31 -136 c 128
 52 -122 77 -110 108 -98 c 128
 139 -86 169 -75 199 -65 c 0
 204 -63 205 -60 201 -56 c 0
 186 -43 175 -33 166 -24 c 128
 157 -15 153 -5 153 6 c 0
 153 15 157 26 167 36 c 128
 177 46 189 56 203 67 c 0
 206 70 208 73 209 75 c 128
 210 77 211 78 211 79 c 0
 211 81 208 83 203 85 c 0
 190 92 179 99 171 108 c 128
 163 117 158 126 155 138 c 128
 152 150 151 163 151 178 c 0
 151 201 156 225 166 252 c 128
 176 279 190 305 207 330 c 128
 224 355 245 374 268 390 c 128
 291 406 316 414 343 414 c 0
 357 414 367 413 373 410 c 128
 379 407 385 404 389 402 c 0
 394 399 398 396 403 394 c 128
 408 392 412 391 417 391 c 0
 424 391 434 392 446 394 c 128
 458 396 470 399 483 401 c 128
 496 403 506 404 515 404 c 0
 519 404 524 402 529 398 c 128
 534 394 537 389 537 381 c 0
 537 368 535 359 531 354 c 128
 527 349 523 346 519 346 c 0
 513 346 505 347 494 349 c 128
 483 351 473 353 463 355 c 128
 453 357 446 358 441 358 c 0
 438 358 434 357 431 355 c 128
 428 353 428 349 429 344 c 256
 430 339 431 333 432 327 c 128
 433 321 433 315 433 308 c 0
 433 282 427 255 417 228 c 128
 407 201 393 177 376 154 c 128
 359 131 339 112 317 98 c 128
 295 84 274 77 252 77 c 0
 247 77 243 76 239 74 c 128
 235 72 233 68 230 65 c 0
 223 56 219 46 219 36 c 0
 219 24 222 14 228 6 c 128
 234 -2 246 -12 263 -23 c 0
 274 -30 287 -40 303 -50 c 128
 319 -60 335 -70 350 -80 c 128
 365 -90 378 -98 387 -105 c 0
 402 -116 411 -125 417 -134 c 128
 423 -143 426 -153 426 -163 c 0
 426 -180 419 -197 405 -212 c 128
 391 -227 374 -240 352 -252 c 128
 330 -264 306 -273 281 -280 c 128
 256 -287 232 -290 209 -290 c 0
239 -260 m 0
 266 -260 287 -257 304 -250 c 128
 321 -243 333 -234 341 -224 c 128
 349 -214 353 -203 353 -191 c 0
 353 -181 350 -171 344 -160 c 128
 338 -149 327 -139 312 -130 c 0
 307 -126 297 -120 284 -111 c 128
 271 -102 261 -96 254 -93 c 0
 242 -86 233 -83 226 -83 c 0
 222 -83 217 -83 213 -84 c 128
 209 -85 205 -86 201 -87 c 0
 161 -100 129 -113 105 -128 c 128
 81 -143 69 -161 69 -182 c 0
 69 -197 77 -210 94 -222 c 128
 111 -234 133 -243 159 -250 c 128
 185 -257 212 -260 239 -260 c 0
249 101 m 0
 261 101 273 107 285 119 c 128
 297 131 310 147 321 166 c 128
 332 185 342 206 351 228 c 128
 360 250 368 270 373 290 c 128
 378 310 381 326 381 339 c 0
 381 349 378 359 371 370 c 128
 364 381 356 386 346 386 c 0
 333 386 321 381 308 370 c 128
 295 359 283 346 271 328 c 128
 259 310 249 291 240 270 c 128
 231 249 223 227 217 206 c 128
 211 185 209 166 208 149 c 0
 208 136 212 126 220 116 c 128
 228 106 238 101 249 101 c 0
EndSplineSet
EndChar

StartChar: h
Encoding: 104 104 33
Width: 600
GlyphClass: 2
Flags: W
LayerCount: 2
Fore
SplineSet
112 -18 m 0
 109 -18 106 -17 103 -14 c 128
 100 -11 98 -8 97 -4 c 128
 96 0 95 4 95 8 c 0
 95 18 97 28 99 38 c 128
 101 48 104 60 108 75 c 2
 249 558 l 2
 252 569 256 582 259 596 c 128
 262 610 264 619 264 626 c 256
 264 633 260 638 252 641 c 128
 244 644 235 647 227 650 c 0
 222 651 219 652 215 654 c 128
 211 656 209 658 209 661 c 256
 209 664 210 666 212 668 c 128
 214 670 219 673 226 676 c 0
 231 678 239 681 249 684 c 128
 259 687 269 690 280 694 c 128
 291 698 301 702 310 704 c 128
 319 706 325 707 328 707 c 256
 331 707 335 707 339 706 c 128
 343 705 345 702 345 697 c 256
 345 692 345 687 344 683 c 128
 343 679 341 675 340 670 c 2
 204 200 l 2
 203 195 203 193 205 193 c 128
 208 193 211 194 213 197 c 0
 240 244 268 284 296 316 c 128
 324 348 352 372 378 389 c 128
 404 406 427 414 447 414 c 0
 461 414 473 410 483 400 c 128
 493 390 500 376 503 360 c 128
 506 344 503 325 494 304 c 2
 402 86 l 2
 392 62 394 50 407 50 c 0
 415 50 424 53 436 59 c 128
 448 65 460 72 472 80 c 128
 484 88 494 97 503 104 c 128
 512 111 518 115 521 118 c 0
 522 119 522 119 522 119 c 128
 522 119 523 119 524 119 c 0
 526 119 527 118 529 116 c 128
 531 114 532 113 532 110 c 0
 532 105 531 100 528 96 c 0
 511 75 492 57 472 40 c 128
 452 23 432 10 411 0 c 128
 390 -10 369 -14 348 -14 c 0
 342 -14 336 -12 330 -8 c 128
 324 -4 319 2 316 9 c 128
 313 16 314 23 317 30 c 0
 336 75 355 120 375 164 c 128
 395 208 414 252 431 297 c 0
 442 324 445 343 442 354 c 128
 439 365 432 371 423 372 c 0
 416 373 407 370 397 364 c 128
 387 358 376 350 363 338 c 128
 350 326 337 312 322 294 c 0
 314 285 303 270 290 250 c 128
 277 230 262 208 245 182 c 128
 228 156 211 129 193 100 c 128
 175 71 159 43 143 15 c 0
 137 4 132 -3 127 -8 c 128
 122 -13 117 -18 112 -18 c 0
EndSplineSet
Substitution2: "'ss01' Original glyphs-1" h.ss01
EndChar

StartChar: k
Encoding: 107 107 36
Width: 600
GlyphClass: 2
Flags: W
LayerCount: 2
Fore
SplineSet
364 -21 m 0
 348 -21 335 -16 326 -8 c 128
 317 0 308 12 301 28 c 2
 263 134 l 2
 259 145 253 155 245 164 c 128
 237 173 228 178 217 178 c 0
 212 178 207 172 202 162 c 128
 197 152 193 143 190 136 c 0
 188 131 184 123 180 112 c 128
 176 101 171 89 166 76 c 128
 161 63 156 51 152 40 c 128
 148 29 145 21 143 16 c 0
 139 5 136 -3 133 -8 c 128
 130 -13 125 -15 117 -15 c 0
 112 -15 106 -12 100 -8 c 128
 94 -4 91 1 91 7 c 0
 91 10 92 16 93 23 c 128
 94 30 96 39 99 49 c 2
 266 567 l 2
 270 580 273 590 274 599 c 128
 275 608 276 616 276 624 c 256
 276 632 269 639 254 644 c 0
 247 647 241 650 236 652 c 128
 231 654 228 656 228 658 c 0
 228 661 228 663 229 665 c 128
 230 667 232 668 234 669 c 0
 241 673 250 677 261 681 c 128
 272 685 283 689 295 693 c 128
 307 697 318 700 327 702 c 128
 336 704 343 706 347 706 c 0
 350 706 353 706 357 705 c 128
 361 704 363 701 363 696 c 256
 363 691 362 687 362 684 c 128
 362 681 361 678 360 673 c 2
 225 262 l 2
 222 255 222 251 225 252 c 128
 228 253 231 255 234 258 c 0
 257 290 280 318 306 341 c 128
 332 364 358 383 384 396 c 128
 410 409 434 415 456 415 c 0
 469 415 482 411 495 404 c 128
 508 397 515 385 515 370 c 0
 515 353 508 334 493 315 c 128
 478 296 460 277 438 260 c 128
 416 243 394 227 371 214 c 128
 348 201 328 193 311 188 c 0
 305 187 303 183 306 177 c 2
 352 68 l 2
 355 61 359 54 365 48 c 128
 371 42 378 39 385 39 c 0
 398 39 410 45 423 57 c 128
 436 69 446 82 455 97 c 0
 458 103 461 107 463 108 c 128
 465 109 468 110 471 110 c 0
 472 110 474 109 475 106 c 128
 476 103 477 101 477 98 c 0
 477 87 473 75 464 62 c 128
 455 49 445 36 432 23 c 128
 419 10 406 0 394 -8 c 128
 382 -16 372 -21 364 -21 c 0
259 203 m 0
 280 203 300 208 322 218 c 128
 344 228 364 240 383 255 c 128
 402 270 417 284 428 300 c 128
 439 316 445 329 445 340 c 0
 445 350 442 358 436 364 c 128
 430 370 421 372 409 372 c 0
 395 372 378 366 360 353 c 128
 342 340 324 324 307 306 c 128
 290 288 275 271 264 255 c 128
 253 239 247 227 247 220 c 0
 247 216 248 212 250 208 c 128
 252 204 255 203 259 203 c 0
EndSplineSet
EndChar

StartChar: l
Encoding: 108 108 37
Width: 600
GlyphClass: 2
Flags: W
LayerCount: 2
Fore
SplineSet
214 -14 m 0
 205 -14 196 -9 185 0 c 128
 174 9 169 19 169 30 c 0
 169 34 170 38 171 42 c 2
 361 583 l 2
 364 592 366 601 368 610 c 128
 370 619 371 627 371 636 c 0
 371 642 367 648 361 653 c 128
 355 658 347 662 338 664 c 0
 331 665 326 668 322 670 c 128
 318 672 316 674 316 677 c 0
 316 679 316 681 316 682 c 128
 316 683 317 685 318 686 c 128
 319 687 321 688 322 688 c 0
 335 691 350 695 368 698 c 128
 386 701 402 704 418 706 c 128
 434 708 445 709 450 709 c 0
 453 709 456 708 458 706 c 128
 460 704 462 699 462 694 c 0
 462 690 461 685 460 680 c 128
 459 675 457 671 456 666 c 2
 254 90 l 2
 252 85 251 79 250 74 c 128
 249 69 249 65 249 61 c 0
 249 50 252 45 259 45 c 0
 268 45 279 50 293 60 c 128
 307 70 321 83 334 98 c 128
 347 113 358 126 366 137 c 0
 370 142 375 147 380 152 c 128
 385 157 389 160 392 160 c 256
 395 160 396 158 396 156 c 128
 396 154 397 151 397 147 c 0
 397 134 392 120 383 105 c 128
 374 90 363 76 348 62 c 128
 333 48 318 34 301 23 c 128
 284 12 268 3 253 -4 c 128
 238 -11 225 -14 214 -14 c 0
EndSplineSet
EndChar

StartChar: m
Encoding: 109 109 38
Width: 600
GlyphClass: 2
Flags: W
LayerCount: 2
Fore
SplineSet
61 -16 m 0
 58 -16 55 -14 51 -10 c 128
 47 -6 45 -2 43 4 c 128
 41 10 40 16 40 23 c 0
 40 26 43 33 46 43 c 128
 49 53 53 65 59 80 c 2
 151 325 l 2
 153 333 153 340 152 345 c 128
 151 350 146 353 141 353 c 0
 134 353 126 350 117 346 c 128
 108 342 96 330 82 310 c 0
 80 307 78 306 75 306 c 128
 72 306 70 309 70 314 c 0
 71 319 73 325 75 332 c 128
 77 339 80 345 83 352 c 128
 86 359 90 365 93 369 c 0
 103 383 116 395 129 405 c 128
 142 415 159 420 178 421 c 0
 186 421 195 419 201 414 c 128
 207 409 212 400 214 390 c 128
 216 380 214 368 209 354 c 2
 154 211 l 2
 152 206 153 204 155 203 c 128
 157 202 159 204 161 208 c 0
 184 251 207 288 229 320 c 128
 251 352 271 376 291 394 c 128
 311 412 329 421 347 421 c 0
 360 421 371 416 378 406 c 128
 385 396 388 381 389 364 c 128
 390 347 385 327 376 305 c 2
 349 226 l 2
 347 221 346 219 349 218 c 128
 352 217 355 219 357 222 c 0
 379 263 401 298 422 328 c 128
 443 358 463 381 483 397 c 128
 503 413 522 421 539 421 c 0
 552 421 561 416 568 405 c 128
 575 394 579 380 578 362 c 128
 577 344 572 323 563 299 c 2
 487 98 l 2
 478 75 480 64 489 64 c 0
 494 64 500 67 508 73 c 128
 516 79 523 86 532 95 c 128
 541 104 549 112 555 120 c 128
 561 128 566 132 568 135 c 0
 570 137 571 139 572 140 c 128
 573 141 575 141 576 141 c 0
 577 141 579 140 580 138 c 128
 581 136 582 134 582 131 c 0
 581 125 580 119 577 113 c 128
 574 107 570 101 565 94 c 0
 544 66 522 41 497 19 c 128
 472 -3 447 -14 422 -14 c 0
 418 -14 414 -12 409 -8 c 128
 404 -4 401 3 398 10 c 128
 395 17 396 25 399 32 c 2
 514 332 l 2
 519 345 519 354 516 360 c 128
 513 366 510 370 505 371 c 0
 497 372 487 366 474 354 c 128
 461 342 446 323 430 297 c 0
 420 282 408 262 393 236 c 128
 378 210 362 182 346 152 c 128
 330 122 315 95 302 68 c 0
 293 49 285 34 276 22 c 128
 267 10 259 0 252 -6 c 128
 245 -12 239 -16 235 -16 c 0
 232 -16 229 -14 226 -10 c 128
 223 -6 219 -3 218 2 c 128
 217 7 214 12 215 17 c 0
 215 21 218 29 221 40 c 128
 224 51 230 65 235 81 c 2
 328 335 l 2
 333 349 335 358 331 364 c 128
 327 370 323 373 319 374 c 0
 311 375 301 369 287 356 c 128
 273 343 259 323 241 296 c 0
 234 285 225 270 214 252 c 128
 203 234 194 215 182 194 c 128
 170 173 160 152 149 130 c 128
 138 108 127 88 118 69 c 0
 104 41 93 20 85 6 c 128
 77 -8 68 -16 61 -16 c 0
EndSplineSet
EndChar

StartChar: n
Encoding: 110 110 39
Width: 600
GlyphClass: 2
Flags: W
LayerCount: 2
Fore
SplineSet
102 -16 m 0
 98 -16 94 -15 90 -12 c 128
 86 -9 84 -4 81 0 c 128
 78 4 76 9 75 14 c 128
 74 19 75 24 77 28 c 2
 193 312 l 2
 205 341 206 356 195 356 c 0
 188 356 181 356 174 354 c 128
 167 352 159 348 150 341 c 128
 141 334 132 324 121 310 c 0
 118 307 115 306 112 306 c 128
 109 306 107 309 106 314 c 0
 106 318 107 324 109 330 c 128
 111 336 115 342 118 348 c 128
 121 354 124 360 127 364 c 0
 137 379 150 391 167 400 c 128
 184 409 204 413 227 414 c 0
 234 414 241 412 247 408 c 128
 253 404 257 400 260 393 c 128
 263 386 263 379 260 371 c 2
 194 201 l 2
 192 196 192 194 195 193 c 128
 198 192 201 194 203 197 c 0
 230 244 258 284 286 316 c 128
 314 348 342 372 368 389 c 128
 394 406 417 414 437 414 c 0
 451 414 463 410 473 400 c 128
 483 390 490 376 493 360 c 128
 496 344 493 325 484 304 c 2
 392 86 l 2
 382 62 384 50 397 50 c 0
 405 50 414 53 426 59 c 128
 438 65 450 72 462 80 c 128
 474 88 484 97 493 104 c 128
 502 111 508 115 511 118 c 0
 512 119 512 119 512 119 c 128
 512 119 513 119 514 119 c 0
 516 119 517 118 519 116 c 128
 521 114 522 113 522 110 c 0
 522 105 521 100 518 96 c 0
 501 75 482 57 462 40 c 128
 442 23 422 10 401 0 c 128
 380 -10 359 -14 338 -14 c 0
 332 -14 326 -12 320 -8 c 128
 314 -4 309 2 306 9 c 128
 303 16 304 23 307 30 c 0
 326 75 345 120 365 164 c 128
 385 208 404 252 421 297 c 0
 432 324 435 343 432 354 c 128
 429 365 422 371 413 372 c 0
 406 373 397 370 387 364 c 128
 377 358 366 350 353 338 c 128
 340 326 327 312 312 294 c 0
 304 285 293 270 280 250 c 128
 267 230 252 208 235 182 c 128
 218 156 201 129 183 100 c 128
 165 71 149 43 133 15 c 0
 127 4 122 -3 117 -8 c 128
 112 -13 107 -16 102 -16 c 0
EndSplineSet
EndChar

StartChar: o
Encoding: 111 111 40
Width: 600
GlyphClass: 2
Flags: W
LayerCount: 2
Fore
SplineSet
217 -14 m 0
 198 -14 181 -9 164 2 c 128
 147 13 132 27 122 44 c 128
 112 61 106 80 105 99 c 0
 103 130 109 164 121 200 c 128
 133 236 153 272 177 304 c 128
 201 336 228 362 261 383 c 128
 294 404 330 414 368 414 c 256
 406 414 437 403 459 380 c 128
 481 357 494 329 496 296 c 0
 497 266 492 234 480 198 c 128
 468 162 449 128 425 96 c 128
 401 64 371 38 336 17 c 128
 301 -4 262 -14 217 -14 c 0
234 16 m 0
 253 16 275 23 294 37 c 128
 313 51 332 69 349 92 c 128
 366 115 381 140 394 167 c 128
 407 194 416 222 423 249 c 128
 430 276 432 301 430 324 c 0
 428 341 424 356 415 367 c 128
 406 378 387 384 367 384 c 0
 350 384 329 378 309 365 c 128
 289 352 271 335 253 314 c 128
 235 293 220 268 207 242 c 128
 194 216 183 188 177 160 c 128
 171 132 169 105 172 78 c 0
 174 56 180 40 191 30 c 128
 202 20 219 16 234 16 c 0
EndSplineSet
EndChar

StartChar: p
Encoding: 112 112 41
Width: 600
GlyphClass: 2
Flags: W
LayerCount: 2
Fore
SplineSet
-24 -286 m 0
 -27 -286 -31 -285 -35 -284 c 128
 -39 -283 -40 -280 -40 -277 c 0
 -40 -272 -37 -268 -30 -264 c 128
 -23 -260 -16 -258 -10 -257 c 0
 4 -254 15 -251 23 -246 c 128
 31 -241 37 -233 42 -220 c 2
 235 319 l 2
 238 328 240 335 241 340 c 128
 242 345 241 348 238 350 c 128
 235 352 231 351 224 350 c 0
 208 347 194 345 182 342 c 128
 170 339 158 334 144 327 c 0
 139 324 133 324 129 326 c 128
 125 328 123 330 123 334 c 0
 123 339 124 344 127 347 c 128
 130 350 134 353 138 355 c 0
 149 360 164 368 184 377 c 128
 204 386 227 394 254 401 c 0
 259 402 262 404 265 406 c 128
 268 408 271 412 272 417 c 0
 281 448 290 471 298 485 c 128
 306 499 317 506 332 506 c 0
 337 506 342 504 346 501 c 128
 350 498 351 493 350 487 c 2
 333 429 l 2
 331 422 331 417 332 414 c 128
 333 411 335 410 338 411 c 0
 347 412 354 413 361 414 c 128
 368 415 375 415 382 415 c 0
 415 415 441 409 460 398 c 128
 479 387 492 373 500 354 c 128
 508 335 512 313 512 290 c 0
 512 258 505 225 490 190 c 128
 475 155 455 121 430 90 c 128
 405 59 377 34 346 15 c 128
 315 -4 283 -14 250 -14 c 0
 244 -14 237 -12 230 -8 c 128
 223 -4 216 0 209 4 c 0
 203 8 198 10 194 8 c 128
 190 6 187 -1 182 -14 c 2
 116 -209 l 2
 111 -223 112 -233 120 -240 c 128
 128 -247 140 -252 157 -253 c 0
 164 -254 170 -255 177 -257 c 128
 184 -259 187 -263 187 -268 c 0
 187 -272 184 -274 178 -276 c 128
 172 -278 165 -279 158 -279 c 0
 148 -279 138 -278 127 -278 c 128
 116 -278 106 -278 97 -278 c 128
 88 -278 81 -278 75 -279 c 0
 58 -281 42 -283 26 -284 c 128
 10 -285 -6 -286 -24 -286 c 0
269 20 m 0
 284 20 302 29 321 46 c 128
 340 63 358 84 376 111 c 128
 394 138 408 166 420 196 c 128
 432 226 438 254 438 281 c 0
 438 318 431 344 418 357 c 128
 405 370 386 377 362 378 c 0
 353 378 353 378 344 378 c 128
 338 378 331 377 324 376 c 1
 232 106 l 2
 228 94 225 82 225 72 c 128
 225 62 226 53 229 46 c 0
 232 37 237 30 243 26 c 128
 249 22 258 20 269 20 c 0
EndSplineSet
EndChar

StartChar: q
Encoding: 113 113 42
Width: 600
GlyphClass: 1
Flags: W
LayerCount: 2
Fore
SplineSet
176 -286 m 0
 173 -287 169 -286 164 -285 c 128
 159 -284 156 -281 156 -277 c 0
 156 -272 160 -268 167 -264 c 128
 174 -260 180 -258 186 -257 c 0
 200 -255 213 -250 225 -242 c 128
 237 -234 244 -224 249 -211 c 0
 262 -175 276 -139 289 -104 c 128
 302 -69 316 -34 330 2 c 128
 344 38 357 74 370 110 c 0
 373 117 374 124 371 128 c 128
 368 132 362 129 354 120 c 0
 329 93 305 68 281 48 c 128
 257 28 233 13 209 2 c 128
 185 -9 161 -14 137 -14 c 0
 116 -14 99 -8 86 4 c 128
 73 16 67 30 67 47 c 0
 67 75 74 106 87 139 c 128
 100 172 119 206 141 239 c 128
 163 272 187 303 214 331 c 0
 240 358 269 380 300 396 c 128
 331 412 359 420 384 420 c 0
 399 420 412 417 421 412 c 128
 430 407 436 401 441 394 c 0
 446 389 450 384 453 379 c 128
 456 374 459 372 462 372 c 0
 469 372 476 377 481 388 c 2
 490 407 l 2
 493 415 498 421 503 424 c 128
 508 427 512 428 517 428 c 0
 521 428 524 424 525 418 c 128
 526 412 525 403 520 390 c 2
 325 -199 l 2
 320 -213 320 -224 325 -232 c 128
 330 -240 338 -245 351 -246 c 0
 358 -247 364 -248 371 -250 c 128
 378 -252 381 -256 381 -261 c 0
 381 -265 378 -268 372 -270 c 128
 366 -272 359 -272 352 -272 c 0
 330 -272 308 -272 284 -274 c 128
 260 -276 238 -278 219 -280 c 128
 200 -282 185 -284 176 -286 c 0
162 22 m 0
 175 22 191 28 209 38 c 128
 227 48 246 62 265 78 c 128
 284 94 301 112 318 132 c 128
 335 152 348 170 359 188 c 0
 374 213 387 239 398 266 c 128
 409 293 414 316 414 337 c 0
 414 346 413 354 410 362 c 128
 407 370 403 375 397 380 c 128
 391 385 384 387 375 387 c 0
 362 387 347 379 327 364 c 128
 307 349 286 330 264 306 c 128
 242 282 221 255 202 226 c 128
 183 197 167 168 155 139 c 128
 143 110 137 84 137 61 c 0
 137 48 139 38 143 32 c 128
 147 26 153 22 162 22 c 0
EndSplineSet
EndChar

StartChar: r
Encoding: 114 114 43
Width: 600
GlyphClass: 2
Flags: W
LayerCount: 2
Fore
SplineSet
171 -17 m 0
 168 -17 164 -16 160 -14 c 128
 156 -12 153 -8 150 -4 c 128
 147 0 146 3 146 7 c 0
 146 15 149 26 153 38 c 128
 157 50 162 65 169 84 c 2
 261 324 l 2
 264 333 266 341 266 348 c 128
 266 355 262 359 255 359 c 0
 246 359 237 358 228 356 c 128
 219 354 212 351 207 348 c 0
 203 345 200 344 196 346 c 128
 192 348 190 351 190 356 c 0
 190 361 193 367 198 374 c 128
 203 381 209 387 218 393 c 0
 226 399 236 404 247 408 c 128
 258 412 269 414 281 414 c 0
 300 414 312 409 317 400 c 128
 322 391 323 378 319 362 c 128
 315 346 309 329 301 309 c 2
 256 196 l 2
 253 191 255 188 259 187 c 128
 263 186 266 187 268 190 c 0
 295 236 322 276 349 310 c 128
 376 344 401 371 424 390 c 128
 447 409 467 419 482 419 c 0
 499 419 512 414 519 404 c 128
 526 394 529 382 529 369 c 0
 529 357 527 345 523 332 c 128
 519 319 513 308 505 300 c 128
 497 292 488 288 479 288 c 0
 474 288 470 292 467 298 c 128
 464 304 463 312 463 323 c 0
 463 333 462 340 459 346 c 128
 456 352 451 355 444 355 c 0
 437 355 429 351 418 342 c 128
 407 333 393 318 376 297 c 0
 369 287 359 273 347 256 c 128
 335 239 323 219 309 198 c 128
 295 177 281 156 268 134 c 128
 255 112 243 93 233 75 c 0
 215 43 203 20 195 5 c 128
 187 -10 179 -17 171 -17 c 0
EndSplineSet
EndChar

StartChar: s
Encoding: 115 115 44
Width: 600
GlyphClass: 2
Flags: W
LayerCount: 2
Fore
SplineSet
173 -14 m 0
 151 -14 133 -10 116 -2 c 128
 99 6 86 17 86 30 c 0
 86 45 89 56 96 64 c 128
 103 72 109 76 114 76 c 256
 119 76 123 74 128 70 c 128
 133 66 140 62 146 57 c 0
 153 52 161 47 170 42 c 128
 179 37 240 34 262 34 c 0
 288 34 324 41 342 54 c 128
 360 67 366 80 363 95 c 0
 358 110 347 125 332 142 c 128
 317 159 301 176 285 193 c 0
 270 209 257 224 246 238 c 128
 235 252 230 265 229 275 c 0
 226 294 231 313 241 330 c 128
 251 347 265 361 280 374 c 128
 295 387 311 397 326 404 c 128
 341 411 390 414 403 414 c 256
 416 414 452 411 461 406 c 128
 470 401 476 396 482 390 c 128
 488 384 491 378 491 373 c 0
 491 369 489 364 485 358 c 128
 481 352 476 348 471 343 c 128
 466 338 461 336 457 336 c 0
 454 336 450 338 447 341 c 128
 442 346 441 346 435 352 c 256
 431 356 426 360 420 363 c 128
 414 366 370 368 357 368 c 0
 341 368 311 363 299 354 c 128
 287 345 282 334 286 319 c 0
 287 314 291 305 301 294 c 128
 311 283 321 271 333 259 c 128
 345 247 355 236 364 227 c 0
 376 214 392 196 404 176 c 128
 416 156 424 138 426 123 c 0
 429 103 421 85 409 68 c 128
 397 51 382 36 363 24 c 128
 344 12 323 3 301 -4 c 128
 279 -11 202 -14 173 -14 c 0
EndSplineSet
EndChar

StartChar: t
Encoding: 116 116 45
Width: 600
GlyphClass: 2
Flags: W
LayerCount: 2
Fore
SplineSet
187 -14 m 256
 182 -14 163 -12 155 -8 c 128
 147 -4 141 2 136 8 c 128
 131 14 129 18 129 23 c 0
 129 34 129 44 132 52 c 128
 135 60 139 69 142 79 c 2
 237 346 l 2
 238 351 237 354 235 356 c 128
 233 358 230 358 227 358 c 2
 187 360 l 2
 178 361 173 363 171 366 c 128
 169 369 169 371 169 374 c 0
 169 375 171 378 174 382 c 128
 177 386 181 388 186 392 c 128
 191 396 197 398 203 398 c 2
 239 398 l 2
 246 398 251 400 254 402 c 128
 257 404 260 409 263 416 c 2
 287 465 l 2
 290 470 295 477 302 484 c 128
 309 491 316 497 324 502 c 128
 332 507 338 510 341 510 c 0
 346 510 350 506 351 499 c 128
 352 492 352 485 349 478 c 2
 323 411 l 2
 322 406 322 403 324 402 c 128
 326 401 342 399 351 399 c 0
 374 399 400 398 426 396 c 128
 452 394 471 392 488 391 c 0
 508 389 520 387 524 385 c 128
 528 383 533 379 534 376 c 0
 534 375 533 373 528 370 c 128
 523 367 515 366 503 365 c 0
 476 364 451 363 428 362 c 128
 405 361 379 361 352 360 c 0
 332 359 312 358 308 355 c 128
 304 352 301 349 300 345 c 2
 211 99 l 2
 208 91 208 84 211 78 c 128
 214 72 218 67 229 64 c 128
 240 61 255 59 272 59 c 0
 294 59 328 64 342 69 c 128
 355 74 378 83 390 92 c 128
 401 100 408 108 415 115 c 0
 422 122 429 126 434 125 c 128
 439 124 442 122 442 118 c 0
 442 113 440 108 436 102 c 128
 432 96 426 91 419 85 c 0
 403 74 388 63 370 53 c 128
 352 43 335 34 317 26 c 128
 299 18 281 10 264 4 c 128
 247 -2 234 -6 220 -9 c 128
 206 -12 192 -14 187 -14 c 256
EndSplineSet
EndChar

StartChar: u
Encoding: 117 117 46
Width: 600
GlyphClass: 2
Flags: W
LayerCount: 2
Fore
SplineSet
113 -14 m 0
 106 -14 99 -10 91 -4 c 128
 83 2 77 9 73 18 c 128
 69 27 68 34 70 39 c 2
 175 292 l 2
 180 303 183 313 184 321 c 128
 185 329 183 333 178 333 c 0
 175 333 170 330 162 325 c 128
 154 320 146 313 136 305 c 128
 126 297 116 289 106 280 c 0
 105 279 103 278 99 279 c 128
 95 280 93 281 93 283 c 0
 93 286 94 289 95 294 c 128
 96 299 100 306 105 313 c 0
 122 336 141 355 161 370 c 128
 181 385 201 398 219 406 c 128
 237 414 251 418 260 418 c 0
 263 418 268 416 272 412 c 128
 276 408 279 405 282 400 c 128
 285 395 285 390 282 385 c 0
 260 340 239 294 219 247 c 128
 199 200 179 154 159 109 c 0
 153 96 149 83 148 72 c 128
 147 61 149 55 156 55 c 256
 163 55 173 61 186 72 c 128
 199 83 215 98 232 116 c 128
 249 134 266 153 285 174 c 0
 310 203 335 232 359 263 c 128
 383 294 403 321 420 346 c 128
 437 371 449 388 454 398 c 0
 457 405 461 409 466 411 c 128
 471 413 475 414 479 414 c 256
 483 414 487 412 491 408 c 128
 495 404 499 399 501 394 c 128
 503 389 503 384 501 380 c 2
 373 86 l 2
 368 73 365 64 366 57 c 128
 367 50 370 47 376 47 c 0
 385 47 396 52 410 61 c 128
 424 70 438 82 453 94 c 128
 468 106 480 117 490 127 c 0
 491 128 492 128 493 128 c 0
 495 128 497 128 499 126 c 128
 501 124 502 122 502 119 c 0
 502 118 502 116 501 115 c 128
 500 113 501 113 499 110 c 128
 498 108 497 106 495 103 c 128
 493 100 491 97 489 94 c 128
 487 91 483 88 480 84 c 0
 467 68 453 53 436 38 c 128
 419 23 402 10 383 0 c 128
 364 -10 343 -14 322 -14 c 0
 313 -14 306 -8 299 3 c 128
 292 14 290 24 294 33 c 0
 303 53 313 74 324 97 c 128
 335 120 345 141 353 160 c 128
 361 179 367 194 370 203 c 0
 373 211 373 215 369 216 c 128
 365 217 361 215 358 211 c 0
 323 173 293 140 266 112 c 128
 239 84 217 60 197 42 c 128
 177 24 161 9 147 0 c 128
 133 -9 122 -14 113 -14 c 0
EndSplineSet
EndChar

StartChar: v
Encoding: 118 118 47
Width: 600
GlyphClass: 2
Flags: W
LayerCount: 2
Fore
SplineSet
213 -14 m 0
 198 -14 184 -7 173 6 c 128
 162 19 155 36 151 56 c 128
 147 76 149 96 156 115 c 2
 221 288 l 2
 226 301 229 312 230 320 c 128
 231 328 227 333 219 333 c 0
 214 333 207 328 195 318 c 128
 183 308 172 297 161 286 c 0
 158 282 155 280 153 279 c 128
 151 278 149 278 148 278 c 0
 143 278 141 280 141 283 c 0
 141 287 142 291 144 296 c 128
 146 301 148 306 153 313 c 0
 165 330 178 345 190 358 c 128
 202 371 214 381 225 390 c 128
 236 399 247 406 257 411 c 128
 267 416 275 418 282 418 c 0
 287 418 292 416 297 412 c 128
 302 408 306 404 308 398 c 128
 310 392 310 386 308 379 c 2
 218 119 l 2
 211 96 210 78 215 64 c 128
 220 50 231 43 248 43 c 0
 272 43 296 50 319 64 c 128
 342 78 362 95 380 118 c 128
 398 141 412 167 423 195 c 128
 434 223 439 251 439 280 c 0
 439 291 437 303 433 314 c 128
 429 325 422 335 415 344 c 0
 410 349 408 355 406 360 c 128
 404 365 403 371 403 377 c 256
 403 383 406 390 412 396 c 128
 418 402 426 408 435 412 c 128
 444 416 453 418 462 418 c 0
 469 418 476 412 482 401 c 128
 488 390 491 372 491 349 c 0
 491 320 488 291 482 262 c 128
 476 233 466 206 452 178 c 128
 438 150 419 123 396 96 c 0
 365 59 334 32 302 14 c 128
 270 -4 240 -14 213 -14 c 0
EndSplineSet
EndChar

StartChar: w
Encoding: 119 119 48
Width: 600
GlyphClass: 2
Flags: W
LayerCount: 2
Fore
SplineSet
122 -14 m 0
 106 -14 92 -8 81 4 c 128
 70 16 64 33 62 56 c 128
 60 79 67 108 79 141 c 2
 138 304 l 2
 141 313 143 320 142 325 c 128
 141 330 137 332 132 332 c 0
 129 332 121 328 109 322 c 128
 97 316 86 307 75 295 c 0
 72 292 70 289 67 288 c 128
 64 287 62 286 61 286 c 0
 55 286 51 288 52 293 c 0
 52 296 51 298 52 302 c 128
 53 306 58 312 64 319 c 0
 77 334 87 348 101 360 c 128
 115 372 128 382 141 391 c 128
 154 400 164 406 175 411 c 128
 186 416 195 418 202 418 c 0
 206 418 210 417 213 414 c 128
 216 411 219 406 221 401 c 128
 223 396 222 389 220 381 c 2
 129 120 l 2
 121 97 120 78 125 64 c 128
 130 50 140 43 156 43 c 0
 168 43 182 48 198 60 c 128
 214 72 228 87 242 104 c 128
 256 121 268 137 278 152 c 128
 288 167 294 179 295 186 c 0
 296 193 298 202 301 216 c 128
 304 230 308 245 311 261 c 128
 314 277 318 292 321 306 c 128
 324 320 327 329 328 335 c 0
 330 344 332 353 336 360 c 128
 340 367 345 373 350 376 c 0
 358 381 366 386 374 390 c 128
 382 394 392 397 405 397 c 0
 409 397 412 393 413 384 c 128
 414 375 414 364 412 352 c 128
 410 340 409 331 405 322 c 0
 397 299 388 278 381 260 c 128
 374 242 368 227 363 214 c 0
 359 203 354 190 350 176 c 128
 346 162 343 150 342 143 c 0
 337 112 337 88 340 69 c 128
 343 50 355 41 371 41 c 0
 389 41 407 49 427 64 c 128
 447 79 463 99 480 124 c 128
 497 149 510 175 521 204 c 128
 532 233 538 261 538 288 c 0
 538 296 537 303 534 310 c 128
 531 317 529 323 526 329 c 0
 521 336 517 343 513 349 c 128
 509 355 506 360 507 365 c 0
 507 372 511 380 518 388 c 128
 525 396 534 404 544 410 c 128
 554 416 562 420 568 420 c 0
 575 420 582 414 587 402 c 128
 592 390 595 372 595 349 c 0
 595 320 590 290 582 260 c 128
 574 230 561 201 545 171 c 128
 529 141 509 111 483 80 c 0
 457 49 431 26 406 10 c 128
 381 -6 356 -14 334 -14 c 0
 318 -14 305 -7 296 8 c 128
 287 23 282 41 281 63 c 128
 280 85 281 107 286 129 c 1
 294 133 l 1
 278 108 259 84 237 62 c 128
 215 40 193 21 172 7 c 128
 151 -7 134 -14 122 -14 c 0
EndSplineSet
EndChar

StartChar: x
Encoding: 120 120 49
Width: 600
GlyphClass: 2
Flags: W
LayerCount: 2
Fore
SplineSet
105 -14 m 0
 95 -14 86 -10 77 -4 c 128
 68 2 64 11 64 24 c 0
 64 32 67 40 72 50 c 128
 77 60 83 69 90 76 c 128
 97 83 104 87 109 87 c 256
 114 87 119 86 121 82 c 128
 123 78 124 74 125 69 c 0
 127 61 130 56 133 52 c 128
 136 48 140 46 144 46 c 0
 149 45 153 46 158 48 c 128
 163 50 167 54 171 58 c 0
 184 72 197 84 207 96 c 128
 217 108 227 120 238 133 c 128
 249 146 261 160 275 176 c 0
 278 179 280 182 280 185 c 128
 280 188 279 191 278 194 c 2
 240 334 l 2
 238 341 236 346 234 348 c 128
 232 350 229 351 225 351 c 0
 220 351 213 346 203 338 c 128
 193 330 182 317 169 299 c 0
 168 297 166 294 163 290 c 128
 160 286 157 283 152 283 c 0
 149 283 148 285 147 288 c 128
 146 291 145 295 145 300 c 0
 145 310 149 321 156 334 c 128
 163 347 171 360 182 372 c 128
 193 384 204 394 217 402 c 128
 230 410 241 414 252 414 c 256
 263 414 272 410 278 402 c 128
 284 394 289 380 294 363 c 2
 319 257 l 2
 321 246 326 246 333 255 c 2
 403 355 l 2
 413 369 426 382 442 395 c 128
 458 408 475 414 493 414 c 0
 506 414 518 408 528 398 c 128
 538 388 543 379 544 371 c 0
 545 366 543 359 538 350 c 128
 533 341 528 333 522 326 c 128
 516 319 509 316 503 316 c 0
 499 316 496 318 493 321 c 128
 490 324 487 328 485 333 c 0
 482 342 478 349 475 352 c 128
 472 355 468 356 463 356 c 0
 455 356 446 353 437 346 c 128
 428 339 417 328 406 314 c 0
 397 303 387 292 376 278 c 128
 365 264 353 247 340 228 c 0
 337 224 336 219 335 214 c 128
 334 209 335 202 338 193 c 2
 372 70 l 2
 375 61 378 56 382 52 c 128
 386 48 390 46 393 46 c 0
 402 46 414 54 426 68 c 128
 438 82 449 101 459 126 c 0
 463 135 467 140 472 140 c 0
 475 140 477 138 479 136 c 128
 481 134 481 128 481 118 c 0
 481 109 478 97 473 82 c 128
 468 67 460 53 451 38 c 128
 442 23 431 11 418 1 c 128
 405 -9 392 -14 377 -14 c 0
 358 -14 345 -8 336 3 c 128
 327 14 320 31 314 53 c 0
 311 67 307 82 303 98 c 128
 299 114 295 130 292 144 c 0
 290 152 288 156 286 157 c 128
 284 158 280 155 276 150 c 0
 260 130 244 109 228 88 c 128
 212 67 196 46 179 27 c 0
 165 10 153 -1 141 -6 c 128
 129 -11 117 -14 105 -14 c 0
EndSplineSet
EndChar

StartChar: y
Encoding: 121 121 50
Width: 600
GlyphClass: 2
Flags: W
LayerCount: 2
Fore
SplineSet
46 -290 m 0
 36 -290 26 -287 16 -280 c 128
 6 -273 1 -262 1 -248 c 0
 1 -239 3 -230 7 -223 c 128
 11 -216 16 -210 22 -205 c 128
 28 -200 34 -198 40 -198 c 0
 47 -198 52 -200 57 -204 c 128
 62 -208 66 -211 71 -215 c 256
 76 -219 80 -223 85 -226 c 128
 90 -229 95 -230 101 -230 c 0
 124 -230 148 -216 174 -186 c 128
 200 -156 224 -119 246 -74 c 0
 261 -43 271 -8 276 30 c 128
 281 68 284 109 284 154 c 0
 284 203 280 243 273 272 c 128
 266 301 258 323 249 336 c 128
 240 349 233 355 226 355 c 256
 219 355 212 352 204 344 c 128
 196 336 189 327 183 317 c 128
 177 307 173 298 170 290 c 0
 169 287 167 281 163 273 c 128
 159 265 155 261 151 261 c 0
 148 261 146 264 144 270 c 128
 142 276 142 282 142 289 c 0
 142 304 145 319 151 334 c 128
 157 349 166 362 176 374 c 128
 186 386 198 396 210 403 c 128
 222 410 234 414 245 414 c 0
 261 414 274 408 285 397 c 128
 296 386 305 369 312 348 c 0
 321 319 330 284 337 242 c 128
 344 200 346 145 343 78 c 0
 342 66 343 60 346 61 c 128
 349 62 353 66 358 75 c 0
 380 117 399 166 417 221 c 128
 435 276 444 337 444 404 c 0
 444 407 446 411 451 416 c 128
 456 421 460 423 463 423 c 256
 466 423 470 422 475 418 c 128
 480 414 485 409 489 402 c 128
 493 395 496 388 496 380 c 0
 496 339 486 290 465 234 c 128
 444 178 415 119 378 56 c 128
 341 -7 297 -69 248 -130 c 0
 225 -159 201 -186 177 -210 c 128
 153 -234 129 -253 107 -268 c 128
 85 -283 65 -290 46 -290 c 0
EndSplineSet
EndChar

StartChar: z
Encoding: 122 122 51
Width: 600
GlyphClass: 2
Flags: W
LayerCount: 2
Fore
SplineSet
325 -34 m 0
 308 -34 293 -29 279 -18 c 128
 265 -7 252 4 239 16 c 0
 229 25 220 34 212 41 c 128
 204 48 196 52 189 52 c 0
 169 52 154 46 143 34 c 128
 132 22 126 9 126 -6 c 0
 126 -13 125 -17 121 -18 c 128
 117 -19 114 -20 111 -20 c 0
 109 -20 106 -17 103 -12 c 128
 100 -7 98 -1 97 6 c 0
 96 13 98 22 102 32 c 128
 106 42 112 50 121 59 c 2
 409 338 l 1
 432 346 l 1
 425 337 419 330 414 326 c 128
 409 322 402 319 393 319 c 0
 383 319 373 322 363 326 c 128
 353 330 341 335 330 340 c 0
 317 347 304 353 290 358 c 128
 276 363 261 366 245 366 c 0
 233 366 222 362 212 352 c 128
 202 342 197 332 197 322 c 0
 197 317 198 312 199 305 c 128
 200 298 203 292 207 286 c 0
 211 279 211 273 207 268 c 0
 202 263 196 259 186 254 c 128
 176 249 169 246 166 246 c 256
 163 246 158 249 153 255 c 128
 148 261 145 269 145 280 c 0
 145 298 149 313 158 326 c 128
 167 339 179 353 195 368 c 0
 203 375 213 383 225 390 c 128
 237 397 249 402 261 407 c 128
 273 412 283 414 290 414 c 0
 301 414 313 412 324 409 c 128
 335 406 345 402 356 398 c 0
 368 393 379 389 390 385 c 128
 401 381 410 379 419 379 c 0
 429 379 438 381 444 384 c 128
 450 387 457 393 464 400 c 0
 467 403 472 408 478 412 c 128
 484 416 489 418 494 418 c 0
 496 418 498 416 500 414 c 128
 502 412 503 409 503 406 c 0
 503 401 500 394 494 384 c 128
 488 374 480 365 471 356 c 2
 186 75 l 1
 171 82 l 1
 179 89 186 94 192 96 c 128
 198 98 204 98 212 98 c 0
 227 98 241 94 254 85 c 128
 267 76 279 67 292 56 c 0
 303 47 315 38 326 30 c 128
 337 22 348 18 359 18 c 0
 374 18 385 22 392 32 c 128
 399 42 403 55 405 70 c 128
 407 85 408 99 408 114 c 0
 408 126 409 134 411 138 c 128
 413 142 417 143 423 143 c 0
 430 143 438 139 445 130 c 128
 452 121 456 108 456 92 c 0
 456 78 451 64 441 49 c 128
 431 34 419 21 404 8 c 128
 389 -5 375 -14 361 -22 c 128
 347 -30 334 -34 325 -34 c 0
EndSplineSet
EndChar

StartChar: zero
Encoding: 48 48 52
Width: 600
GlyphClass: 1
Flags: W
LayerCount: 2
Fore
SplineSet
252 12 m 0
 271 12 289 20 309 36 c 0
 329 52 348 72 367 99 c 0
 386 126 403 156 419 190 c 0
 435 224 450 261 461 298 c 0
 472 335 481 371 487 407 c 0
 493 443 496 476 495 506 c 0
 495 522 494 529 492 529 c 0
 489 529 484 520 473 502 c 2
 218 60 l 2
 214 53 212 50 211 47 c 0
 210 44 211 43 212 40 c 0
 220 22 233 12 252 12 c 0
246 -14 m 0
 215 -14 190 -5 172 14 c 0
 154 33 143 57 137 88 c 0
 131 119 130 154 134 191 c 0
 138 228 146 265 157 302 c 0
 168 340 184 378 203 417 c 0
 222 456 245 491 270 523 c 0
 295 555 323 580 354 600 c 0
 385 620 417 630 452 630 c 0
 483 630 507 621 525 602 c 0
 543 583 555 559 561 528 c 0
 567 497 568 463 564 426 c 0
 560 389 553 352 542 316 c 0
 531 279 515 241 496 202 c 0
 477 163 454 128 428 95 c 0
 402 62 375 36 344 16 c 0
 313 -4 281 -14 246 -14 c 0
439 603 m 0
 414 603 390 590 365 564 c 0
 340 538 317 503 295 460 c 0
 273 417 255 370 240 320 c 0
 229 284 220 248 213 212 c 0
 202 154 197 127 203 127 c 0
 209 127 224 154 253 203 c 2
 451 546 l 2
 460 561 466 572 469 581 c 0
 474 596 467 603 439 603 c 0
EndSplineSet
Substitution2: "'onum' Oldstyle Figures-1" zero.oldstyle
Substitution2: "'ss01' Original glyphs-1" zero.ss01
EndChar

StartChar: one
Encoding: 49 49 53
Width: 600
GlyphClass: 1
Flags: W
LayerCount: 2
Fore
SplineSet
106 -3 m 0
 103 -3 101 -2 98 0 c 128
 95 2 94 3 94 6 c 0
 94 11 96 14 100 17 c 128
 104 20 108 21 113 22 c 0
 146 29 175 37 201 48 c 128
 227 59 244 78 252 103 c 2
 368 477 l 2
 375 500 372 516 357 524 c 128
 342 532 322 539 295 543 c 0
 292 544 288 546 285 548 c 128
 282 550 280 553 280 556 c 0
 280 561 283 565 288 568 c 128
 293 571 298 573 303 574 c 0
 322 576 341 580 361 587 c 128
 381 594 402 601 421 610 c 128
 440 619 457 626 471 633 c 0
 473 634 475 635 477 636 c 128
 479 637 482 637 484 637 c 0
 487 637 489 636 491 634 c 128
 493 632 493 631 492 628 c 0
 487 618 483 608 479 596 c 128
 475 584 471 571 466 557 c 2
 321 86 l 2
 316 70 317 58 324 51 c 128
 331 44 342 38 357 35 c 128
 372 32 389 27 408 22 c 0
 411 21 414 20 417 17 c 128
 420 14 420 11 419 8 c 0
 418 5 416 2 413 0 c 128
 410 -2 406 -3 403 -3 c 0
 386 -3 368 -3 352 -2 c 128
 336 -1 320 0 305 1 c 128
 290 2 274 2 259 2 c 0
 242 2 225 2 208 1 c 128
 191 0 173 -1 156 -2 c 128
 139 -3 123 -3 106 -3 c 0
EndSplineSet
Substitution2: "'onum' Oldstyle Figures-1" one.oldstyle
EndChar

StartChar: two
Encoding: 50 50 54
Width: 600
GlyphClass: 1
Flags: W
LayerCount: 2
Fore
SplineSet
419 -3 m 0
 396 -2 377 -1 365 0 c 128
 353 1 344 2 337 2 c 128
 330 2 324 3 318 3 c 128
 309 3 309 3 292 3 c 0
 259 3 259 3 234 3 c 128
 217 3 201 2 186 2 c 128
 171 2 154 2 137 1 c 128
 120 0 101 -1 78 -2 c 0
 73 -2 69 1 66 8 c 128
 63 15 66 22 73 28 c 2
 286 205 l 2
 317 231 347 259 376 290 c 128
 405 321 428 352 446 385 c 128
 464 418 474 450 474 481 c 0
 474 510 467 532 452 545 c 128
 437 558 415 565 386 565 c 0
 364 565 341 558 316 544 c 128
 291 530 269 509 248 480 c 0
 245 477 242 473 238 470 c 128
 234 467 231 466 228 466 c 0
 225 466 223 469 222 475 c 128
 221 481 221 486 224 491 c 0
 229 498 237 509 249 524 c 128
 261 539 276 554 294 570 c 128
 312 586 333 600 356 612 c 128
 379 624 404 630 431 630 c 0
 472 630 503 619 526 596 c 128
 549 573 561 544 560 509 c 0
 560 480 554 452 541 426 c 128
 528 400 512 375 492 352 c 128
 472 329 451 309 430 290 c 0
 418 279 401 266 381 249 c 128
 361 232 339 215 315 196 c 128
 291 177 269 158 247 140 c 128
 225 122 207 108 192 96 c 128
 177 84 168 78 165 76 c 0
 160 73 159 70 163 68 c 128
 167 66 171 65 174 64 c 0
 184 63 196 63 211 62 c 128
 226 61 243 61 260 61 c 256
 277 61 295 61 313 62 c 128
 331 63 349 63 366 64 c 0
 384 65 397 67 406 69 c 128
 415 71 424 76 431 82 c 128
 438 88 448 98 459 111 c 0
 462 115 467 120 472 125 c 128
 477 130 483 133 490 134 c 0
 493 135 496 133 498 128 c 128
 500 123 501 118 499 115 c 0
 488 98 480 87 475 80 c 128
 470 73 467 68 465 65 c 128
 463 62 460 58 457 52 c 128
 454 46 450 36 443 21 c 0
 438 10 434 4 430 1 c 128
 426 -2 422 -3 419 -3 c 0
EndSplineSet
Substitution2: "'onum' Oldstyle Figures-1" two.oldstyle
EndChar

StartChar: three
Encoding: 51 51 55
Width: 600
GlyphClass: 1
Flags: W
LayerCount: 2
Fore
SplineSet
142 -38 m 0
 117 -38 100 -35 89 -28 c 128
 78 -21 72 -12 72 -1 c 0
 72 10 74 20 78 28 c 128
 82 36 89 41 99 41 c 0
 104 41 110 40 117 36 c 128
 124 32 131 28 137 23 c 0
 145 18 154 13 164 8 c 128
 174 3 185 0 198 0 c 0
 238 0 273 10 303 30 c 128
 333 50 356 76 373 109 c 128
 390 142 398 177 398 214 c 0
 398 239 393 261 382 278 c 128
 371 295 353 304 328 304 c 0
 321 304 312 304 300 302 c 128
 288 300 276 296 263 289 c 0
 260 288 258 288 255 289 c 128
 252 290 250 292 250 297 c 0
 250 303 252 308 257 313 c 128
 262 318 267 322 273 325 c 128
 279 328 284 331 288 332 c 0
 305 337 323 345 342 355 c 128
 361 365 378 377 395 392 c 128
 412 407 425 424 436 442 c 128
 447 460 452 480 452 501 c 256
 452 522 446 539 434 552 c 128
 422 565 406 571 387 571 c 0
 360 571 337 566 318 555 c 128
 299 544 279 525 260 498 c 0
 257 493 256 489 254 486 c 128
 252 483 248 482 243 482 c 0
 241 482 237 485 232 492 c 128
 227 499 224 505 224 511 c 0
 224 521 231 532 245 546 c 128
 259 560 277 573 298 586 c 128
 319 599 341 610 364 618 c 128
 387 626 407 630 424 630 c 0
 445 630 464 626 482 618 c 128
 500 610 513 600 524 586 c 128
 535 572 540 554 540 535 c 0
 540 518 536 500 528 484 c 128
 520 468 508 453 494 438 c 128
 480 423 465 409 447 396 c 128
 429 383 410 372 391 363 c 0
 389 362 388 362 387 360 c 128
 386 358 387 357 390 356 c 0
 409 353 427 346 442 337 c 128
 457 328 470 314 479 298 c 128
 488 282 492 262 492 237 c 0
 492 210 485 182 471 154 c 128
 457 126 438 99 414 74 c 128
 390 49 361 28 330 10 c 0
 301 -7 270 -18 237 -26 c 128
 204 -34 172 -38 142 -38 c 0
EndSplineSet
Substitution2: "'onum' Oldstyle Figures-1" three.oldstyle
EndChar

StartChar: four
Encoding: 52 52 56
Width: 600
GlyphClass: 1
Flags: W
LayerCount: 2
Fore
SplineSet
185 -3 m 0
 183 -3 181 -2 178 -1 c 128
 175 0 173 2 173 5 c 0
 173 10 176 13 180 16 c 128
 184 19 188 21 193 22 c 0
 229 25 254 32 268 40 c 128
 282 48 291 60 296 76 c 2
 324 169 l 2
 325 174 326 178 324 180 c 128
 322 182 319 182 314 182 c 0
 289 182 265 181 243 180 c 128
 221 179 197 179 172 178 c 128
 147 177 119 176 86 175 c 0
 83 175 82 177 81 180 c 128
 80 183 80 186 82 188 c 0
 93 199 101 206 106 210 c 128
 111 214 115 219 118 222 c 128
 121 225 126 229 132 235 c 2
 495 614 l 2
 500 620 507 626 514 632 c 128
 521 638 527 642 532 642 c 2
 550 642 l 2
 552 642 553 642 552 640 c 128
 551 638 550 636 548 634 c 128
 546 632 544 630 543 628 c 2
 174 240 l 2
 173 239 171 236 170 234 c 128
 169 232 169 231 171 231 c 2
 332 231 l 2
 335 231 337 232 340 234 c 128
 343 236 344 237 345 239 c 2
 402 424 l 2
 404 431 406 436 408 439 c 128
 410 442 412 444 417 446 c 0
 428 451 440 454 451 456 c 128
 462 458 469 459 473 459 c 0
 480 459 483 454 481 443 c 128
 479 432 475 416 468 395 c 2
 419 236 l 2
 418 232 419 230 422 230 c 0
 429 229 436 229 442 229 c 128
 450 229 450 229 458 229 c 0
 467 229 476 230 485 230 c 128
 494 230 503 230 514 231 c 0
 517 231 520 230 522 228 c 128
 524 226 523 225 522 222 c 0
 519 217 516 212 512 206 c 128
 508 200 505 195 501 191 c 128
 497 187 494 185 491 185 c 0
 484 185 477 186 469 186 c 128
 461 186 452 186 445 186 c 0
 440 186 435 186 430 186 c 128
 425 186 420 185 416 184 c 0
 411 183 408 182 406 180 c 128
 404 178 402 177 401 174 c 2
 375 85 l 2
 368 64 369 49 376 40 c 128
 383 31 400 25 427 22 c 0
 430 21 433 20 436 18 c 128
 439 16 440 12 440 8 c 0
 440 5 438 2 434 0 c 128
 430 -2 424 -3 419 -3 c 0
 402 -3 388 -3 377 -2 c 128
 366 -1 355 0 345 1 c 128
 335 2 323 2 308 2 c 0
 284 2 264 2 248 0 c 128
 232 -2 210 -3 185 -3 c 0
EndSplineSet
Substitution2: "'onum' Oldstyle Figures-1" four.oldstyle
EndChar

StartChar: five
Encoding: 53 53 57
Width: 600
GlyphClass: 1
Flags: W
LayerCount: 2
Fore
SplineSet
139 -38 m 0
 119 -38 105 -32 97 -22 c 128
 89 -12 84 -2 84 9 c 0
 84 16 85 23 88 28 c 128
 91 33 94 35 99 35 c 0
 108 35 117 32 124 26 c 128
 131 20 141 14 155 9 c 0
 161 6 169 4 177 3 c 128
 185 2 195 1 206 1 c 0
 223 1 243 4 266 11 c 128
 289 18 311 29 332 44 c 128
 353 59 370 78 384 102 c 128
 398 126 404 157 404 193 c 0
 404 218 398 240 386 257 c 128
 374 274 357 290 334 304 c 128
 311 318 284 334 252 350 c 0
 237 357 228 364 224 370 c 128
 220 376 217 381 217 387 c 0
 217 390 217 394 218 396 c 128
 219 398 219 400 220 401 c 0
 223 411 229 423 236 436 c 128
 243 449 250 464 259 478 c 128
 268 492 276 506 285 520 c 128
 294 534 301 545 308 556 c 0
 315 566 322 573 328 578 c 128
 334 583 342 587 353 590 c 0
 368 594 385 598 401 601 c 128
 417 604 434 607 451 610 c 128
 468 613 487 616 505 619 c 128
 523 622 542 624 562 627 c 0
 569 627 572 624 572 617 c 0
 572 614 570 608 566 600 c 128
 562 592 556 583 549 574 c 128
 542 565 534 558 527 552 c 128
 520 546 513 542 507 541 c 0
 494 540 479 539 462 538 c 128
 445 537 428 535 410 534 c 128
 392 533 376 532 361 531 c 128
 346 530 335 528 328 527 c 0
 324 526 318 520 309 510 c 128
 300 500 292 488 283 476 c 128
 274 464 268 455 265 448 c 0
 260 439 263 433 272 429 c 0
 311 412 347 396 379 378 c 128
 411 360 437 340 456 316 c 128
 475 292 484 262 484 226 c 0
 484 189 473 154 452 122 c 128
 431 90 403 62 368 38 c 128
 333 14 296 -5 256 -18 c 128
 216 -31 176 -38 139 -38 c 0
EndSplineSet
Substitution2: "'onum' Oldstyle Figures-1" five.oldstyle
EndChar

StartChar: six
Encoding: 54 54 58
Width: 600
GlyphClass: 1
Flags: W
LayerCount: 2
Fore
SplineSet
249 -14 m 0
 197 -14 159 -3 137 20 c 128
 115 43 105 72 106 107 c 0
 108 154 119 201 139 247 c 128
 159 293 187 336 221 378 c 128
 255 420 294 458 338 493 c 128
 382 528 428 557 476 582 c 128
 524 607 572 626 620 639 c 0
 624 640 626 640 628 639 c 128
 630 638 631 637 631 634 c 256
 631 631 630 629 628 627 c 128
 626 625 623 623 620 622 c 0
 580 607 540 587 499 560 c 128
 458 533 419 503 382 468 c 128
 345 433 312 396 283 358 c 128
 254 320 232 280 215 242 c 128
 198 204 190 168 190 134 c 0
 190 99 198 72 215 52 c 128
 232 32 256 22 287 22 c 0
 311 22 333 31 354 48 c 128
 375 65 392 86 405 111 c 128
 418 136 423 162 421 187 c 0
 421 212 414 232 402 244 c 128
 390 256 374 262 354 262 c 0
 343 262 332 260 320 256 c 128
 308 252 297 247 285 240 c 0
 278 236 275 236 275 239 c 128
 275 242 278 246 282 251 c 0
 293 264 306 275 321 286 c 128
 336 297 352 305 368 312 c 128
 384 319 398 322 411 322 c 0
 439 322 462 312 479 292 c 128
 496 272 505 249 506 224 c 0
 506 189 498 157 481 128 c 128
 464 99 442 74 416 53 c 128
 390 32 362 16 332 4 c 128
 302 -8 275 -14 249 -14 c 0
EndSplineSet
Substitution2: "'onum' Oldstyle Figures-1" six.oldstyle
EndChar

StartChar: seven
Encoding: 55 55 59
Width: 600
GlyphClass: 1
Flags: W
LayerCount: 2
Fore
SplineSet
106 -32 m 0
 99 -32 94 -29 92 -24 c 128
 90 -19 90 -13 93 -6 c 0
 94 -4 97 1 104 10 c 128
 111 19 118 27 125 35 c 2
 555 541 l 2
 556 543 557 545 558 547 c 128
 559 549 556 550 549 551 c 2
 322 551 l 2
 305 551 290 548 275 542 c 128
 260 536 248 525 238 511 c 0
 235 508 230 504 224 499 c 128
 218 494 213 492 208 492 c 256
 203 492 201 495 201 502 c 128
 201 509 204 516 207 522 c 0
 216 538 224 553 231 568 c 128
 238 583 244 597 248 610 c 0
 250 615 252 618 255 619 c 128
 258 620 260 621 261 621 c 0
 265 621 273 621 284 620 c 128
 295 619 307 618 318 617 c 0
 327 617 337 616 349 616 c 128
 361 616 373 616 387 616 c 128
 407 616 408 616 429 616 c 0
 460 616 490 616 519 616 c 128
 548 616 573 617 595 618 c 128
 617 619 631 620 637 621 c 0
 640 621 643 620 645 616 c 128
 647 612 647 609 646 607 c 0
 639 598 631 587 620 574 c 128
 609 561 599 549 590 538 c 2
 132 -5 l 2
 127 -10 122 -16 117 -22 c 128
 112 -28 108 -32 106 -32 c 0
EndSplineSet
Substitution2: "'onum' Oldstyle Figures-1" seven.oldstyle
EndChar

StartChar: eight
Encoding: 56 56 60
Width: 600
GlyphClass: 1
Flags: W
LayerCount: 2
Fore
SplineSet
246 -14 m 0
 217 -14 193 -8 172 3 c 128
 151 14 134 30 123 49 c 128
 112 68 106 90 106 113 c 0
 106 138 111 162 121 184 c 128
 131 206 150 226 178 246 c 128
 206 266 247 288 301 309 c 0
 306 311 308 313 306 315 c 128
 304 317 302 320 299 323 c 0
 287 340 276 356 266 369 c 128
 256 382 247 396 241 410 c 128
 235 424 231 442 231 462 c 0
 231 479 237 498 247 517 c 128
 257 536 272 555 290 572 c 128
 308 589 329 603 353 614 c 128
 377 625 403 630 431 630 c 0
 460 630 485 625 504 614 c 128
 523 603 538 590 548 573 c 128
 558 556 562 539 562 521 c 0
 562 505 559 489 552 474 c 128
 545 459 533 443 514 426 c 128
 495 409 467 388 431 364 c 0
 426 361 422 358 416 354 c 128
 410 350 404 347 399 344 c 0
 394 341 391 338 390 336 c 128
 389 334 391 331 394 327 c 0
 421 296 443 268 460 244 c 128
 477 220 485 191 485 156 c 0
 485 133 480 112 469 92 c 128
 458 72 442 53 421 37 c 128
 400 21 374 9 345 0 c 128
 316 -9 283 -14 246 -14 c 0
260 15 m 0
 301 15 336 27 363 50 c 128
 390 73 404 105 403 146 c 0
 403 171 397 194 384 215 c 128
 371 236 354 260 333 285 c 0
 330 288 328 290 326 292 c 128
 324 294 321 295 318 295 c 0
 315 295 311 293 305 289 c 0
 270 265 243 244 225 227 c 128
 207 210 194 192 188 174 c 128
 182 156 179 134 179 108 c 0
 180 91 183 76 190 62 c 128
 197 48 206 36 218 28 c 128
 230 20 244 15 260 15 c 0
386 358 m 0
 409 374 429 392 444 412 c 128
 459 432 471 454 479 475 c 128
 487 496 491 516 491 533 c 0
 490 555 484 573 472 586 c 128
 460 599 441 606 418 606 c 0
 398 606 379 600 361 588 c 128
 343 576 329 562 317 544 c 128
 305 526 299 508 299 489 c 0
 299 468 305 448 316 428 c 128
 327 408 344 386 365 361 c 0
 368 358 372 355 375 354 c 128
 378 353 381 355 386 358 c 0
EndSplineSet
Substitution2: "'onum' Oldstyle Figures-1" eight.oldstyle
EndChar

StartChar: nine
Encoding: 57 57 61
Width: 600
GlyphClass: 1
Flags: W
LayerCount: 2
Fore
SplineSet
66 -31 m 0
 61 -31 58 -30 57 -28 c 128
 56 -26 55 -23 55 -21 c 0
 55 -18 57 -14 60 -12 c 128
 63 -10 68 -9 73 -9 c 0
 101 -9 131 -1 162 14 c 128
 193 29 225 48 256 74 c 128
 287 100 317 130 346 162 c 128
 375 194 400 228 422 263 c 128
 444 298 461 333 474 368 c 128
 487 403 494 435 494 465 c 0
 494 500 487 530 473 555 c 128
 459 580 440 593 415 593 c 0
 393 593 372 585 352 570 c 128
 332 555 316 535 303 512 c 128
 290 489 284 466 284 443 c 256
 284 420 290 399 302 382 c 128
 314 365 329 357 348 357 c 0
 367 357 382 360 393 366 c 128
 404 372 417 377 430 383 c 0
 435 386 437 385 437 380 c 0
 437 379 437 377 436 374 c 128
 435 371 435 370 434 369 c 0
 423 355 410 343 395 334 c 0
 390 331 381 326 370 320 c 128
 359 314 348 308 335 304 c 128
 322 300 310 298 299 298 c 0
 272 298 249 308 229 327 c 128
 209 346 200 369 200 396 c 0
 200 422 208 449 224 476 c 128
 240 503 260 529 286 552 c 128
 312 575 340 594 370 608 c 128
 400 622 429 629 457 629 c 0
 481 629 502 622 520 608 c 128
 538 594 552 574 562 550 c 128
 572 526 577 500 577 471 c 0
 577 437 569 402 554 364 c 128
 539 326 518 288 491 250 c 128
 464 212 434 178 400 144 c 128
 366 110 329 80 291 54 c 128
 253 28 215 7 176 -8 c 128
 137 -23 101 -31 66 -31 c 0
EndSplineSet
Substitution2: "'onum' Oldstyle Figures-1" nine.oldstyle
EndChar

StartChar: period
Encoding: 46 46 62
Width: 600
GlyphClass: 1
Flags: W
LayerCount: 2
Fore
SplineSet
242 -14 m 0
 229 -14 219 -8 210 2 c 128
 201 12 197 23 197 36 c 0
 197 48 200 59 206 69 c 128
 212 79 220 86 230 92 c 128
 240 98 250 101 262 101 c 0
 275 101 287 96 295 86 c 128
 303 76 307 64 307 51 c 0
 307 39 305 28 299 18 c 128
 293 8 285 1 275 -5 c 128
 265 -11 254 -14 242 -14 c 0
EndSplineSet
EndChar

StartChar: comma
Encoding: 44 44 63
Width: 600
GlyphClass: 1
Flags: W
LayerCount: 2
Fore
SplineSet
161 -129 m 0
 156 -129 153 -128 149 -128 c 128
 145 -128 143 -126 143 -123 c 256
 143 -120 145 -117 150 -115 c 128
 155 -113 161 -110 168 -106 c 0
 187 -95 204 -84 218 -72 c 128
 232 -60 242 -47 249 -34 c 128
 256 -21 259 -7 259 6 c 0
 259 17 256 26 249 31 c 128
 242 36 234 41 227 44 c 0
 220 48 213 53 207 58 c 128
 201 63 197 70 197 80 c 0
 197 91 203 100 215 108 c 128
 227 116 239 120 252 120 c 0
 270 120 286 114 299 102 c 128
 312 90 318 73 318 50 c 0
 318 25 313 2 303 -20 c 128
 293 -42 279 -61 263 -77 c 128
 247 -93 229 -106 211 -115 c 128
 193 -124 176 -129 161 -129 c 0
EndSplineSet
EndChar

StartChar: exclam
Encoding: 33 33 66
Width: 600
GlyphClass: 1
Flags: W
LayerCount: 2
Fore
SplineSet
300 205 m 0
 295 205 293 208 292 214 c 128
 291 220 291 229 294 244 c 0
 300 273 307 304 315 338 c 128
 323 372 330 404 338 436 c 128
 346 468 352 497 358 522 c 128
 364 547 368 564 371 574 c 0
 376 589 382 602 389 613 c 128
 396 624 404 634 412 640 c 128
 420 646 428 649 437 649 c 0
 446 649 454 645 459 638 c 128
 464 631 467 622 468 611 c 128
 469 600 467 587 462 574 c 0
 459 564 454 547 444 522 c 128
 434 497 422 468 409 436 c 128
 396 404 382 371 368 337 c 128
 354 303 341 272 330 244 c 0
 325 233 321 224 316 216 c 128
 311 208 305 205 300 205 c 0
241 -14 m 0
 227 -14 215 -9 206 2 c 128
 197 13 192 25 192 38 c 0
 192 57 199 73 213 86 c 128
 227 99 244 106 264 106 c 0
 278 106 290 101 299 90 c 128
 308 79 313 67 313 54 c 0
 313 35 306 19 292 6 c 128
 278 -7 260 -14 241 -14 c 0
EndSplineSet
EndChar

StartChar: question
Encoding: 63 63 67
Width: 600
GlyphClass: 1
Flags: W
LayerCount: 2
Fore
SplineSet
293 176 m 256
 291 176 287 181 280 191 c 128
 273 201 267 214 261 228 c 128
 255 242 253 255 253 268 c 0
 253 285 256 301 262 315 c 128
 268 329 280 343 298 357 c 128
 316 371 345 387 383 404 c 0
 408 416 430 432 450 452 c 128
 470 472 480 497 480 526 c 0
 480 549 473 567 458 579 c 128
 443 591 423 597 398 597 c 0
 389 597 382 596 377 594 c 128
 372 592 368 590 364 589 c 0
 358 587 353 585 349 583 c 128
 345 581 342 580 337 580 c 0
 330 580 323 582 319 587 c 128
 315 592 313 598 313 607 c 0
 313 620 319 633 333 644 c 128
 347 655 363 661 381 661 c 0
 408 661 431 654 450 639 c 128
 469 624 484 605 495 580 c 128
 506 555 511 527 511 496 c 0
 511 472 508 452 501 434 c 128
 494 416 485 400 473 388 c 128
 461 376 448 366 432 357 c 2
 344 312 l 2
 324 301 310 290 303 280 c 128
 296 270 293 257 293 241 c 0
 293 234 294 228 295 222 c 128
 296 216 298 209 299 204 c 0
 300 200 301 196 302 192 c 128
 303 188 304 185 304 182 c 0
 304 179 303 178 300 177 c 128
 297 176 295 176 293 176 c 256
277 -14 m 0
 265 -14 255 -10 247 0 c 128
 239 10 235 21 235 33 c 0
 235 50 241 65 253 77 c 128
 265 89 279 95 296 95 c 0
 309 95 319 90 327 80 c 128
 335 70 339 60 339 48 c 0
 339 31 333 16 321 4 c 128
 309 -8 294 -14 277 -14 c 0
EndSplineSet
EndChar

StartChar: asterisk
Encoding: 42 42 68
Width: 600
GlyphClass: 1
Flags: W
LayerCount: 2
Fore
SplineSet
344 378 m 0
 339 378 336 381 335 386 c 128
 334 391 334 397 335 404 c 0
 336 407 337 414 339 424 c 128
 341 434 344 443 347 454 c 128
 350 465 353 474 355 482 c 128
 358 494 358 493 358 493 c 1
 344 490 328 488 311 487 c 128
 294 486 278 485 261 484 c 0
 257 484 252 485 248 486 c 128
 244 487 242 490 242 494 c 0
 242 499 244 502 248 505 c 128
 252 508 257 509 261 510 c 0
 264 511 270 514 279 516 c 128
 288 518 298 521 309 524 c 128
 320 527 329 530 337 532 c 128
 349 535 349 535 349 535 c 1
 340 546 331 558 323 570 c 128
 315 582 306 594 296 609 c 0
 293 614 291 619 291 624 c 0
 291 629 292 632 293 634 c 128
 294 636 297 636 300 636 c 256
 303 636 307 635 311 632 c 128
 315 629 318 626 319 625 c 0
 332 613 343 602 353 592 c 128
 363 582 373 573 382 562 c 1
 387 575 392 588 398 602 c 128
 404 616 411 631 418 647 c 0
 420 651 422 654 425 658 c 128
 428 662 431 664 435 664 c 0
 440 664 443 662 444 658 c 128
 445 654 445 650 445 645 c 0
 445 643 444 636 441 624 c 128
 438 612 435 598 431 584 c 128
 427 570 424 558 421 549 c 1
 430 550 442 552 456 554 c 128
 470 556 484 556 496 557 c 128
 508 558 515 558 518 558 c 0
 522 558 526 556 530 554 c 128
 534 552 537 549 537 545 c 0
 537 540 534 537 530 535 c 128
 526 533 522 531 518 530 c 0
 503 527 488 522 474 518 c 128
 460 514 445 510 430 507 c 1
 439 496 447 486 455 475 c 128
 463 464 472 452 482 437 c 0
 483 435 485 432 487 428 c 128
 489 424 490 420 490 417 c 0
 490 412 489 410 487 408 c 128
 485 406 483 405 480 405 c 0
 477 405 473 406 469 409 c 128
 465 412 462 414 461 415 c 0
 450 428 438 440 427 450 c 128
 416 460 406 469 397 480 c 1
 392 467 387 454 381 440 c 128
 375 426 369 411 362 395 c 0
 360 391 357 388 354 384 c 128
 351 380 348 378 344 378 c 0
EndSplineSet
EndChar

StartChar: numbersign
Encoding: 35 35 69
Width: 600
GlyphClass: 1
Flags: W
LayerCount: 2
Fore
SplineSet
56 -88 m 0
 53 -88 52 -87 50 -84 c 128
 48 -81 47 -79 48 -76 c 2
 49 -73 l 1
 137 104 l 1
 77 101 l 2
 74 101 71 102 69 104 c 128
 67 106 66 110 67 113 c 256
 68 116 69 122 72 130 c 128
 75 138 79 144 84 151 c 128
 89 158 95 161 102 161 c 2
 167 164 l 1
 233 302 l 1
 172 299 l 2
 169 299 166 300 164 302 c 128
 162 304 160 308 161 311 c 256
 162 314 164 320 167 328 c 128
 170 336 174 342 179 349 c 128
 184 356 189 359 196 359 c 2
 265 362 l 1
 348 533 l 2
 351 540 358 545 367 547 c 128
 376 549 383 550 390 550 c 0
 393 550 395 548 395 546 c 128
 395 544 395 541 395 538 c 0
 395 537 395 537 394 536 c 128
 393 535 393 534 393 533 c 2
 311 364 l 1
 420 370 l 1
 505 544 l 2
 508 551 515 556 523 558 c 128
 531 560 538 561 545 561 c 0
 548 561 550 560 551 558 c 128
 552 556 552 552 551 549 c 0
 550 548 550 548 550 547 c 128
 550 546 550 545 549 544 c 2
 467 372 l 1
 523 375 l 2
 526 375 529 374 531 372 c 128
 533 370 534 367 533 364 c 0
 533 361 531 356 527 348 c 128
 523 340 518 333 512 326 c 128
 506 319 498 316 491 315 c 2
 437 312 l 1
 370 174 l 1
 429 177 l 2
 432 177 435 176 437 174 c 128
 439 172 440 168 439 165 c 0
 439 162 437 156 433 148 c 128
 429 140 423 134 417 128 c 128
 411 122 403 118 396 117 c 2
 341 114 l 1
 256 -62 l 2
 253 -69 249 -72 241 -74 c 128
 233 -76 226 -77 219 -77 c 0
 216 -77 214 -76 213 -73 c 128
 212 -70 211 -68 212 -65 c 2
 213 -62 l 1
 297 112 l 1
 184 106 l 1
 95 -73 l 2
 92 -80 86 -84 78 -86 c 128
 70 -88 63 -88 56 -88 c 0
213 166 m 1
 326 172 l 1
 391 310 l 1
 280 304 l 1
 213 166 l 1
EndSplineSet
EndChar

StartChar: slash
Encoding: 47 47 70
Width: 600
GlyphClass: 1
Flags: W
LayerCount: 2
Fore
SplineSet
117 -62 m 0
 114 -62 111 -60 108 -56 c 128
 105 -52 105 -50 107 -47 c 2
 509 648 l 2
 514 655 519 660 526 662 c 128
 533 664 541 665 550 665 c 0
 553 665 555 663 557 659 c 128
 559 655 559 651 557 648 c 2
 155 -47 l 2
 151 -54 146 -58 139 -60 c 128
 132 -62 125 -62 117 -62 c 0
EndSplineSet
EndChar

StartChar: backslash
Encoding: 92 92 71
Width: 600
GlyphClass: 1
Flags: W
LayerCount: 2
Fore
SplineSet
385 -68 m 0
 378 -67 372 -66 367 -63 c 128
 362 -60 358 -56 357 -50 c 2
 266 655 l 2
 265 660 267 665 271 668 c 128
 275 671 279 672 284 671 c 0
 291 670 298 669 304 666 c 128
 310 663 312 658 313 651 c 2
 406 -54 l 2
 407 -59 405 -64 400 -66 c 128
 395 -68 390 -69 385 -68 c 0
EndSplineSet
EndChar

StartChar: parenleft
Encoding: 40 40 72
Width: 600
GlyphClass: 1
Flags: W
LayerCount: 2
Fore
SplineSet
270 -216 m 0
 252 -216 238 -203 228 -177 c 0
 210 -130 197 -86 189 -46 c 128
 181 -6 178 33 178 72 c 0
 178 152 192 230 220 304 c 128
 248 378 288 448 339 514 c 128
 390 580 450 640 517 693 c 0
 527 701 537 705 546 705 c 0
 553 705 556 703 556 699 c 0
 556 696 555 694 553 690 c 128
 551 686 547 681 542 676 c 0
 503 635 466 592 431 546 c 128
 396 500 365 452 338 402 c 128
 311 352 289 302 273 249 c 128
 257 196 249 143 249 89 c 0
 249 51 249 17 250 -14 c 128
 251 -45 253 -75 257 -104 c 128
 261 -133 269 -163 279 -194 c 0
 281 -200 281 -206 279 -210 c 128
 277 -214 275 -216 270 -216 c 0
EndSplineSet
EndChar

StartChar: parenright
Encoding: 41 41 73
Width: 600
GlyphClass: 1
Flags: W
LayerCount: 2
Fore
SplineSet
363 708 m 0
 381 708 395 695 405 669 c 0
 423 622 435 578 443 538 c 128
 451 498 455 459 455 420 c 0
 455 341 440 264 412 189 c 128
 384 114 344 44 293 -22 c 128
 242 -88 183 -147 116 -201 c 0
 106 -209 96 -213 87 -213 c 0
 80 -213 77 -211 77 -207 c 0
 77 -204 78 -202 80 -198 c 128
 82 -194 86 -189 91 -184 c 0
 130 -143 166 -100 201 -54 c 128
 236 -8 268 40 295 90 c 128
 322 140 344 190 360 243 c 128
 376 296 384 349 384 403 c 0
 384 442 384 476 383 507 c 128
 382 538 380 567 376 596 c 128
 372 625 365 655 354 686 c 0
 352 692 351 698 353 702 c 128
 355 706 358 708 363 708 c 0
EndSplineSet
EndChar

StartChar: braceleft
Encoding: 123 123 74
Width: 600
GlyphClass: 1
Flags: W
LayerCount: 2
Fore
SplineSet
315 -154 m 0
 293 -154 272 -151 251 -146 c 128
 230 -141 213 -134 198 -123 c 128
 183 -112 172 -99 166 -82 c 128
 160 -65 161 -44 168 -21 c 256
 175 2 183 23 191 42 c 128
 199 61 206 80 214 98 c 128
 222 116 228 136 234 157 c 0
 243 186 242 211 231 230 c 128
 220 249 203 263 181 273 c 0
 179 274 178 275 176 276 c 128
 174 277 173 279 174 282 c 0
 175 285 177 287 179 287 c 128
 181 287 183 287 186 288 c 0
 205 295 222 303 239 314 c 128
 256 325 271 337 283 352 c 128
 295 367 304 385 310 404 c 0
 319 435 326 464 330 490 c 128
 334 516 341 547 352 582 c 0
 359 605 372 625 388 642 c 128
 404 659 423 673 445 684 c 128
 467 695 489 703 513 708 c 128
 537 713 559 715 581 715 c 0
 585 715 588 714 591 711 c 128
 594 708 594 705 593 700 c 0
 592 695 588 691 582 690 c 128
 576 689 570 688 565 688 c 0
 535 688 508 680 483 665 c 128
 458 650 440 624 429 587 c 0
 422 564 417 543 413 524 c 128
 409 505 405 488 402 470 c 128
 399 452 394 433 388 414 c 0
 378 381 359 353 332 330 c 128
 305 307 272 292 233 283 c 0
 230 282 230 280 233 279 c 0
 263 272 285 256 300 233 c 128
 315 210 317 181 307 147 c 0
 301 128 294 110 287 92 c 128
 280 74 273 55 265 36 c 128
 257 17 249 -3 242 -26 c 0
 231 -62 234 -88 249 -104 c 128
 264 -120 287 -127 316 -127 c 0
 321 -127 326 -128 331 -129 c 128
 336 -130 337 -134 336 -139 c 0
 335 -144 332 -147 328 -150 c 128
 324 -153 319 -154 315 -154 c 0
EndSplineSet
EndChar

StartChar: braceright
Encoding: 125 125 75
Width: 600
GlyphClass: 1
Flags: W
LayerCount: 2
Fore
SplineSet
336 716 m 0
 358 716 379 713 400 708 c 128
 421 703 439 696 454 685 c 128
 469 674 479 661 485 644 c 128
 491 627 490 606 483 583 c 0
 476 560 469 539 461 520 c 128
 453 501 445 482 438 464 c 128
 431 446 424 426 417 405 c 0
 408 376 410 352 421 333 c 128
 432 314 448 299 470 289 c 0
 472 288 474 287 476 286 c 128
 478 285 478 283 477 280 c 0
 476 277 475 276 473 276 c 128
 471 276 468 275 465 274 c 0
 446 267 429 259 412 248 c 128
 395 237 381 225 369 210 c 128
 357 195 347 177 341 158 c 0
 332 127 325 98 321 72 c 128
 317 46 310 15 299 -20 c 0
 292 -43 280 -63 264 -80 c 128
 248 -97 229 -111 207 -122 c 128
 185 -133 163 -141 139 -146 c 128
 115 -151 92 -153 70 -153 c 0
 66 -153 63 -152 60 -149 c 128
 57 -146 57 -143 58 -138 c 0
 59 -133 64 -129 70 -128 c 128
 76 -127 81 -126 86 -126 c 0
 116 -126 144 -118 169 -103 c 128
 194 -88 211 -62 222 -25 c 0
 229 -2 235 19 239 38 c 128
 243 57 246 74 249 92 c 128
 252 110 257 129 263 148 c 0
 273 181 292 209 319 232 c 128
 346 255 379 270 418 279 c 0
 421 280 421 282 418 283 c 0
 388 290 366 306 351 329 c 128
 336 352 334 381 344 415 c 0
 350 434 357 452 364 470 c 128
 371 488 379 507 387 526 c 128
 395 545 402 565 409 588 c 0
 420 624 419 650 403 666 c 128
 387 682 364 689 335 689 c 0
 330 689 326 690 321 691 c 128
 316 692 314 696 315 701 c 0
 316 706 320 709 324 712 c 128
 328 715 332 716 336 716 c 0
EndSplineSet
EndChar

StartChar: bracketleft
Encoding: 91 91 76
Width: 600
GlyphClass: 1
Flags: W
LayerCount: 2
Fore
SplineSet
141 -200 m 2
 134 -200 128 -200 124 -198 c 128
 120 -196 118 -192 118 -188 c 128
 118 -184 119 -178 122 -170 c 2
 370 640 l 2
 373 648 375 656 377 666 c 128
 379 676 382 685 387 692 c 128
 392 699 400 702 410 702 c 2
 576 701 l 2
 580 701 583 700 586 698 c 128
 589 696 590 693 590 690 c 0
 590 683 586 679 579 677 c 128
 572 675 565 674 560 674 c 0
 545 674 532 674 520 674 c 128
 508 674 494 673 479 673 c 0
 472 673 466 670 460 664 c 128
 454 658 451 651 448 644 c 0
 440 619 429 587 416 546 c 128
 403 505 388 460 372 410 c 128
 356 360 340 309 323 256 c 128
 306 203 290 150 275 100 c 128
 260 50 246 4 233 -38 c 128
 220 -80 210 -115 203 -142 c 0
 200 -153 200 -159 203 -162 c 128
 206 -165 212 -167 222 -167 c 0
 231 -167 239 -168 245 -168 c 128
 251 -168 258 -168 266 -169 c 128
 274 -170 285 -171 299 -172 c 0
 304 -173 309 -174 313 -175 c 128
 317 -176 320 -180 320 -185 c 0
 320 -190 317 -193 310 -196 c 128
 303 -199 297 -200 292 -200 c 2
 141 -200 l 2
EndSplineSet
EndChar

StartChar: bracketright
Encoding: 93 93 77
Width: 600
GlyphClass: 1
Flags: W
LayerCount: 2
Fore
SplineSet
492 702 m 2
 500 702 506 702 510 700 c 128
 514 698 516 695 516 691 c 128
 516 687 514 681 511 672 c 2
 263 -138 l 2
 261 -145 259 -154 257 -164 c 128
 255 -174 251 -183 246 -190 c 128
 241 -197 233 -200 223 -200 c 2
 57 -199 l 2
 53 -199 50 -198 47 -196 c 128
 44 -194 43 -191 43 -188 c 0
 43 -181 47 -177 54 -175 c 128
 61 -173 68 -172 73 -172 c 0
 88 -172 102 -172 114 -172 c 128
 126 -172 139 -171 154 -171 c 0
 161 -171 168 -168 173 -162 c 128
 178 -156 182 -149 185 -142 c 0
 194 -117 205 -84 218 -44 c 128
 231 -4 245 42 261 92 c 128
 277 142 293 193 310 246 c 128
 327 299 343 352 358 402 c 128
 373 452 387 498 400 540 c 128
 413 582 423 617 430 644 c 0
 433 655 434 662 431 665 c 128
 428 668 421 669 411 669 c 0
 402 669 395 670 389 670 c 128
 383 670 376 671 368 672 c 128
 360 673 349 673 334 674 c 0
 329 675 324 676 320 678 c 128
 316 680 313 682 313 687 c 0
 313 692 317 696 324 698 c 128
 331 700 336 702 341 702 c 2
 492 702 l 2
EndSplineSet
EndChar

StartChar: hyphenminus
Encoding: 45 45 78
Width: 600
GlyphClass: 1
Flags: W
LayerCount: 2
Fore
SplineSet
64 222 m 2
 61 222 57 223 54 226 c 128
 51 229 50 231 50 234 c 0
 50 237 51 242 52 250 c 128
 53 258 54 265 58 272 c 128
 62 279 67 282 74 282 c 2
 537 282 l 2
 540 282 543 280 546 278 c 128
 549 276 550 273 550 270 c 0
 550 259 548 249 542 238 c 128
 536 227 528 222 519 222 c 2
 64 222 l 2
EndSplineSet
Substitution2: "'ss01' Original glyphs-1" hyphenminus.ss01
EndChar

StartChar: underscore
Encoding: 95 95 79
Width: 600
GlyphClass: 1
Flags: W
LayerCount: 2
Fore
SplineSet
418 -132 m 2
 421 -132 424 -133 426 -136 c 128
 428 -139 427 -143 425 -146 c 0
 420 -155 414 -162 408 -170 c 128
 402 -178 395 -182 386 -182 c 2
 -38 -182 l 2
 -41 -182 -43 -181 -45 -178 c 128
 -47 -175 -48 -173 -47 -170 c 0
 -46 -167 -43 -162 -40 -156 c 128
 -37 -150 -33 -145 -28 -140 c 128
 -23 -135 -18 -132 -13 -132 c 2
 418 -132 l 2
EndSplineSet
EndChar

StartChar: quotesingle
Encoding: 39 39 81
Width: 600
GlyphClass: 1
Flags: W
LayerCount: 2
Fore
SplineSet
351 444 m 256
 348 444 347 447 348 452 c 128
 349 457 351 462 352 467 c 0
 355 476 358 484 360 492 c 128
 362 500 365 508 368 515 c 0
 373 531 378 548 382 564 c 128
 386 580 391 598 396 619 c 0
 397 626 401 633 407 640 c 128
 413 647 419 652 424 655 c 0
 433 661 442 666 449 670 c 128
 456 674 464 676 471 676 c 256
 478 676 480 670 477 658 c 128
 474 646 471 635 466 624 c 0
 459 607 451 591 443 576 c 128
 435 561 427 547 419 534 c 128
 411 521 404 510 397 499 c 128
 390 488 383 478 377 469 c 0
 373 463 368 457 363 452 c 128
 358 447 354 444 351 444 c 256
EndSplineSet
EndChar

StartChar: dollar
Encoding: 36 36 83
Width: 600
GlyphClass: 1
Flags: W
LayerCount: 2
Fore
SplineSet
249 -15 m 0
 232 -15 213 -13 195 -10 c 128
 177 -7 159 -3 142 4 c 0
 133 7 126 10 120 12 c 128
 114 14 110 16 107 16 c 0
 104 16 100 15 96 14 c 128
 92 13 89 11 86 10 c 0
 81 7 77 5 74 3 c 128
 71 1 68 0 65 0 c 256
 62 0 58 2 53 6 c 128
 48 10 45 15 45 19 c 256
 45 23 48 32 54 46 c 128
 60 60 67 78 75 100 c 128
 83 122 89 145 93 171 c 0
 94 178 96 183 98 186 c 128
 100 189 105 191 110 191 c 256
 115 191 119 188 120 182 c 128
 121 176 122 165 122 152 c 0
 122 127 126 103 135 82 c 128
 144 61 157 45 175 33 c 128
 193 21 217 15 246 15 c 0
 276 15 302 22 325 34 c 128
 348 46 366 63 379 84 c 128
 392 105 399 128 399 153 c 0
 399 170 397 186 392 200 c 128
 387 214 379 230 367 245 c 128
 355 260 338 278 316 298 c 0
 285 325 260 353 240 380 c 128
 220 407 211 441 211 482 c 0
 211 517 220 549 239 576 c 128
 258 603 284 624 317 640 c 128
 350 656 387 664 428 664 c 0
 439 664 451 662 463 660 c 128
 475 658 488 655 500 652 c 0
 513 648 524 644 534 640 c 128
 544 636 551 635 556 635 c 0
 564 635 571 637 576 640 c 0
 579 641 581 643 584 644 c 128
 587 645 590 645 593 645 c 0
 598 645 601 643 603 639 c 128
 605 635 606 632 606 629 c 0
 606 628 603 624 599 616 c 128
 595 608 589 596 583 578 c 128
 577 560 571 533 566 498 c 0
 565 488 562 480 558 474 c 128
 554 468 552 466 550 466 c 0
 545 466 541 469 539 474 c 128
 537 479 537 485 537 492 c 0
 537 539 525 574 503 598 c 128
 481 622 452 635 416 635 c 0
 391 635 369 629 349 616 c 128
 329 603 314 586 303 566 c 128
 292 546 286 526 286 506 c 0
 286 489 289 472 295 456 c 128
 301 440 312 424 326 408 c 128
 340 392 360 373 383 352 c 0
 418 321 444 293 460 266 c 128
 476 239 485 212 485 184 c 0
 485 147 476 114 458 84 c 128
 440 54 413 30 378 12 c 128
 343 -6 300 -15 249 -15 c 0
153 -95 m 0
 149 -95 146 -93 144 -90 c 128
 142 -87 142 -84 143 -80 c 2
 476 712 l 2
 479 719 484 724 490 726 c 128
 496 728 502 729 508 729 c 0
 511 729 514 728 515 724 c 128
 516 720 516 716 515 712 c 2
 181 -80 l 2
 179 -85 175 -90 169 -92 c 128
 163 -94 158 -95 153 -95 c 0
EndSplineSet
EndChar

StartChar: plus
Encoding: 43 43 84
Width: 600
GlyphClass: 1
Flags: W
LayerCount: 2
Fore
SplineSet
287 -8 m 0
 284 -8 282 -7 279 -4 c 128
 276 -1 275 3 275 6 c 2
 275 217 l 2
 275 220 274 222 271 222 c 2
 69 222 l 2
 66 222 63 223 60 226 c 128
 57 229 55 231 55 234 c 0
 55 237 56 242 58 248 c 128
 60 254 62 259 65 264 c 128
 68 269 73 272 79 272 c 2
 268 272 l 2
 271 272 273 273 274 274 c 128
 275 275 275 277 275 280 c 2
 275 451 l 2
 275 458 278 464 285 469 c 128
 292 474 299 477 307 479 c 128
 315 481 319 482 321 482 c 0
 324 482 328 481 331 478 c 128
 334 475 335 472 335 469 c 2
 335 278 l 2
 335 275 335 272 336 272 c 128
 337 272 338 272 339 272 c 2
 542 272 l 2
 545 272 549 271 552 268 c 128
 555 265 556 261 555 258 c 0
 552 249 549 242 545 234 c 128
 541 226 533 222 524 222 c 2
 339 222 l 2
 336 222 335 221 335 218 c 2
 335 16 l 2
 335 9 332 4 325 0 c 128
 318 -4 312 -5 304 -6 c 128
 296 -7 290 -8 287 -8 c 0
EndSplineSet
EndChar

StartChar: equal
Encoding: 61 61 85
Width: 600
GlyphClass: 1
Flags: W
LayerCount: 2
Fore
SplineSet
86 314 m 2
 83 314 80 315 77 318 c 128
 74 321 72 323 72 326 c 0
 72 329 73 334 74 340 c 128
 75 346 78 351 82 356 c 128
 86 361 90 364 96 364 c 2
 549 364 l 2
 552 364 556 363 559 361 c 128
 562 359 563 356 563 353 c 0
 563 346 560 338 553 328 c 128
 546 318 539 314 531 314 c 2
 86 314 l 2
86 143 m 2
 83 143 80 144 77 147 c 128
 74 150 72 152 72 155 c 0
 72 158 73 163 74 169 c 128
 75 175 78 181 82 186 c 128
 86 191 90 193 96 193 c 2
 549 193 l 2
 552 193 556 192 559 190 c 128
 562 188 563 185 563 182 c 0
 563 173 560 165 553 156 c 128
 546 147 539 143 531 143 c 2
 86 143 l 2
EndSplineSet
EndChar

StartChar: greater
Encoding: 62 62 86
Width: 600
GlyphClass: 1
Flags: W
LayerCount: 2
Fore
SplineSet
85 -2 m 2
 78 -5 73 -5 68 -3 c 128
 63 -1 61 4 61 13 c 0
 61 19 64 26 69 35 c 128
 74 44 82 50 92 55 c 2
 465 229 l 2
 466 230 466 231 466 232 c 128
 466 233 465 233 464 234 c 2
 84 408 l 2
 75 413 68 421 65 432 c 128
 62 443 60 451 60 456 c 0
 60 459 61 461 63 464 c 128
 65 467 68 469 71 469 c 0
 72 469 72 468 72 468 c 128
 72 468 73 468 74 468 c 2
 503 268 l 2
 512 264 521 259 530 254 c 128
 539 249 544 244 544 241 c 0
 544 236 541 229 535 218 c 128
 529 207 521 200 511 195 c 2
 85 -2 l 2
EndSplineSet
EndChar

StartChar: less
Encoding: 60 60 87
Width: 600
GlyphClass: 1
Flags: W
LayerCount: 2
Fore
SplineSet
525 -4 m 2
 99 195 l 2
 90 199 81 204 72 210 c 128
 63 216 58 219 58 222 c 0
 58 227 61 234 67 245 c 128
 73 256 81 263 91 268 c 2
 521 466 l 2
 526 469 532 470 536 468 c 128
 540 466 542 461 542 454 c 0
 542 445 540 437 534 428 c 128
 528 419 520 413 510 408 c 2
 137 234 l 2
 136 233 136 233 136 232 c 128
 136 231 137 230 138 229 c 2
 518 55 l 2
 527 50 534 43 537 33 c 128
 540 23 542 16 542 11 c 0
 542 6 540 2 536 -1 c 128
 532 -4 528 -5 525 -4 c 2
EndSplineSet
EndChar

StartChar: asciitilde
Encoding: 126 126 88
Width: 600
GlyphClass: 1
Flags: W
LayerCount: 2
Fore
SplineSet
151 258 m 0
 148 255 145 257 141 263 c 128
 137 269 135 273 136 276 c 0
 141 286 149 297 158 309 c 128
 167 321 177 333 189 344 c 128
 201 355 214 363 226 370 c 128
 238 377 250 381 261 381 c 0
 274 381 288 378 302 372 c 128
 316 366 329 360 344 353 c 0
 356 348 369 343 382 339 c 128
 395 335 408 333 423 333 c 0
 437 333 450 336 461 341 c 128
 472 346 481 352 490 359 c 0
 498 365 505 370 511 375 c 128
 517 380 521 382 526 382 c 0
 529 382 531 379 534 374 c 128
 537 369 537 365 536 362 c 0
 533 355 527 346 518 335 c 128
 509 324 499 312 487 301 c 128
 475 290 462 280 449 272 c 128
 436 264 423 260 411 260 c 0
 400 260 387 263 374 268 c 128
 361 273 347 278 333 283 c 0
 318 289 303 295 288 300 c 128
 273 305 258 308 244 308 c 0
 237 308 227 306 214 300 c 128
 201 294 189 287 177 279 c 128
 165 271 156 264 151 258 c 0
EndSplineSet
EndChar

StartChar: asciicircum
Encoding: 94 94 89
Width: 600
GlyphClass: 1
Flags: W
LayerCount: 2
Fore
SplineSet
136 284 m 0
 133 284 132 286 130 288 c 128
 128 290 127 292 127 295 c 0
 127 299 128 302 130 305 c 2
 327 603 l 1
 330 603 l 1
 528 305 l 2
 531 301 532 297 531 292 c 128
 530 287 527 284 522 284 c 0
 515 284 507 286 499 290 c 128
 491 294 484 297 481 302 c 2
 333 514 l 2
 330 517 329 519 328 519 c 128
 327 519 325 517 323 514 c 2
 177 303 l 2
 173 297 167 292 158 289 c 128
 149 286 142 284 136 284 c 0
EndSplineSet
EndChar

StartChar: percent
Encoding: 37 37 90
Width: 600
GlyphClass: 1
Flags: W
LayerCount: 2
Fore
SplineSet
409 -17 m 0
 386 -17 367 -9 354 8 c 128
 341 25 334 49 333 78 c 128
 332 107 336 139 347 175 c 0
 355 201 368 226 385 251 c 128
 402 276 421 296 444 312 c 128
 467 328 490 335 515 335 c 0
 539 335 556 326 568 310 c 128
 580 294 586 272 588 245 c 128
 590 218 585 187 574 153 c 0
 565 124 553 97 537 71 c 128
 521 45 501 24 479 8 c 128
 457 -8 434 -17 409 -17 c 0
415 8 m 0
 430 8 445 16 457 31 c 128
 469 46 479 66 488 88 c 128
 497 110 505 132 512 153 c 0
 518 171 521 190 526 208 c 128
 531 226 533 243 534 258 c 128
 535 273 532 285 528 294 c 128
 524 303 515 308 504 308 c 0
 490 308 477 300 465 286 c 128
 453 272 442 254 432 233 c 128
 422 212 414 190 408 169 c 0
 402 150 398 131 393 112 c 128
 388 93 386 76 385 60 c 128
 384 44 386 32 390 22 c 128
 394 12 403 8 415 8 c 0
56 -26 m 0
 51 -26 46 -23 44 -18 c 128
 42 -13 42 -9 45 -5 c 2
 606 654 l 2
 612 661 618 665 624 667 c 128
 630 669 636 670 643 670 c 0
 651 670 657 668 658 663 c 128
 659 658 658 654 655 650 c 2
 94 -8 l 2
 89 -15 83 -20 76 -22 c 128
 69 -24 63 -26 56 -26 c 0
163 263 m 0
 140 263 122 271 109 288 c 128
 96 305 89 329 88 358 c 128
 87 387 91 419 102 455 c 0
 110 481 122 506 139 531 c 128
 156 556 175 576 198 592 c 128
 221 608 244 615 269 615 c 0
 293 615 311 606 323 590 c 128
 335 574 341 552 343 525 c 128
 345 498 340 467 329 433 c 0
 320 404 308 377 292 351 c 128
 276 325 256 304 234 288 c 128
 212 272 188 263 163 263 c 0
170 288 m 0
 185 288 199 296 211 311 c 128
 223 326 234 346 243 368 c 128
 252 390 259 412 266 433 c 0
 272 451 276 470 281 488 c 128
 286 506 288 523 289 538 c 128
 290 553 287 565 283 574 c 128
 279 583 270 588 259 588 c 0
 245 588 231 580 219 566 c 128
 207 552 197 534 187 513 c 128
 177 492 170 470 163 449 c 0
 157 430 152 411 147 392 c 128
 142 373 140 356 139 340 c 128
 138 324 140 312 144 302 c 128
 148 292 158 288 170 288 c 0
EndSplineSet
EndChar

StartChar: at
Encoding: 64 64 91
Width: 600
GlyphClass: 1
Flags: W
LayerCount: 2
Fore
SplineSet
226 -143 m 0
 179 -143 140 -132 109 -112 c 128
 78 -92 56 -64 42 -29 c 128
 28 6 23 46 26 90 c 0
 29 131 36 173 51 214 c 128
 66 255 84 293 108 330 c 128
 132 367 160 399 191 427 c 128
 222 455 257 477 294 493 c 128
 331 509 370 517 410 517 c 0
 442 517 471 511 495 498 c 128
 519 485 540 468 556 447 c 128
 572 426 584 402 592 376 c 128
 600 350 603 324 601 297 c 0
 599 266 592 234 579 202 c 128
 566 170 550 142 530 116 c 128
 510 90 486 69 459 53 c 128
 432 37 404 29 374 29 c 0
 363 29 354 32 349 38 c 128
 344 44 342 52 340 60 c 128
 338 68 339 75 339 82 c 0
 340 88 339 90 337 90 c 128
 335 90 331 88 327 85 c 0
 323 81 316 75 306 68 c 128
 296 61 285 54 272 48 c 128
 259 42 246 38 231 38 c 0
 204 38 183 48 171 68 c 128
 159 88 153 111 155 139 c 0
 157 166 166 193 178 220 c 128
 190 247 208 272 229 294 c 128
 250 316 274 334 302 347 c 128
 330 360 362 367 395 367 c 0
 403 366 410 365 418 364 c 128
 426 363 432 360 439 357 c 0
 445 356 448 354 451 353 c 128
 454 352 456 351 458 351 c 0
 463 350 467 353 471 360 c 128
 475 367 481 371 485 371 c 0
 486 371 488 371 492 370 c 128
 496 369 498 368 500 366 c 128
 502 364 504 363 503 362 c 0
 495 349 487 335 480 321 c 128
 473 307 468 296 464 287 c 2
 395 133 l 2
 389 121 387 110 386 98 c 128
 385 86 392 80 404 80 c 0
 431 80 454 90 477 111 c 128
 499 132 517 158 531 191 c 128
 545 224 552 257 555 291 c 0
 557 324 553 354 542 382 c 128
 531 410 512 432 487 448 c 128
 462 464 429 473 390 473 c 0
 356 473 323 464 287 445 c 128
 251 426 217 400 187 367 c 128
 157 334 132 296 111 252 c 128
 90 208 79 161 75 110 c 0
 71 63 78 25 90 -6 c 128
 102 -37 123 -59 150 -74 c 128
 177 -89 209 -97 247 -97 c 0
 283 -97 317 -91 348 -78 c 128
 379 -65 408 -48 434 -25 c 0
 438 -21 442 -18 447 -16 c 128
 452 -14 455 -13 458 -13 c 0
 462 -13 464 -14 465 -16 c 128
 466 -18 467 -22 466 -27 c 0
 464 -34 457 -43 443 -56 c 128
 429 -69 411 -82 388 -95 c 128
 365 -108 339 -120 311 -129 c 128
 283 -138 255 -143 226 -143 c 0
261 79 m 0
 270 79 279 81 288 86 c 128
 297 91 306 97 315 104 c 0
 321 108 327 113 332 120 c 128
 337 127 344 138 351 153 c 2
 401 265 l 2
 404 272 406 278 408 284 c 128
 410 290 411 295 412 300 c 0
 412 311 409 319 402 324 c 128
 395 329 382 332 364 332 c 0
 344 332 325 326 308 315 c 128
 291 304 276 290 263 272 c 128
 250 254 240 235 232 214 c 128
 224 193 221 173 219 154 c 0
 217 133 220 114 228 100 c 128
 236 86 246 79 261 79 c 0
EndSplineSet
EndChar

StartChar: ampersand
Encoding: 38 38 92
Width: 600
GlyphClass: 1
Flags: W
LayerCount: 2
Fore
SplineSet
297 -15 m 0
 251 -15 212 -4 179 18 c 128
 146 40 121 72 104 112 c 128
 87 152 82 197 86 249 c 0
 90 298 99 341 116 379 c 128
 133 417 153 448 178 470 c 128
 203 492 228 503 256 502 c 0
 282 501 302 493 314 477 c 128
 326 461 331 441 329 416 c 0
 328 399 323 384 316 370 c 128
 309 356 298 346 286 338 c 128
 274 330 261 326 247 326 c 0
 225 326 206 335 190 352 c 128
 174 369 163 393 156 424 c 128
 149 455 147 491 151 532 c 0
 154 567 163 599 179 627 c 128
 195 655 215 677 238 694 c 128
 261 711 285 719 311 718 c 0
 334 717 352 709 364 693 c 128
 376 677 379 655 377 628 c 0
 375 613 372 601 365 592 c 128
 358 583 350 578 340 578 c 0
 334 578 329 582 324 589 c 128
 319 596 318 604 318 611 c 0
 319 624 318 634 312 642 c 128
 306 650 300 655 291 655 c 0
 274 655 258 650 244 639 c 128
 230 628 218 614 208 594 c 128
 198 574 193 551 191 525 c 0
 181 420 201 367 249 367 c 0
 262 367 273 372 282 382 c 128
 291 392 295 404 297 419 c 0
 298 432 295 443 287 452 c 128
 279 461 267 466 252 466 c 0
 220 466 194 450 173 418 c 128
 152 386 139 346 135 296 c 0
 132 259 135 224 146 191 c 128
 157 158 177 132 206 112 c 128
 235 92 273 82 324 82 c 0
 368 82 407 94 439 116 c 128
 471 138 496 167 514 204 c 128
 532 241 542 280 546 321 c 0
 549 358 545 389 534 414 c 128
 523 439 500 451 467 450 c 0
 451 450 437 444 426 430 c 128
 415 416 409 399 407 380 c 0
 406 367 407 356 411 347 c 128
 415 338 424 333 434 333 c 0
 439 333 443 336 446 340 c 128
 449 344 452 348 455 353 c 0
 459 358 461 363 465 368 c 128
 469 373 473 376 479 376 c 0
 491 376 499 372 504 364 c 128
 509 356 510 345 508 333 c 0
 507 316 501 300 491 288 c 128
 481 276 470 270 457 270 c 0
 431 270 410 280 395 300 c 128
 380 320 375 346 378 379 c 0
 380 408 388 434 401 456 c 128
 414 478 429 494 448 506 c 128
 467 518 488 525 510 525 c 2
 571 526 l 2
 607 527 634 536 652 552 c 128
 670 568 681 593 684 628 c 0
 686 646 684 660 677 671 c 128
 670 682 662 687 651 687 c 0
 646 687 642 686 639 682 c 128
 636 678 634 674 633 669 c 256
 632 664 633 660 635 656 c 128
 637 652 639 649 642 647 c 256
 645 645 649 641 650 636 c 128
 651 631 652 626 651 621 c 0
 650 610 646 601 640 593 c 128
 634 585 625 581 615 581 c 0
 603 581 594 587 587 598 c 128
 580 609 579 623 581 639 c 0
 582 653 585 666 592 678 c 128
 599 690 608 699 619 706 c 128
 630 713 642 717 655 717 c 0
 674 717 690 707 701 687 c 128
 712 667 715 639 712 602 c 0
 710 573 702 546 690 523 c 128
 678 500 662 481 643 468 c 128
 624 455 602 449 578 448 c 0
 571 448 566 446 564 444 c 128
 562 442 563 439 565 435 c 0
 572 415 575 395 577 374 c 128
 578 353 577 328 575 301 c 0
 569 238 555 184 529 136 c 128
 503 88 470 50 430 24 c 128
 390 -2 346 -15 297 -15 c 0
EndSplineSet
EndChar

StartChar: bar
Encoding: 124 124 93
Width: 600
GlyphClass: 1
Flags: W
LayerCount: 2
Fore
SplineSet
284 -289 m 0
 281 -289 279 -287 276 -284 c 128
 273 -281 272 -278 272 -275 c 2
 272 676 l 2
 272 681 274 686 278 690 c 128
 282 694 287 698 293 700 c 128
 299 702 304 704 309 705 c 128
 314 706 317 707 318 707 c 0
 321 707 325 706 328 703 c 128
 331 700 332 697 332 694 c 2
 332 -265 l 2
 332 -270 330 -275 326 -278 c 128
 322 -281 318 -282 312 -284 c 128
 306 -286 300 -287 295 -288 c 128
 290 -289 286 -289 284 -289 c 0
EndSplineSet
EndChar

StartChar: grave
Encoding: 96 96 94
Width: 600
GlyphClass: 1
Flags: W
LayerCount: 2
Fore
SplineSet
472 475 m 0
 468 475 464 477 460 480 c 128
 456 483 452 486 449 490 c 2
 357 598 l 2
 351 605 347 611 344 616 c 128
 341 621 339 625 339 628 c 0
 339 633 342 639 347 644 c 128
 352 649 358 654 364 658 c 128
 370 662 375 664 378 664 c 0
 383 664 388 661 392 656 c 128
 396 651 400 646 403 639 c 2
 478 495 l 2
 481 490 482 486 481 482 c 128
 480 478 477 475 472 475 c 0
EndSplineSet
EndChar

StartChar: hyphenminus.ss01
Encoding: 65536 -1 95
Width: 600
Flags: W
LayerCount: 2
Fore
SplineSet
205 170 m 0
 202 169 200 171 198 174 c 128
 196 177 194 181 194 184 c 0
 194 195 198 206 206 215 c 128
 214 224 221 229 226 230 c 0
 257 234 288 238 318 242 c 128
 348 246 378 251 409 255 c 0
 412 256 415 255 416 254 c 128
 417 253 417 250 417 247 c 0
 417 240 415 232 412 224 c 128
 409 216 404 210 399 205 c 128
 394 200 388 196 381 195 c 0
 352 191 322 186 293 182 c 128
 264 178 234 174 205 170 c 0
EndSplineSet
EndChar

StartChar: zero.ss01
Encoding: 65537 -1 96
Width: 600
Flags: W
LayerCount: 2
Fore
SplineSet
246 -14 m 0
 215 -14 190 -5 172 14 c 128
 154 33 143 57 137 88 c 128
 131 119 130 154 134 191 c 128
 138 228 146 265 157 302 c 0
 168 340 184 378 203 417 c 128
 222 456 245 491 270 523 c 128
 295 555 323 580 354 600 c 128
 385 620 417 630 452 630 c 0
 483 630 507 621 525 602 c 128
 543 583 555 559 561 528 c 128
 567 497 568 463 564 426 c 128
 560 389 553 352 542 316 c 0
 531 279 515 241 496 202 c 128
 477 163 454 128 428 95 c 128
 402 62 375 36 344 16 c 128
 313 -4 281 -14 246 -14 c 0
252 12 m 256
 271 12 289 20 309 36 c 128
 329 52 348 72 367 99 c 128
 386 126 403 156 419 190 c 128
 435 224 450 261 461 298 c 0
 472 335 481 371 487 407 c 128
 493 443 496 476 495 506 c 128
 494 536 490 558 481 576 c 128
 472 594 458 603 439 603 c 0
 414 603 390 590 365 564 c 128
 340 538 317 503 295 460 c 128
 273 417 255 370 240 320 c 0
 229 284 220 248 213 212 c 128
 206 176 203 142 202 112 c 128
 201 82 204 58 212 40 c 128
 220 22 233 12 252 12 c 256
EndSplineSet
EndChar

StartChar: h.ss01
Encoding: 65538 -1 97
Width: 600
Flags: W
LayerCount: 2
Fore
SplineSet
112 -18 m 0
 109 -18 106 -17 103 -14 c 128
 100 -11 98 -8 97 -4 c 128
 96 0 95 4 95 8 c 0
 95 18 97 28 99 38 c 128
 101 48 104 60 108 75 c 2
 249 558 l 2
 252 569 256 582 259 596 c 128
 262 610 264 619 264 626 c 256
 264 633 260 638 252 641 c 128
 244 644 235 647 227 650 c 0
 222 651 219 652 215 654 c 128
 211 656 209 658 209 661 c 256
 209 664 210 666 212 668 c 128
 214 670 219 673 226 676 c 0
 231 678 239 681 249 684 c 128
 259 687 269 690 280 694 c 128
 291 698 301 702 310 704 c 128
 319 706 325 707 328 707 c 256
 331 707 335 707 339 706 c 128
 343 705 345 702 345 697 c 256
 345 692 345 687 344 683 c 128
 343 679 341 675 340 670 c 2
 204 200 l 2
 203 195 203 193 205 193 c 128
 207 193 208 194 210 197 c 0
 239 240 270 278 301 312 c 128
 332 346 362 373 390 392 c 128
 418 411 442 421 462 421 c 0
 484 421 501 414 513 399 c 128
 525 384 530 367 530 348 c 0
 530 314 524 278 512 240 c 128
 500 202 483 166 463 131 c 128
 443 96 421 67 398 42 c 0
 394 38 388 32 380 26 c 128
 372 20 363 14 352 8 c 128
 341 2 331 -4 320 -8 c 128
 309 -12 298 -14 289 -14 c 0
 284 -14 279 -12 273 -8 c 128
 267 -4 261 1 257 7 c 128
 253 13 250 18 250 23 c 0
 250 26 251 30 254 35 c 128
 257 40 260 44 264 47 c 128
 268 50 272 52 276 52 c 0
 282 52 288 50 292 48 c 128
 296 46 300 43 303 40 c 0
 307 37 311 34 315 31 c 128
 319 28 324 27 329 27 c 0
 340 27 352 34 365 47 c 128
 378 60 390 78 402 100 c 128
 414 122 424 146 433 172 c 128
 442 198 450 225 456 252 c 128
 462 279 464 303 464 326 c 0
 464 341 461 354 455 362 c 128
 449 370 439 374 426 374 c 0
 411 374 395 366 377 352 c 128
 359 338 340 319 320 296 c 128
 300 273 281 248 262 221 c 128
 243 194 226 168 211 143 c 128
 196 118 183 96 174 78 c 0
 149 30 149 30 137 6 c 128
 129 -10 120 -18 112 -18 c 0
EndSplineSet
EndChar

StartChar: exclamdown
Encoding: 161 161 99
Width: 600
Flags: W
LayerCount: 2
Fore
SplineSet
325 275 m 0
 330 275 333 272 334 266 c 128
 335 260 334 251 331 236 c 0
 325 207 318 176 310 142 c 128
 302 108 296 76 288 44 c 128
 280 12 273 -17 267 -42 c 128
 261 -67 257 -84 254 -94 c 0
 250 -109 244 -122 237 -133 c 128
 230 -144 222 -154 214 -160 c 128
 206 -166 197 -169 188 -169 c 256
 179 -169 172 -165 167 -158 c 128
 162 -151 159 -142 158 -130 c 128
 157 -118 159 -107 163 -94 c 0
 166 -84 173 -67 182 -42 c 128
 191 -17 203 12 216 44 c 128
 229 76 243 109 257 143 c 128
 271 177 284 208 295 236 c 0
 300 247 305 257 310 264 c 128
 315 271 320 275 325 275 c 0
384 494 m 0
 398 494 410 489 419 478 c 128
 428 467 433 455 433 442 c 0
 433 423 426 407 412 394 c 128
 398 381 381 374 361 374 c 0
 347 374 335 379 326 390 c 128
 317 401 312 413 312 426 c 0
 312 445 320 461 334 474 c 128
 348 487 365 494 384 494 c 0
EndSplineSet
EndChar

StartChar: cent
Encoding: 162 162 100
Width: 600
Flags: W
LayerCount: 2
Fore
SplineSet
220 -80 m 256
 215 -80 212 -79 210 -76 c 128
 208 -73 207 -70 209 -65 c 2
 232 -12 l 1
 197 -1 170 17 152 42 c 128
 134 67 125 95 125 128 c 0
 125 159 132 191 146 224 c 128
 160 257 178 288 203 316 c 128
 228 344 257 368 292 386 c 128
 327 404 365 412 407 412 c 1
 427 462 l 2
 429 467 434 471 440 474 c 128
 446 477 452 479 457 479 c 0
 461 479 463 478 464 474 c 128
 465 470 465 466 464 462 c 2
 444 413 l 1
 459 412 475 410 490 404 c 128
 505 398 516 391 526 382 c 128
 536 373 540 363 537 353 c 0
 536 348 533 343 527 338 c 128
 521 333 514 328 507 324 c 128
 500 320 494 319 489 319 c 256
 484 319 480 320 477 322 c 128
 474 324 472 326 471 329 c 0
 468 342 464 352 458 361 c 128
 452 370 442 376 430 379 c 1
 293 46 l 1
 296 45 298 45 300 45 c 128
 304 45 304 45 308 45 c 0
 329 45 351 47 374 52 c 128
 397 57 417 69 436 88 c 0
 439 91 443 93 447 93 c 256
 451 93 454 91 456 88 c 128
 458 85 457 81 454 77 c 0
 426 46 398 24 368 10 c 128
 338 -4 305 -13 268 -14 c 1
 247 -65 l 2
 245 -70 242 -73 236 -76 c 128
 230 -79 225 -80 220 -80 c 256
258 53 m 1
 395 384 l 1
 369 384 345 377 322 364 c 128
 299 351 278 333 260 311 c 128
 242 289 226 264 216 236 c 128
 206 208 201 181 201 153 c 0
 201 130 205 110 214 92 c 128
 223 74 238 61 258 53 c 1
EndSplineSet
EndChar

StartChar: sterling
Encoding: 163 163 101
Width: 600
Flags: W
LayerCount: 2
Fore
SplineSet
140 293 m 2
 137 293 133 294 130 297 c 128
 127 300 126 302 126 305 c 0
 126 310 128 315 133 321 c 128
 138 327 143 330 150 331 c 2
 446 351 l 2
 449 351 453 349 456 346 c 128
 459 343 460 340 459 337 c 0
 456 330 451 325 446 320 c 128
 441 315 435 313 428 313 c 2
 140 293 l 2
310 -37 m 0
 282 -37 258 -31 239 -20 c 128
 220 -9 202 2 187 15 c 0
 174 26 162 35 150 43 c 128
 138 51 125 55 111 55 c 1
 95 45 81 34 70 23 c 128
 59 12 49 1 40 -10 c 0
 36 -15 30 -16 21 -15 c 128
 12 -14 4 -10 -3 -4 c 128
 -10 2 -14 9 -14 17 c 0
 -14 28 -8 40 4 52 c 128
 16 64 33 74 52 82 c 128
 71 90 92 93 114 92 c 1
 134 113 150 138 164 166 c 128
 178 194 191 225 202 258 c 128
 213 291 224 325 235 358 c 0
 258 424 284 476 315 516 c 128
 346 556 379 584 414 602 c 128
 449 620 485 629 521 629 c 0
 546 629 567 624 582 615 c 128
 597 606 607 594 613 580 c 128
 619 566 620 554 617 540 c 128
 614 526 607 514 596 505 c 128
 585 496 570 491 552 491 c 0
 549 491 546 492 544 493 c 128
 542 494 542 496 542 499 c 256
 542 502 544 507 549 516 c 128
 554 525 556 538 556 553 c 0
 556 566 552 577 543 586 c 128
 534 595 522 600 506 600 c 0
 482 600 462 593 445 579 c 128
 428 565 414 546 401 522 c 128
 388 498 376 469 364 438 c 128
 352 407 339 374 324 339 c 0
 312 312 299 285 284 257 c 128
 269 229 252 202 232 176 c 128
 212 150 188 125 161 102 c 0
 159 101 158 100 158 97 c 128
 158 94 159 93 162 93 c 0
 189 92 211 88 228 81 c 128
 245 74 260 66 273 57 c 0
 288 48 304 40 319 33 c 128
 334 26 354 22 378 22 c 0
 399 22 418 29 435 42 c 128
 452 55 460 72 460 91 c 0
 460 100 459 106 458 111 c 128
 457 116 456 121 456 128 c 0
 456 137 459 144 464 148 c 128
 469 152 474 154 479 154 c 0
 488 154 495 151 500 146 c 128
 505 141 507 133 507 123 c 0
 507 104 503 85 494 66 c 128
 485 47 473 30 456 14 c 128
 439 -2 418 -14 394 -23 c 128
 370 -32 341 -37 310 -37 c 0
EndSplineSet
EndChar

StartChar: currency
Encoding: 164 164 102
Width: 600
Flags: W
LayerCount: 2
Fore
SplineSet
266 76 m 0
 234 76 207 82 186 96 c 128
 165 110 150 128 140 150 c 128
 130 172 124 194 124 219 c 0
 124 246 130 274 141 302 c 128
 152 330 169 356 191 380 c 128
 213 404 240 424 272 438 c 128
 304 452 339 459 380 459 c 0
 413 459 439 452 460 438 c 128
 481 424 496 408 506 386 c 128
 516 364 522 341 522 316 c 0
 522 289 516 260 505 232 c 128
 494 204 477 178 455 154 c 128
 433 130 406 112 374 98 c 128
 342 84 307 76 266 76 c 0
90 66 m 0
 85 66 79 70 72 78 c 128
 65 86 63 92 64 99 c 0
 65 103 67 106 70 108 c 2
 138 159 l 1
 168 119 l 1
 99 67 l 2
 98 66 96 66 94 66 c 128
 92 66 92 66 90 66 c 0
437 68 m 0
 434 69 431 70 429 72 c 2
 384 135 l 1
 423 166 l 1
 470 101 l 2
 471 100 472 99 472 98 c 128
 472 96 472 96 472 94 c 0
 472 87 468 81 459 75 c 128
 450 69 443 67 437 68 c 0
281 126 m 0
 311 126 338 131 361 142 c 128
 384 153 404 167 420 184 c 128
 436 201 450 221 458 242 c 128
 466 263 470 283 470 303 c 0
 470 330 461 354 444 376 c 128
 427 398 401 409 365 409 c 0
 335 409 308 404 285 393 c 128
 262 382 242 368 226 351 c 128
 210 334 196 315 188 294 c 128
 180 273 176 252 176 232 c 0
 176 205 185 180 202 158 c 128
 219 136 245 126 281 126 c 0
222 373 m 1
 175 438 l 2
 174 439 173 442 173 445 c 0
 173 452 177 458 186 464 c 128
 195 470 202 472 208 471 c 0
 211 470 214 469 216 467 c 2
 261 404 l 1
 222 373 l 1
507 380 m 1
 477 420 l 1
 546 472 l 2
 547 473 548 474 550 474 c 128
 552 474 554 473 555 473 c 0
 560 473 566 469 573 462 c 128
 580 455 582 447 581 440 c 0
 580 436 578 433 575 431 c 2
 507 380 l 1
EndSplineSet
EndChar

StartChar: yen
Encoding: 165 165 103
Width: 600
Flags: W
LayerCount: 2
Fore
SplineSet
139 -5 m 0
 131 -5 125 -4 121 -2 c 128
 117 0 115 2 116 6 c 0
 117 11 120 14 126 17 c 128
 132 20 141 22 152 24 c 0
 177 29 197 38 214 52 c 128
 231 66 243 84 250 108 c 2
 278 197 l 1
 161 197 l 2
 158 197 156 198 154 201 c 128
 152 204 151 206 152 209 c 0
 153 214 157 219 163 224 c 128
 169 229 175 232 181 232 c 2
 289 232 l 1
 296 256 l 2
 297 261 299 265 300 269 c 128
 301 273 301 277 302 280 c 1
 186 280 l 2
 183 280 180 281 178 284 c 128
 176 287 176 289 177 292 c 0
 178 297 182 302 188 307 c 128
 194 312 200 315 206 315 c 2
 305 315 l 1
 304 318 304 322 304 324 c 128
 304 326 302 328 301 330 c 2
 241 557 l 2
 236 576 230 591 222 600 c 128
 214 609 202 616 184 620 c 0
 175 622 168 625 164 629 c 128
 160 633 159 637 160 642 c 0
 161 646 165 648 170 650 c 128
 175 652 182 653 190 653 c 0
 204 653 221 653 242 652 c 128
 263 651 285 650 306 650 c 0
 321 650 333 650 343 651 c 128
 353 652 363 652 373 652 c 0
 381 652 387 652 392 650 c 128
 397 648 398 645 397 641 c 0
 396 636 392 633 386 630 c 128
 380 627 371 624 360 621 c 0
 352 618 344 613 334 604 c 128
 324 595 321 580 326 560 c 2
 368 395 l 2
 371 382 374 373 376 366 c 128
 378 359 381 356 384 356 c 256
 387 356 392 359 398 366 c 128
 404 373 413 382 424 395 c 0
 433 406 445 418 458 434 c 128
 471 450 486 466 500 484 c 128
 514 502 527 519 538 534 c 0
 557 559 567 579 568 592 c 128
 569 605 560 614 543 620 c 0
 537 622 531 625 525 628 c 128
 519 631 517 635 518 640 c 0
 519 644 522 646 528 648 c 128
 534 650 541 651 549 651 c 0
 563 651 576 650 587 650 c 128
 598 650 611 650 624 650 c 0
 641 650 658 651 674 652 c 128
 690 653 703 653 714 653 c 0
 722 653 728 652 733 650 c 128
 738 648 739 646 738 642 c 0
 737 637 733 633 727 630 c 128
 721 627 712 625 701 622 c 0
 690 620 676 614 661 602 c 128
 646 590 631 577 616 563 c 128
 601 549 589 537 579 526 c 0
 546 489 515 455 486 422 c 128
 457 389 435 363 420 346 c 0
 415 340 409 334 404 329 c 128
 399 324 396 319 393 315 c 1
 507 315 l 2
 510 315 514 313 516 310 c 128
 518 307 518 304 515 301 c 0
 510 294 505 290 499 286 c 128
 493 282 486 280 479 280 c 2
 378 280 l 1
 363 232 l 1
 481 232 l 2
 484 232 487 231 489 228 c 128
 491 225 491 221 488 218 c 0
 483 211 478 206 472 202 c 128
 466 198 460 197 453 197 c 2
 353 197 l 1
 325 108 l 2
 318 85 319 66 327 52 c 128
 335 38 350 29 372 24 c 0
 382 22 389 20 393 17 c 128
 397 14 398 11 397 6 c 0
 396 2 394 0 388 -2 c 128
 382 -4 375 -5 367 -5 c 0
 350 -5 336 -5 326 -4 c 128
 316 -3 306 -2 296 -1 c 128
 286 0 275 0 260 0 c 0
 245 0 231 0 219 -1 c 128
 207 -2 194 -3 182 -4 c 128
 170 -5 156 -5 139 -5 c 0
EndSplineSet
EndChar

StartChar: brokenbar
Encoding: 166 166 104
Width: 600
Flags: W
LayerCount: 2
Fore
SplineSet
283 -290 m 0
 280 -290 278 -289 275 -286 c 128
 272 -283 271 -279 271 -276 c 2
 271 156 l 2
 271 159 273 161 277 164 c 128
 281 167 286 170 292 172 c 128
 298 174 303 176 308 177 c 128
 313 178 316 179 317 179 c 0
 320 179 323 177 326 172 c 128
 329 167 331 162 331 157 c 2
 331 -266 l 2
 331 -271 329 -275 325 -278 c 128
 321 -281 316 -284 310 -286 c 128
 304 -288 299 -288 294 -289 c 128
 289 -290 285 -290 283 -290 c 0
283 276 m 0
 280 276 278 279 275 284 c 128
 272 289 271 294 271 299 c 2
 271 674 l 2
 271 679 273 684 277 688 c 128
 281 692 286 696 292 698 c 128
 298 700 303 702 308 703 c 128
 313 704 316 705 317 705 c 0
 320 705 323 704 326 701 c 128
 329 698 331 695 331 692 c 2
 331 297 l 2
 331 294 329 292 325 290 c 128
 321 288 316 285 310 283 c 128
 304 281 299 279 294 278 c 128
 289 277 285 276 283 276 c 0
EndSplineSet
EndChar

StartChar: section
Encoding: 167 167 105
Width: 600
Flags: W
LayerCount: 2
Fore
SplineSet
144 -148 m 0
 130 -148 118 -146 109 -141 c 128
 100 -136 95 -131 95 -124 c 0
 95 -115 98 -106 104 -97 c 128
 110 -88 118 -79 126 -72 c 128
 134 -65 139 -62 144 -62 c 0
 147 -63 151 -65 156 -70 c 128
 161 -75 166 -79 172 -84 c 0
 177 -88 184 -91 191 -92 c 128
 198 -93 206 -94 213 -94 c 0
 228 -94 241 -88 252 -76 c 128
 263 -64 273 -50 280 -34 c 128
 287 -18 290 -3 290 10 c 0
 291 32 284 55 270 79 c 128
 256 103 243 126 230 149 c 0
 217 170 208 190 200 210 c 128
 192 230 188 250 188 269 c 0
 188 298 194 327 206 356 c 128
 218 385 233 413 252 440 c 128
 271 467 292 492 315 513 c 1
 326 532 340 552 358 572 c 128
 376 592 396 607 418 620 c 128
 440 633 461 640 483 640 c 0
 494 640 505 639 515 636 c 128
 525 633 534 629 540 624 c 128
 546 619 549 613 549 607 c 0
 549 604 546 598 540 590 c 128
 534 582 526 573 518 566 c 128
 510 559 503 556 498 556 c 0
 495 556 491 559 487 564 c 128
 483 569 478 574 473 579 c 0
 468 584 463 588 458 591 c 128
 453 594 448 596 441 596 c 0
 428 596 414 592 402 584 c 128
 390 576 380 565 373 552 c 128
 366 539 362 526 362 512 c 0
 362 494 367 474 377 452 c 128
 387 430 400 407 416 385 c 0
 433 363 445 341 452 320 c 128
 459 299 462 278 462 257 c 0
 462 206 451 158 429 114 c 128
 407 70 379 28 346 -11 c 0
 327 -33 307 -55 284 -76 c 128
 261 -97 238 -114 214 -128 c 128
 190 -142 167 -148 144 -148 c 0
356 51 m 0
 356 48 357 48 360 48 c 128
 363 48 364 49 365 51 c 0
 372 64 379 77 384 88 c 128
 389 99 394 111 398 124 c 0
 409 159 411 190 406 218 c 128
 401 246 389 274 370 305 c 0
 361 320 352 336 342 354 c 128
 332 372 322 390 314 408 c 128
 306 426 303 443 302 458 c 0
 302 461 300 462 298 462 c 128
 296 462 294 460 293 458 c 0
 280 435 270 413 262 391 c 128
 254 369 250 346 250 323 c 0
 249 302 252 283 259 264 c 128
 266 245 275 225 288 204 c 0
 297 190 306 174 316 156 c 128
 326 138 336 120 344 102 c 128
 352 84 356 66 356 51 c 0
EndSplineSet
EndChar

StartChar: dieresis
Encoding: 168 168 106
Width: 600
Flags: W
LayerCount: 2
Fore
SplineSet
488 513 m 0
 478 513 470 517 463 525 c 128
 456 533 453 542 453 552 c 0
 453 563 455 573 460 582 c 128
 465 591 472 598 480 604 c 128
 488 610 498 613 509 613 c 256
 520 613 528 609 534 600 c 128
 540 591 543 581 543 570 c 0
 543 555 538 542 527 530 c 128
 516 518 503 513 488 513 c 0
317 513 m 0
 307 513 299 517 292 525 c 128
 285 533 282 542 282 552 c 0
 282 563 285 573 290 582 c 128
 295 591 302 598 310 604 c 128
 318 610 327 613 338 613 c 256
 349 613 357 609 363 600 c 128
 369 591 372 581 372 570 c 0
 372 555 367 542 356 530 c 128
 345 518 332 513 317 513 c 0
EndSplineSet
EndChar

StartChar: copyright
Encoding: 169 169 107
Width: 600
Flags: W
LayerCount: 2
Fore
SplineSet
333 21 m 0
 296 21 261 29 228 45 c 128
 195 61 165 83 140 111 c 128
 115 139 96 171 82 208 c 128
 68 245 61 285 61 327 c 0
 61 370 68 409 82 446 c 128
 96 483 116 515 141 543 c 128
 166 571 195 593 228 609 c 128
 261 625 296 633 334 633 c 0
 372 633 407 625 440 609 c 128
 473 593 501 571 526 543 c 128
 551 515 572 483 586 446 c 128
 600 409 607 370 607 327 c 0
 607 285 600 245 586 208 c 128
 572 171 551 139 526 111 c 128
 501 83 473 61 440 45 c 128
 407 29 371 21 333 21 c 0
345 148 m 0
 315 148 287 156 262 173 c 128
 237 190 218 211 203 238 c 128
 188 265 181 295 181 326 c 0
 181 359 189 389 206 415 c 128
 223 441 245 461 272 476 c 128
 299 491 330 499 363 499 c 0
 376 499 390 497 404 494 c 128
 418 491 430 488 441 483 c 0
 445 482 448 480 450 479 c 128
 452 478 453 474 454 469 c 0
 456 459 457 448 457 436 c 128
 457 418 457 418 457 405 c 0
 457 402 456 398 454 395 c 128
 452 392 448 390 445 391 c 0
 442 391 440 393 438 396 c 128
 436 399 434 402 433 406 c 0
 430 413 428 420 424 426 c 128
 420 432 415 437 410 442 c 0
 404 448 397 452 388 456 c 128
 379 460 368 462 356 462 c 0
 325 462 301 450 284 424 c 128
 267 398 259 367 259 331 c 0
 259 306 262 282 270 260 c 128
 278 238 290 220 304 206 c 128
 318 192 336 185 359 185 c 0
 377 185 392 189 406 196 c 128
 420 203 430 215 437 233 c 0
 440 239 443 243 446 245 c 128
 449 247 452 248 454 248 c 0
 459 247 461 242 461 233 c 0
 461 226 460 217 458 208 c 128
 456 199 452 190 449 181 c 0
 446 176 445 173 444 172 c 128
 443 171 440 169 434 166 c 0
 424 161 411 156 395 153 c 128
 379 150 362 148 345 148 c 0
333 61 m 0
 366 61 396 68 424 82 c 128
 452 96 477 116 498 140 c 128
 519 164 536 192 548 224 c 128
 560 256 567 291 567 327 c 0
 567 362 560 396 548 428 c 128
 536 460 519 486 498 510 c 128
 477 534 452 552 424 566 c 128
 396 580 366 587 334 587 c 0
 303 587 273 580 244 566 c 128
 215 552 191 534 170 510 c 128
 149 486 132 460 120 428 c 128
 108 396 101 362 101 327 c 0
 101 291 107 256 119 224 c 128
 131 192 147 164 168 140 c 128
 189 116 214 96 242 82 c 128
 270 68 301 61 333 61 c 0
EndSplineSet
EndChar

StartChar: ordfeminine
Encoding: 170 170 108
Width: 600
Flags: W
LayerCount: 2
Fore
SplineSet
198 161 m 2
 195 161 194 162 192 164 c 128
 190 166 189 169 189 172 c 0
 189 177 192 182 199 188 c 128
 206 194 212 196 217 196 c 2
 397 196 l 2
 400 196 402 194 403 192 c 128
 404 190 404 187 404 182 c 0
 404 177 400 172 392 168 c 128
 384 164 377 161 370 161 c 2
 198 161 l 2
277 268 m 0
 264 268 254 274 244 285 c 128
 234 296 229 307 229 318 c 0
 229 335 233 349 242 358 c 128
 251 367 263 375 280 380 c 2
 368 408 l 2
 377 411 384 414 386 416 c 128
 388 418 390 424 393 432 c 2
 400 455 l 2
 403 468 402 479 396 486 c 128
 390 493 383 496 374 496 c 0
 366 496 357 494 348 491 c 128
 339 488 333 484 330 479 c 0
 327 476 325 470 324 464 c 128
 323 458 322 453 321 449 c 0
 320 446 318 444 315 442 c 128
 312 440 308 438 304 436 c 128
 300 434 295 433 290 432 c 128
 285 431 280 430 275 430 c 0
 272 430 269 432 268 435 c 128
 267 438 266 441 267 444 c 0
 270 452 275 460 282 468 c 128
 289 476 297 483 308 488 c 0
 318 493 328 498 340 504 c 128
 352 510 364 514 376 518 c 128
 388 522 400 524 411 524 c 0
 425 524 436 519 445 508 c 128
 454 497 456 485 451 471 c 2
 410 347 l 2
 406 335 405 325 406 318 c 128
 407 311 412 308 419 308 c 0
 424 308 426 309 428 310 c 128
 430 311 432 313 434 314 c 0
 438 317 441 318 443 318 c 0
 446 318 448 316 449 313 c 128
 450 310 451 306 451 303 c 0
 451 302 450 301 447 298 c 128
 444 295 441 292 437 289 c 0
 431 284 424 280 415 275 c 128
 406 270 398 268 391 268 c 0
 379 268 370 270 366 275 c 128
 362 280 360 284 360 290 c 128
 360 296 359 300 359 302 c 1
 355 302 l 1
 346 295 336 288 324 280 c 128
 312 272 296 268 277 268 c 0
306 303 m 0
 315 303 323 305 330 308 c 128
 337 311 343 314 350 318 c 0
 353 320 356 323 358 326 c 128
 360 329 361 334 364 341 c 2
 378 383 l 2
 380 388 379 392 376 394 c 128
 373 396 369 395 366 394 c 0
 337 385 315 376 300 367 c 128
 285 358 278 346 278 331 c 0
 278 324 281 318 288 312 c 128
 295 306 301 303 306 303 c 0
EndSplineSet
EndChar

StartChar: guillemotleft
Encoding: 171 171 109
Width: 600
Flags: W
LayerCount: 2
Fore
SplineSet
484 19 m 0
 479 19 473 21 467 26 c 128
 461 31 456 35 454 37 c 0
 443 48 431 60 415 74 c 128
 399 88 383 101 365 115 c 128
 347 129 331 142 315 154 c 128
 299 166 285 174 274 181 c 0
 271 182 269 184 267 186 c 128
 265 188 264 192 264 196 c 0
 264 199 264 202 267 204 c 128
 270 206 272 208 274 209 c 0
 304 225 337 243 372 262 c 128
 407 281 442 300 475 319 c 128
 508 338 536 356 560 371 c 0
 563 374 566 376 571 378 c 128
 576 380 581 381 587 381 c 0
 590 381 592 378 590 372 c 128
 588 366 587 362 581 357 c 0
 560 338 534 318 509 298 c 128
 484 278 459 259 436 242 c 128
 413 225 393 211 376 200 c 0
 371 197 369 194 370 192 c 128
 371 190 372 187 375 184 c 0
 386 172 399 158 413 142 c 128
 427 126 440 109 454 92 c 128
 468 75 479 58 487 42 c 0
 489 37 491 32 490 27 c 128
 489 22 487 19 484 19 c 0
280 19 m 0
 275 19 268 21 262 26 c 128
 256 31 252 35 250 37 c 0
 239 48 227 60 211 74 c 128
 195 88 179 101 161 115 c 128
 143 129 126 142 110 154 c 128
 94 166 81 174 70 181 c 0
 67 182 65 184 63 186 c 128
 61 188 59 192 59 196 c 0
 59 199 60 202 63 204 c 128
 66 206 68 208 70 209 c 0
 100 225 133 243 168 262 c 128
 203 281 238 300 271 319 c 128
 304 338 332 356 356 371 c 0
 359 374 362 376 367 378 c 128
 372 380 377 381 383 381 c 0
 386 381 388 378 386 372 c 128
 384 366 383 362 377 357 c 0
 356 338 330 318 305 298 c 128
 280 278 255 259 232 242 c 128
 209 225 188 211 171 200 c 0
 166 197 164 194 165 192 c 128
 166 190 168 187 171 184 c 0
 182 172 195 158 209 142 c 128
 223 126 236 109 250 92 c 128
 264 75 275 58 283 42 c 0
 285 37 286 32 285 27 c 128
 284 22 283 19 280 19 c 0
EndSplineSet
EndChar

StartChar: logicalnot
Encoding: 172 172 110
Width: 600
Flags: W
LayerCount: 2
Fore
SplineSet
502 43 m 0
 499 43 497 45 494 48 c 128
 491 51 490 54 490 57 c 2
 490 304 l 2
 490 316 485 322 476 322 c 2
 64 322 l 2
 61 322 57 323 54 326 c 128
 51 329 50 331 50 334 c 0
 50 337 51 342 52 350 c 128
 53 358 54 365 58 372 c 128
 62 379 67 382 74 382 c 2
 537 382 l 2
 540 382 543 381 546 378 c 128
 549 375 550 371 550 368 c 2
 550 67 l 2
 550 60 547 56 540 52 c 128
 533 48 526 45 518 44 c 128
 510 43 505 43 502 43 c 0
EndSplineSet
EndChar

StartChar: registered
Encoding: 174 174 112
Width: 600
Flags: W
LayerCount: 2
Fore
SplineSet
333 21 m 0
 296 21 260 29 228 45 c 128
 196 61 168 83 143 111 c 128
 118 139 99 171 85 208 c 128
 71 245 64 285 64 327 c 0
 64 370 72 409 86 446 c 128
 100 483 119 515 144 543 c 128
 169 571 198 593 230 609 c 128
 262 625 297 633 334 633 c 0
 371 633 406 625 438 609 c 128
 470 593 499 571 524 543 c 128
 549 515 568 483 582 446 c 128
 596 409 603 370 603 327 c 0
 603 285 596 245 582 208 c 128
 568 171 549 139 524 111 c 128
 499 83 470 61 438 45 c 128
 406 29 370 21 333 21 c 0
333 61 m 256
 365 61 394 68 422 82 c 128
 450 96 475 116 496 140 c 128
 517 164 533 192 545 224 c 128
 557 256 563 291 563 327 c 0
 563 362 557 396 545 428 c 128
 533 460 517 486 496 510 c 128
 475 534 450 552 422 566 c 128
 394 580 365 587 334 587 c 0
 302 587 272 580 244 566 c 128
 216 552 193 534 172 510 c 128
 151 486 134 460 122 428 c 128
 110 396 105 362 105 327 c 0
 105 291 111 256 122 224 c 128
 133 192 149 164 170 140 c 128
 191 116 216 96 244 82 c 128
 272 68 301 61 333 61 c 256
451 172 m 0
 440 172 429 176 418 185 c 128
 407 194 397 204 386 218 c 128
 375 232 366 246 357 262 c 128
 348 278 342 292 337 305 c 0
 336 309 333 312 329 315 c 128
 325 318 319 319 311 319 c 0
 308 319 306 318 304 316 c 128
 302 314 300 312 300 309 c 2
 300 230 l 2
 300 219 303 212 309 208 c 128
 315 204 322 201 331 198 c 0
 335 197 339 194 342 192 c 128
 345 190 346 187 346 183 c 0
 346 180 345 176 342 174 c 128
 339 172 337 171 334 171 c 0
 321 171 311 172 302 173 c 128
 293 174 282 175 270 175 c 0
 263 175 256 175 250 174 c 128
 244 173 239 173 234 172 c 128
 229 171 221 171 212 171 c 0
 209 171 207 172 204 175 c 128
 201 178 200 180 200 183 c 0
 200 187 201 190 204 192 c 128
 207 194 211 197 215 198 c 0
 223 201 229 204 233 208 c 128
 237 212 239 219 239 230 c 2
 239 430 l 2
 239 442 239 451 238 456 c 128
 237 461 234 464 231 465 c 128
 228 466 223 468 217 470 c 0
 207 473 202 478 202 485 c 0
 202 493 207 496 217 495 c 0
 227 494 236 493 244 492 c 128
 252 491 260 490 269 490 c 0
 282 490 294 491 306 492 c 128
 318 493 330 494 345 495 c 0
 372 496 395 490 414 476 c 128
 433 462 443 443 443 416 c 0
 443 395 437 377 426 364 c 128
 415 351 403 342 389 336 c 0
 386 335 385 333 386 330 c 128
 387 327 388 325 389 322 c 0
 396 301 406 282 418 264 c 128
 430 246 442 233 454 222 c 128
 466 211 476 206 484 206 c 0
 487 206 488 206 492 206 c 128
 495 206 496 204 496 201 c 0
 496 192 491 185 482 180 c 128
 473 175 463 172 451 172 c 0
321 349 m 0
 338 349 352 354 364 366 c 128
 376 378 382 393 382 410 c 0
 382 427 377 440 367 450 c 128
 357 460 344 464 329 464 c 0
 317 464 309 462 305 457 c 128
 301 452 299 446 299 437 c 2
 299 368 l 2
 299 360 302 354 306 352 c 128
 310 350 315 349 321 349 c 0
EndSplineSet
EndChar

StartChar: macron
Encoding: 175 175 113
Width: 600
Flags: W
LayerCount: 2
Fore
SplineSet
300 544 m 2
 297 544 296 544 294 546 c 128
 292 548 291 550 291 553 c 0
 291 557 292 562 295 567 c 128
 298 572 302 578 306 582 c 128
 310 586 315 588 320 588 c 2
 527 588 l 2
 533 588 536 585 536 578 c 0
 536 573 534 567 530 562 c 128
 526 557 520 552 515 549 c 128
 510 546 505 544 500 544 c 2
 300 544 l 2
EndSplineSet
EndChar

StartChar: degree
Encoding: 176 176 114
Width: 600
Flags: W
LayerCount: 2
Fore
SplineSet
402 402 m 0
 381 402 362 408 344 420 c 128
 326 432 310 447 299 466 c 128
 288 485 282 505 282 526 c 256
 282 547 288 567 299 585 c 128
 310 603 326 617 344 628 c 128
 362 639 381 645 402 645 c 0
 423 645 443 640 461 629 c 128
 479 618 494 604 505 586 c 128
 516 568 522 549 522 528 c 256
 522 507 516 486 505 467 c 128
 494 448 479 432 461 420 c 128
 443 408 423 402 402 402 c 0
402 444 m 0
 423 444 441 452 456 468 c 128
 471 484 479 502 479 523 c 0
 479 545 471 564 456 579 c 128
 441 594 423 602 402 602 c 0
 381 602 363 594 348 579 c 128
 333 564 325 545 325 523 c 0
 325 502 333 484 348 468 c 128
 363 452 381 444 402 444 c 0
EndSplineSet
EndChar

StartChar: plusminus
Encoding: 177 177 115
Width: 600
Flags: W
LayerCount: 2
Fore
SplineSet
287 121 m 0
 284 121 282 123 279 126 c 128
 276 129 275 132 275 135 c 2
 275 346 l 2
 275 349 274 351 271 351 c 2
 69 351 l 2
 66 351 63 352 60 355 c 128
 57 358 55 360 55 363 c 0
 55 368 56 376 60 386 c 128
 64 396 70 401 79 401 c 2
 268 401 l 2
 271 401 273 402 274 403 c 128
 275 404 275 406 275 409 c 2
 275 580 l 2
 275 587 278 592 283 596 c 128
 288 600 294 604 300 607 c 128
 306 610 309 611 311 611 c 0
 314 611 317 610 320 607 c 128
 323 604 325 601 325 598 c 2
 325 407 l 2
 325 404 325 402 326 402 c 128
 327 402 328 401 329 401 c 2
 532 401 l 2
 535 401 539 399 542 396 c 128
 545 393 546 390 545 387 c 0
 542 378 538 370 534 362 c 128
 530 354 523 351 514 351 c 2
 329 351 l 2
 326 351 325 350 325 347 c 2
 325 145 l 2
 325 136 320 130 310 126 c 128
 300 122 292 121 287 121 c 0
69 38 m 2
 66 38 63 39 60 42 c 128
 57 45 55 47 55 50 c 0
 55 53 56 58 58 64 c 128
 60 70 62 75 65 80 c 128
 68 85 73 88 79 88 c 2
 532 88 l 2
 535 88 539 87 542 84 c 128
 545 81 546 77 545 74 c 0
 542 65 538 58 534 50 c 128
 530 42 523 38 514 38 c 2
 69 38 l 2
EndSplineSet
EndChar

StartChar: uni00B2
Encoding: 178 178 116
Width: 600
Flags: W
LayerCount: 2
Fore
SplineSet
455 437 m 0
 434 438 416 439 400 440 c 128
 384 441 368 441 355 441 c 0
 346 441 336 440 326 440 c 128
 316 440 307 440 296 440 c 128
 285 440 273 439 260 438 c 0
 258 438 257 439 257 441 c 0
 257 446 260 450 265 454 c 2
 378 548 l 2
 407 571 429 597 446 624 c 128
 463 651 472 671 472 684 c 0
 472 698 468 709 459 716 c 128
 450 723 439 727 425 727 c 0
 412 727 399 723 386 716 c 128
 373 709 360 699 348 685 c 0
 346 683 344 681 343 680 c 128
 342 679 340 679 339 679 c 0
 337 679 336 680 335 682 c 128
 334 684 334 687 335 690 c 0
 339 701 348 714 360 727 c 128
 372 740 387 752 406 762 c 128
 425 772 445 777 466 777 c 0
 485 777 500 771 513 759 c 128
 526 747 532 731 532 711 c 0
 532 687 525 667 512 652 c 128
 499 637 486 621 471 605 c 0
 463 597 453 587 440 576 c 128
 427 565 414 553 400 542 c 128
 386 531 374 521 364 513 c 128
 354 505 348 500 346 498 c 256
 344 496 345 495 348 494 c 128
 351 493 353 492 356 492 c 2
 420 492 l 2
 434 492 449 497 464 506 c 128
 479 515 493 527 504 542 c 0
 505 545 508 547 511 548 c 128
 514 549 517 550 520 550 c 0
 521 550 522 548 522 546 c 128
 522 544 521 542 520 541 c 0
 513 529 506 518 500 508 c 128
 494 498 487 489 482 480 c 128
 477 471 472 461 467 450 c 0
 464 445 462 442 460 440 c 128
 458 438 456 437 455 437 c 0
EndSplineSet
EndChar

StartChar: uni00B3
Encoding: 179 179 117
Width: 600
Flags: W
LayerCount: 2
Fore
SplineSet
339 434 m 0
 327 434 316 435 304 438 c 128
 292 441 286 448 286 458 c 0
 286 464 289 472 296 481 c 128
 303 490 308 495 313 495 c 0
 317 495 321 492 326 488 c 128
 331 484 337 480 344 476 c 0
 349 474 354 472 360 470 c 128
 366 468 371 468 378 468 c 0
 393 468 407 472 418 480 c 128
 429 488 438 499 445 512 c 128
 452 525 455 537 455 550 c 0
 455 563 452 574 444 582 c 128
 436 590 424 595 409 595 c 0
 404 595 398 594 388 592 c 128
 378 590 372 588 371 588 c 0
 368 588 366 589 363 592 c 128
 360 595 360 597 363 599 c 0
 371 604 379 608 386 610 c 128
 393 612 401 615 408 617 c 128
 415 619 420 621 425 624 c 0
 442 633 457 644 470 656 c 128
 483 668 490 682 490 697 c 0
 490 708 487 717 480 722 c 128
 473 727 465 730 455 730 c 0
 442 730 430 728 418 723 c 128
 406 718 392 710 377 699 c 0
 375 698 373 696 372 695 c 128
 371 694 369 693 367 693 c 0
 364 693 363 695 362 698 c 128
 361 701 361 703 362 705 c 0
 375 721 388 734 402 745 c 128
 416 756 431 764 446 770 c 128
 461 776 475 778 488 777 c 0
 505 776 519 772 530 762 c 128
 541 752 547 737 547 718 c 256
 547 699 539 682 523 667 c 128
 507 652 488 641 467 632 c 0
 465 631 464 630 463 629 c 128
 462 628 463 627 465 627 c 0
 480 627 492 622 500 610 c 128
 508 598 512 584 512 569 c 0
 512 551 506 534 495 518 c 128
 484 502 469 486 451 474 c 128
 433 462 414 452 394 445 c 128
 374 438 356 434 339 434 c 0
EndSplineSet
EndChar

StartChar: acute
Encoding: 180 180 118
Width: 600
Flags: W
LayerCount: 2
Fore
SplineSet
350 475 m 0
 345 475 342 478 341 482 c 128
 340 486 341 490 344 495 c 2
 419 639 l 2
 422 646 426 651 430 656 c 128
 434 661 439 664 444 664 c 0
 447 664 452 662 458 658 c 128
 464 654 471 649 476 644 c 128
 481 639 483 633 483 628 c 0
 483 625 481 621 478 616 c 128
 475 611 471 605 465 598 c 2
 373 490 l 2
 370 486 366 483 362 480 c 128
 358 477 354 475 350 475 c 0
EndSplineSet
EndChar

StartChar: paragraph
Encoding: 182 182 120
Width: 600
Flags: W
LayerCount: 2
Fore
SplineSet
148 -288 m 0
 108 -288 75 -278 49 -258 c 128
 23 -238 10 -211 10 -177 c 0
 10 -152 15 -130 26 -111 c 128
 37 -92 52 -76 70 -65 c 128
 88 -54 109 -48 132 -48 c 0
 153 -48 170 -53 182 -63 c 128
 194 -73 200 -86 200 -101 c 0
 200 -118 195 -132 185 -142 c 128
 175 -152 160 -157 141 -157 c 0
 134 -157 128 -155 121 -152 c 128
 114 -149 108 -145 103 -140 c 0
 98 -136 93 -132 88 -128 c 128
 83 -124 78 -123 73 -123 c 0
 66 -123 61 -127 57 -136 c 128
 53 -145 51 -154 51 -162 c 0
 51 -191 60 -213 80 -226 c 128
 100 -239 122 -246 146 -246 c 0
 180 -246 212 -236 240 -215 c 128
 268 -194 288 -163 301 -120 c 2
 368 100 l 2
 369 105 369 110 368 114 c 128
 367 118 365 119 360 119 c 0
 308 119 263 127 225 143 c 128
 187 159 158 182 138 212 c 128
 118 242 107 279 107 322 c 0
 107 386 119 439 144 481 c 128
 169 523 204 556 248 580 c 128
 292 604 344 620 402 630 c 128
 460 640 521 645 586 645 c 0
 600 645 600 645 618 645 c 128
 630 645 642 644 653 644 c 128
 664 644 674 643 681 642 c 0
 686 641 688 639 690 636 c 128
 692 633 693 629 692 624 c 256
 691 619 690 615 688 610 c 128
 686 605 682 603 677 603 c 0
 676 603 671 604 662 604 c 128
 653 604 643 604 632 605 c 128
 621 606 612 606 603 606 c 128
 594 606 589 607 588 607 c 0
 583 607 579 606 575 603 c 128
 571 600 568 596 566 589 c 2
 357 -98 l 2
 342 -147 324 -184 303 -212 c 128
 282 -240 258 -260 232 -271 c 128
 206 -282 178 -288 148 -288 c 0
364 156 m 0
 367 156 370 157 372 159 c 128
 374 161 376 164 377 169 c 2
 508 584 l 2
 508 585 508 585 508 585 c 129
 508 585 508 585 508 586 c 0
 508 589 506 591 503 592 c 128
 500 593 496 593 493 593 c 0
 482 593 470 591 459 588 c 128
 448 585 436 577 424 564 c 128
 412 551 401 531 388 504 c 128
 375 477 362 439 347 392 c 0
 324 317 313 261 313 224 c 0
 313 200 317 183 326 172 c 128
 335 161 347 156 364 156 c 0
EndSplineSet
EndChar

StartChar: periodcentered
Encoding: 183 183 121
Width: 600
Flags: W
LayerCount: 2
Fore
SplineSet
293 150 m 0
 280 150 270 156 261 166 c 128
 252 176 248 187 248 200 c 0
 248 212 251 223 257 233 c 128
 263 243 270 250 280 256 c 128
 290 262 301 265 313 265 c 0
 326 265 338 260 346 250 c 128
 354 240 358 228 358 215 c 0
 358 203 356 192 350 182 c 128
 344 172 336 165 326 159 c 128
 316 153 305 150 293 150 c 0
EndSplineSet
EndChar

StartChar: cedilla
Encoding: 184 184 122
Width: 600
Flags: W
LayerCount: 2
Fore
SplineSet
156 -281 m 0
 141 -281 128 -279 116 -274 c 128
 104 -269 94 -262 88 -254 c 128
 82 -246 79 -236 79 -225 c 0
 79 -207 86 -198 99 -198 c 0
 105 -198 111 -200 117 -204 c 128
 123 -208 128 -212 133 -217 c 0
 140 -223 148 -228 156 -234 c 128
 164 -240 172 -243 183 -243 c 0
 190 -243 197 -240 202 -234 c 128
 207 -228 209 -222 209 -215 c 0
 209 -204 206 -194 199 -186 c 128
 192 -178 185 -171 178 -163 c 0
 171 -156 165 -148 159 -139 c 128
 153 -130 150 -120 150 -108 c 0
 150 -97 156 -83 167 -68 c 128
 178 -53 193 -37 210 -22 c 128
 227 -7 244 6 262 17 c 1
 292 17 l 1
 261 -8 241 -29 231 -47 c 128
 221 -65 216 -79 216 -88 c 0
 216 -95 220 -102 226 -110 c 128
 232 -118 239 -125 246 -132 c 256
 253 -139 260 -146 266 -154 c 128
 272 -162 275 -171 275 -180 c 0
 275 -191 270 -202 261 -214 c 128
 252 -226 240 -236 227 -246 c 128
 214 -256 201 -266 188 -272 c 128
 175 -278 164 -281 156 -281 c 0
EndSplineSet
EndChar

StartChar: uni00B9
Encoding: 185 185 123
Width: 600
Flags: W
LayerCount: 2
Fore
SplineSet
298 437 m 0
 295 437 293 438 292 441 c 128
 291 444 291 446 292 449 c 0
 293 453 294 457 296 460 c 128
 298 463 302 465 307 466 c 0
 320 467 333 470 346 474 c 128
 359 478 369 491 375 512 c 2
 427 683 l 2
 431 696 430 706 422 712 c 128
 414 718 401 723 384 730 c 0
 379 732 377 735 377 740 c 0
 377 749 381 754 389 755 c 0
 414 759 436 763 456 768 c 128
 476 773 489 777 496 780 c 0
 497 781 499 782 500 782 c 128
 501 782 502 782 503 782 c 0
 509 782 510 777 507 768 c 0
 504 761 501 752 496 740 c 128
 491 728 485 714 480 698 c 2
 423 512 l 2
 418 493 417 481 422 477 c 128
 427 473 440 469 459 466 c 0
 462 465 465 463 466 460 c 128
 467 457 467 454 466 451 c 0
 465 448 464 445 461 442 c 128
 458 439 455 437 451 437 c 0
 437 437 425 437 416 438 c 128
 402 440 403 440 394 441 c 128
 388 442 382 442 376 442 c 0
 367 442 356 442 345 440 c 128
 334 438 318 437 298 437 c 0
EndSplineSet
EndChar

StartChar: ordmasculine
Encoding: 186 186 124
Width: 600
Flags: W
LayerCount: 2
Fore
SplineSet
196 161 m 2
 193 161 191 162 190 165 c 128
 189 168 188 170 188 173 c 0
 188 178 192 183 198 188 c 128
 204 193 210 196 215 196 c 2
 409 196 l 2
 412 196 415 195 416 193 c 128
 417 191 418 188 418 183 c 256
 418 178 414 173 406 168 c 128
 398 163 390 161 383 161 c 2
 196 161 l 2
322 268 m 0
 295 268 273 276 258 292 c 128
 243 308 235 332 235 365 c 0
 235 389 241 414 254 438 c 128
 267 462 285 482 310 499 c 128
 335 516 366 524 401 524 c 0
 428 524 449 517 464 502 c 128
 479 487 487 466 487 441 c 0
 487 412 480 385 468 358 c 128
 456 331 438 310 413 293 c 128
 388 276 358 268 322 268 c 0
334 288 m 0
 348 288 361 292 374 302 c 128
 387 312 398 325 407 340 c 128
 416 355 424 370 430 386 c 128
 436 402 438 417 438 430 c 0
 438 444 437 456 434 467 c 128
 431 478 426 486 419 492 c 128
 412 498 404 502 393 502 c 0
 379 502 365 497 352 488 c 128
 339 479 328 467 317 452 c 128
 306 437 298 421 292 404 c 128
 286 387 283 372 283 358 c 0
 283 346 285 335 289 324 c 128
 293 313 298 305 306 298 c 128
 314 291 323 288 334 288 c 0
EndSplineSet
EndChar

StartChar: guillemotright
Encoding: 187 187 125
Width: 600
Flags: W
LayerCount: 2
Fore
SplineSet
335 381 m 0
 340 381 345 379 350 374 c 128
 355 369 359 365 360 363 c 0
 370 352 381 340 395 326 c 128
 409 312 422 299 437 285 c 128
 452 271 467 258 480 246 c 128
 493 234 507 226 516 219 c 0
 519 218 521 216 522 214 c 128
 523 212 524 208 524 204 c 0
 524 201 524 198 521 196 c 128
 518 194 515 192 514 191 c 0
 487 176 458 158 426 139 c 128
 394 120 362 101 332 82 c 128
 302 63 276 45 255 29 c 0
 252 26 249 24 245 22 c 128
 241 20 237 19 231 19 c 0
 229 19 228 22 230 28 c 128
 232 34 232 38 237 43 c 0
 257 62 280 82 303 102 c 128
 326 122 349 141 370 158 c 128
 391 175 411 189 425 200 c 0
 429 203 430 206 430 208 c 128
 430 210 428 213 425 216 c 0
 416 228 406 242 394 258 c 128
 382 274 370 290 359 308 c 128
 348 326 338 343 331 358 c 0
 329 363 328 368 329 373 c 128
 330 378 332 381 335 381 c 0
154 381 m 0
 159 381 164 379 169 374 c 128
 174 369 178 365 179 363 c 0
 189 352 200 340 214 326 c 128
 228 312 241 299 256 285 c 128
 271 271 286 258 299 246 c 128
 312 234 326 226 335 219 c 0
 338 218 340 216 341 214 c 128
 342 212 343 208 343 204 c 0
 343 201 343 198 340 196 c 128
 337 194 334 192 333 191 c 0
 306 176 277 158 245 139 c 128
 213 120 181 101 151 82 c 128
 121 63 95 45 74 29 c 0
 71 26 68 24 64 22 c 128
 60 20 56 19 50 19 c 0
 48 19 47 22 49 28 c 128
 51 34 51 38 56 43 c 0
 76 62 99 82 122 102 c 128
 145 122 168 141 189 158 c 128
 210 175 230 189 244 200 c 0
 248 203 249 206 249 208 c 128
 249 210 248 213 245 216 c 0
 236 228 225 242 213 258 c 128
 201 274 189 290 178 308 c 128
 167 326 158 343 151 358 c 0
 149 363 147 368 148 373 c 128
 149 378 151 381 154 381 c 0
EndSplineSet
EndChar

StartChar: onequarter
Encoding: 188 188 126
Width: 600
Flags: W
LayerCount: 2
Fore
SplineSet
426 -8 m 0
 421 -8 418 -5 420 0 c 2
 444 82 l 2
 447 91 444 95 437 95 c 0
 416 95 395 95 376 94 c 128
 357 93 334 92 308 91 c 0
 305 91 304 92 304 95 c 128
 304 98 304 100 306 101 c 0
 334 129 363 157 392 185 c 128
 421 213 451 240 479 267 c 0
 487 274 498 284 513 296 c 128
 528 308 542 320 556 333 c 0
 560 336 564 339 567 342 c 128
 570 345 573 346 575 346 c 256
 577 346 578 345 579 343 c 128
 580 341 580 339 579 337 c 2
 517 137 l 2
 516 134 517 133 520 133 c 0
 542 133 542 133 551 133 c 128
 557 133 562 133 567 134 c 0
 570 134 572 132 571 129 c 0
 571 124 567 117 561 109 c 128
 555 101 551 97 549 97 c 0
 544 97 544 97 534 97 c 128
 524 97 523 97 515 97 c 0
 508 97 505 94 503 89 c 2
 483 22 l 2
 482 18 478 14 473 11 c 128
 468 8 461 5 454 2 c 128
 447 -1 441 -4 436 -6 c 128
 431 -8 428 -8 426 -8 c 0
373 134 m 2
 454 134 l 2
 458 134 461 135 462 138 c 2
 496 247 l 2
 496 248 496 248 495 248 c 128
 494 248 492 248 491 247 c 0
 478 235 465 223 451 210 c 128
 437 197 423 185 410 173 c 128
 397 161 385 149 374 138 c 0
 371 135 370 134 373 134 c 2
59 -26 m 0
 54 -26 49 -23 46 -18 c 128
 43 -13 43 -9 47 -5 c 2
 624 654 l 2
 630 661 637 665 643 667 c 128
 649 669 655 670 662 670 c 0
 670 670 676 668 678 663 c 128
 680 658 679 654 675 650 c 2
 99 -8 l 2
 93 -15 87 -20 80 -22 c 128
 73 -24 66 -26 59 -26 c 0
70 277 m 0
 67 277 65 278 64 280 c 128
 63 282 63 285 64 288 c 0
 65 292 66 296 69 299 c 128
 72 302 74 304 78 305 c 0
 91 306 103 309 112 313 c 128
 121 317 128 327 133 344 c 2
 188 523 l 2
 192 537 191 547 184 553 c 128
 177 559 167 564 154 569 c 0
 149 571 147 575 147 580 c 0
 149 589 153 594 161 595 c 0
 184 598 205 602 225 606 c 128
 245 610 259 614 269 618 c 0
 271 619 272 619 274 620 c 128
 276 621 276 621 277 621 c 0
 282 621 284 617 282 609 c 0
 280 603 276 595 272 585 c 128
 268 575 263 563 258 548 c 2
 195 345 l 2
 191 329 190 320 194 316 c 128
 198 312 207 308 223 305 c 0
 226 304 228 302 229 300 c 128
 230 298 230 294 229 290 c 0
 229 287 227 284 225 282 c 128
 223 280 220 278 217 278 c 0
 206 278 196 278 187 279 c 128
 178 280 170 280 163 281 c 128
 156 282 149 282 143 282 c 0
 134 282 124 282 112 280 c 128
 100 278 86 277 70 277 c 0
EndSplineSet
EndChar

StartChar: onehalf
Encoding: 189 189 127
Width: 600
Flags: W
LayerCount: 2
Fore
SplineSet
487 -17 m 0
 472 -16 456 -15 439 -14 c 128
 422 -13 405 -13 390 -13 c 0
 381 -13 370 -14 360 -14 c 128
 350 -14 339 -14 329 -14 c 128
 319 -14 309 -15 301 -16 c 0
 298 -16 297 -15 297 -12 c 0
 297 -7 300 -3 304 0 c 2
 391 80 l 2
 424 110 450 138 469 165 c 128
 488 192 498 213 498 229 c 0
 499 242 495 252 488 259 c 128
 481 266 472 270 460 270 c 256
 448 270 436 266 424 258 c 128
 412 250 402 241 392 229 c 0
 390 226 388 224 387 223 c 128
 386 222 383 221 381 221 c 0
 378 221 377 222 377 224 c 128
 377 226 376 230 377 234 c 0
 382 247 392 261 404 274 c 128
 416 287 431 299 448 308 c 128
 465 317 483 322 502 322 c 0
 521 322 537 316 549 304 c 128
 561 292 566 275 565 253 c 256
 564 231 557 212 545 197 c 128
 533 182 519 166 505 150 c 0
 498 143 489 135 477 124 c 128
 465 113 453 101 440 90 c 128
 427 79 415 70 405 62 c 128
 395 54 389 50 388 49 c 0
 386 48 387 47 389 46 c 128
 391 45 394 44 396 44 c 2
 463 44 l 2
 475 44 487 49 500 58 c 128
 513 67 524 78 533 91 c 0
 534 94 537 96 540 98 c 128
 543 100 546 100 549 100 c 0
 552 100 553 99 553 96 c 128
 553 93 552 91 549 88 c 0
 542 75 535 63 528 52 c 128
 521 41 515 31 511 22 c 128
 507 13 502 4 498 -3 c 0
 496 -8 495 -12 493 -14 c 128
 491 -16 489 -17 487 -17 c 0
53 -26 m 0
 48 -26 44 -23 41 -18 c 128
 38 -13 38 -9 42 -5 c 2
 600 654 l 2
 606 661 613 665 619 667 c 128
 625 669 631 670 637 670 c 0
 644 670 650 668 652 663 c 128
 654 658 653 654 649 650 c 2
 91 -8 l 2
 85 -15 79 -20 73 -22 c 128
 67 -24 60 -26 53 -26 c 0
71 277 m 0
 68 277 66 278 65 280 c 128
 64 282 64 285 65 288 c 0
 66 292 67 296 70 299 c 128
 73 302 75 304 79 305 c 0
 91 306 102 309 111 313 c 128
 120 317 127 327 132 344 c 2
 187 523 l 2
 191 537 190 547 183 553 c 128
 176 559 167 564 155 569 c 0
 150 571 148 575 149 580 c 0
 151 589 154 594 162 595 c 0
 184 598 204 602 223 606 c 128
 242 610 255 614 265 618 c 0
 266 619 267 619 269 620 c 128
 271 621 272 621 273 621 c 0
 278 621 280 617 278 609 c 0
 276 603 273 595 268 585 c 128
 263 575 259 563 254 548 c 2
 191 345 l 2
 187 329 186 320 189 316 c 128
 192 312 201 308 216 305 c 0
 219 304 222 302 223 300 c 128
 224 298 224 294 223 290 c 0
 222 287 220 284 218 282 c 128
 216 280 213 278 210 278 c 0
 199 278 189 278 181 279 c 128
 173 280 165 280 159 281 c 128
 153 282 146 282 141 282 c 0
 133 282 124 282 112 280 c 128
 100 278 86 277 71 277 c 0
EndSplineSet
EndChar

StartChar: threequarters
Encoding: 190 190 128
Width: 600
Flags: W
LayerCount: 2
Fore
SplineSet
430 -8 m 0
 425 -8 422 -5 424 0 c 2
 448 82 l 2
 451 91 448 95 441 95 c 0
 420 95 400 95 381 94 c 128
 362 93 341 92 315 91 c 0
 312 91 311 92 311 95 c 128
 311 98 312 100 314 101 c 0
 341 129 369 157 398 185 c 128
 427 213 456 240 484 267 c 0
 492 274 503 284 517 296 c 128
 531 308 545 320 560 333 c 0
 564 336 567 339 570 342 c 128
 573 345 576 346 578 346 c 256
 580 346 582 345 582 343 c 128
 582 341 582 339 581 337 c 2
 520 137 l 2
 519 134 520 133 523 133 c 0
 545 133 546 133 554 133 c 128
 560 133 564 133 569 134 c 0
 572 134 574 132 573 129 c 0
 573 124 569 117 563 109 c 128
 557 101 553 97 551 97 c 0
 546 97 546 97 536 97 c 128
 526 97 526 97 518 97 c 0
 511 97 508 94 506 89 c 2
 486 22 l 2
 485 18 481 14 476 11 c 128
 471 8 465 5 458 2 c 128
 451 -1 445 -4 440 -6 c 128
 435 -8 432 -8 430 -8 c 0
380 134 m 2
 458 134 l 2
 461 134 465 135 467 138 c 2
 500 247 l 2
 500 248 500 248 499 248 c 128
 498 248 496 248 495 247 c 0
 482 235 469 223 455 210 c 128
 441 197 428 185 415 173 c 128
 402 161 391 149 380 138 c 0
 378 135 377 134 380 134 c 2
75 -26 m 0
 70 -26 66 -23 63 -18 c 128
 60 -13 60 -9 64 -5 c 2
 632 654 l 2
 638 661 645 665 651 667 c 128
 657 669 663 670 670 670 c 0
 678 670 683 668 685 663 c 128
 687 658 686 654 682 650 c 2
 114 -8 l 2
 108 -15 102 -20 96 -22 c 128
 90 -24 82 -26 75 -26 c 0
122 274 m 0
 110 274 99 276 88 280 c 128
 77 284 73 290 74 299 c 0
 75 306 78 313 84 322 c 128
 90 331 95 336 99 336 c 256
 103 336 107 334 112 330 c 128
 117 326 122 322 127 318 c 0
 131 315 136 312 141 310 c 128
 146 308 152 307 157 307 c 0
 170 307 181 312 191 320 c 128
 201 328 210 338 217 351 c 128
 224 364 227 377 227 390 c 0
 228 403 225 414 219 424 c 128
 213 434 204 438 191 438 c 0
 184 438 176 436 168 433 c 128
 160 430 154 428 152 428 c 0
 149 428 147 429 145 432 c 128
 143 435 143 437 145 440 c 0
 150 445 155 449 162 452 c 128
 169 455 175 457 181 460 c 128
 187 463 193 465 198 468 c 0
 218 479 233 489 245 500 c 128
 257 511 264 524 264 538 c 0
 265 549 262 557 256 562 c 128
 250 567 242 570 233 570 c 0
 222 570 211 568 201 563 c 128
 191 558 179 551 167 541 c 0
 165 540 163 538 161 536 c 128
 159 534 157 534 156 534 c 0
 153 534 152 535 151 538 c 128
 150 541 150 544 151 547 c 0
 160 559 171 570 183 581 c 128
 195 592 208 600 223 607 c 128
 238 614 254 617 270 616 c 0
 287 616 301 611 311 600 c 128
 321 589 326 575 326 557 c 0
 326 538 318 522 302 508 c 128
 286 494 268 483 248 475 c 0
 246 474 245 473 245 472 c 128
 245 471 246 471 247 471 c 0
 262 471 274 465 282 452 c 128
 290 439 294 425 294 409 c 0
 294 391 287 374 276 358 c 128
 265 342 250 326 233 314 c 128
 216 302 197 292 177 285 c 128
 157 278 139 274 122 274 c 0
EndSplineSet
EndChar

StartChar: questiondown
Encoding: 191 191 129
Width: 600
Flags: W
LayerCount: 2
Fore
SplineSet
335 307 m 256
 337 307 341 302 348 292 c 128
 355 282 360 270 366 256 c 128
 372 242 375 228 375 215 c 0
 375 198 372 182 366 168 c 128
 360 154 349 140 330 126 c 128
 311 112 283 96 245 79 c 0
 220 67 198 51 178 31 c 128
 158 11 148 -14 148 -43 c 0
 148 -66 155 -84 170 -96 c 128
 185 -108 205 -114 230 -114 c 0
 239 -114 245 -113 250 -111 c 128
 255 -109 260 -107 264 -106 c 0
 270 -104 274 -102 278 -100 c 128
 282 -98 286 -97 291 -97 c 0
 298 -97 304 -100 308 -104 c 128
 312 -108 315 -115 315 -124 c 0
 315 -137 308 -150 294 -161 c 128
 280 -172 265 -178 247 -178 c 0
 220 -178 197 -171 178 -156 c 128
 159 -141 144 -121 133 -96 c 128
 122 -71 117 -44 117 -13 c 0
 117 11 120 32 127 50 c 128
 134 68 142 82 154 95 c 128
 166 108 180 118 196 126 c 2
 284 171 l 2
 304 182 317 192 324 202 c 128
 331 212 335 226 335 242 c 0
 335 249 334 256 333 262 c 128
 332 268 330 274 329 279 c 0
 328 283 327 286 326 290 c 128
 325 294 324 298 324 301 c 0
 324 304 325 305 328 306 c 128
 331 307 333 307 335 307 c 256
351 497 m 0
 363 497 373 492 381 482 c 128
 389 472 393 462 393 450 c 0
 393 433 388 418 376 406 c 128
 364 394 349 388 332 388 c 0
 319 388 309 392 301 402 c 128
 293 412 289 423 289 435 c 0
 289 452 296 467 308 479 c 128
 320 491 334 497 351 497 c 0
EndSplineSet
EndChar

StartChar: AE
Encoding: 198 198 130
Width: 600
Flags: W
LayerCount: 2
Fore
SplineSet
-30 -5 m 0
 -36 -5 -40 -4 -43 -2 c 128
 -46 0 -46 3 -45 8 c 0
 -43 13 -40 17 -36 20 c 128
 -32 23 -26 27 -18 30 c 0
 -4 35 12 46 29 62 c 128
 46 78 63 97 77 118 c 2
 414 595 l 2
 417 599 418 603 417 606 c 128
 416 609 413 612 408 613 c 2
 360 624 l 2
 353 627 349 631 350 638 c 0
 350 641 352 645 356 648 c 128
 360 651 364 652 369 652 c 0
 379 652 391 652 404 651 c 128
 417 650 432 650 447 650 c 128
 462 650 477 649 490 649 c 0
 506 649 523 650 542 650 c 128
 561 650 579 650 596 650 c 0
 619 650 637 651 651 653 c 128
 665 655 676 657 685 659 c 128
 694 661 701 662 706 662 c 0
 709 662 711 660 713 658 c 128
 715 656 717 652 716 646 c 0
 713 629 709 609 704 586 c 128
 699 563 695 544 690 529 c 0
 688 522 685 518 683 515 c 128
 681 512 678 511 675 511 c 256
 672 511 671 512 670 514 c 128
 669 516 669 519 669 523 c 0
 670 536 671 549 671 561 c 128
 671 573 670 582 667 589 c 0
 664 598 660 605 653 610 c 128
 646 615 638 617 629 617 c 2
 550 617 l 2
 542 617 536 613 531 606 c 128
 526 599 521 591 518 582 c 0
 511 563 503 540 494 514 c 128
 485 488 477 460 469 434 c 128
 461 408 455 386 449 368 c 0
 445 355 443 346 444 340 c 128
 445 334 448 332 453 332 c 0
 475 332 475 332 490 332 c 128
 500 332 509 333 518 334 c 0
 527 335 535 339 542 345 c 128
 549 351 554 358 559 366 c 0
 563 371 568 377 571 382 c 128
 574 387 577 392 579 397 c 0
 581 400 583 403 586 404 c 128
 589 405 591 404 592 402 c 0
 591 398 592 392 591 386 c 128
 590 380 589 374 587 367 c 0
 578 345 571 324 566 303 c 128
 561 282 556 261 550 238 c 0
 548 232 546 228 544 224 c 128
 542 220 539 218 536 218 c 0
 532 218 530 220 529 226 c 128
 528 232 528 237 529 241 c 0
 530 258 529 272 525 281 c 128
 521 290 516 295 510 295 c 0
 497 295 486 296 475 296 c 128
 464 296 454 296 442 296 c 0
 437 296 433 293 428 288 c 128
 423 283 419 275 415 262 c 0
 408 237 401 212 394 188 c 128
 387 164 379 137 370 108 c 0
 364 88 363 71 365 58 c 128
 367 45 376 38 390 38 c 2
 457 38 l 2
 470 38 481 40 491 44 c 128
 501 48 512 55 520 63 c 0
 529 72 536 82 544 94 c 128
 552 106 560 118 567 131 c 0
 569 136 571 140 574 142 c 128
 577 144 580 145 582 145 c 0
 585 145 587 143 588 140 c 128
 589 137 589 133 587 129 c 0
 582 114 577 100 571 86 c 128
 565 72 559 59 553 46 c 128
 547 33 541 22 536 11 c 0
 534 7 532 3 529 0 c 128
 526 -3 522 -5 519 -5 c 0
 505 -5 489 -5 471 -4 c 128
 453 -3 433 -3 413 -2 c 128
 393 -1 373 -1 354 0 c 128
 335 1 316 1 299 1 c 0
 289 1 280 1 271 -0 c 128
 262 -1 252 -3 243 -4 c 128
 234 -5 223 -5 212 -5 c 0
 207 -5 203 -4 201 -2 c 128
 199 0 198 3 199 7 c 0
 202 16 210 22 224 26 c 0
 242 31 257 38 268 48 c 128
 279 58 286 75 293 98 c 0
 301 124 310 153 319 184 c 128
 328 215 335 241 342 262 c 0
 344 267 344 272 344 275 c 128
 344 278 341 280 334 280 c 2
 243 280 l 2
 239 280 234 278 230 274 c 128
 226 270 221 266 217 259 c 0
 207 244 197 229 186 213 c 128
 175 197 165 181 154 164 c 128
 143 147 132 129 120 111 c 0
 109 94 103 80 103 70 c 128
 103 60 106 51 112 45 c 128
 118 39 127 34 135 31 c 0
 141 29 145 26 147 23 c 128
 149 20 149 16 148 11 c 256
 147 6 145 4 141 2 c 128
 137 0 133 -1 127 -1 c 0
 118 -1 106 -1 94 0 c 128
 82 1 69 1 56 1 c 0
 41 1 26 0 11 -2 c 128
 -4 -4 -18 -5 -30 -5 c 0
272 318 m 2
 348 318 l 2
 353 318 356 318 358 320 c 128
 360 322 361 326 364 332 c 2
 435 569 l 2
 436 572 437 574 437 576 c 128
 437 578 436 579 435 579 c 0
 433 579 431 576 427 571 c 2
 268 334 l 2
 264 327 262 322 263 320 c 128
 264 318 267 318 272 318 c 2
EndSplineSet
EndChar

StartChar: Eth
Encoding: 208 208 131
Width: 600
Flags: W
LayerCount: 2
Fore
SplineSet
91 313 m 2
 87 313 84 316 84 321 c 128
 84 326 84 331 85 335 c 0
 87 341 90 346 95 350 c 128
 100 354 106 357 111 357 c 2
 374 357 l 2
 377 357 379 355 381 352 c 128
 383 349 384 345 381 341 c 0
 377 333 371 326 365 321 c 128
 359 316 353 313 346 313 c 2
 91 313 l 2
252 -7 m 0
 243 -7 229 -6 210 -4 c 128
 191 -2 171 -1 151 -0 c 128
 131 1 112 1 96 1 c 0
 86 1 76 1 66 0 c 128
 56 -1 46 -1 35 -2 c 128
 24 -3 13 -4 -0 -4 c 0
 -5 -4 -9 -4 -12 -2 c 128
 -15 0 -17 3 -17 8 c 0
 -15 19 -5 25 12 27 c 0
 28 28 41 32 50 37 c 128
 59 42 66 50 72 60 c 128
 78 70 83 83 88 98 c 2
 234 557 l 2
 239 573 239 584 234 592 c 128
 229 600 221 606 211 610 c 128
 201 614 189 618 177 621 c 0
 170 623 166 626 164 629 c 128
 162 632 161 636 162 641 c 0
 162 646 165 649 170 651 c 128
 175 653 180 654 186 654 c 0
 207 654 227 654 246 652 c 128
 265 650 282 649 299 649 c 0
 310 649 319 649 328 650 c 128
 337 651 346 653 356 654 c 128
 366 655 379 655 392 655 c 0
 443 655 485 644 521 622 c 128
 557 600 583 569 601 528 c 128
 619 487 625 437 622 379 c 0
 619 328 608 279 588 233 c 128
 568 187 541 146 508 110 c 128
 475 74 436 45 392 24 c 128
 348 3 302 -7 252 -7 c 0
256 25 m 0
 293 25 327 35 359 56 c 128
 391 77 420 106 445 142 c 128
 470 178 491 218 506 262 c 128
 521 306 531 351 534 397 c 0
 537 449 534 491 523 524 c 128
 512 557 495 580 473 596 c 128
 451 612 423 620 392 620 c 0
 373 620 358 618 349 615 c 128
 340 612 334 606 330 599 c 128
 326 592 322 582 318 571 c 2
 183 135 l 2
 175 108 173 86 177 70 c 128
 181 54 190 43 204 36 c 128
 218 29 235 25 256 25 c 0
EndSplineSet
EndChar

StartChar: multiply
Encoding: 215 215 132
Width: 600
Flags: W
LayerCount: 2
Fore
SplineSet
462 53 m 0
 458 53 455 54 452 57 c 2
 303 207 l 2
 301 210 299 210 296 207 c 2
 153 64 l 2
 150 61 148 60 144 60 c 128
 140 60 137 61 135 63 c 0
 132 66 128 71 122 79 c 128
 116 87 113 95 113 102 c 0
 113 107 115 111 118 114 c 2
 252 248 l 2
 254 250 254 252 254 253 c 128
 254 254 253 256 251 258 c 2
 130 379 l 2
 127 382 125 387 125 393 c 0
 125 401 127 409 132 418 c 128
 137 427 140 432 141 434 c 0
 144 437 146 438 150 438 c 128
 154 438 157 437 160 434 c 2
 295 299 l 2
 298 296 299 295 300 296 c 128
 301 297 301 297 302 298 c 2
 446 441 l 2
 449 444 453 446 456 446 c 0
 460 446 463 444 465 441 c 0
 468 434 472 427 476 420 c 128
 480 413 482 407 482 401 c 0
 482 396 480 391 475 386 c 2
 344 255 l 2
 343 254 343 252 344 250 c 2
 487 107 l 2
 490 104 492 100 492 95 c 0
 492 86 488 78 481 68 c 128
 474 58 467 53 462 53 c 0
EndSplineSet
EndChar

StartChar: Oslash
Encoding: 216 216 133
Width: 600
Flags: W
LayerCount: 2
Fore
SplineSet
89 -14 m 0
 85 -14 81 -12 75 -8 c 128
 69 -4 65 -1 66 4 c 0
 67 13 72 22 81 33 c 2
 121 74 l 1
 148 102 l 1
 544 577 l 1
 561 593 l 1
 607 650 l 2
 610 653 614 656 618 660 c 128
 622 664 626 666 630 666 c 0
 634 666 639 665 642 662 c 128
 645 659 647 654 646 649 c 0
 646 638 639 626 628 612 c 2
 582 557 l 1
 559 534 l 1
 169 63 l 1
 142 36 l 1
 112 7 l 2
 109 4 105 -1 100 -6 c 128
 95 -11 92 -14 89 -14 c 0
255 -14 m 0
 211 -14 176 -2 149 22 c 128
 122 46 104 77 92 116 c 128
 80 155 75 197 77 243 c 0
 79 291 90 340 106 389 c 128
 122 438 147 484 177 526 c 128
 207 568 243 601 285 626 c 128
 327 651 374 664 427 664 c 0
 471 664 505 652 532 628 c 128
 559 604 578 573 589 534 c 128
 600 495 605 453 603 407 c 0
 601 359 591 310 575 261 c 128
 559 212 534 166 504 124 c 128
 474 82 438 49 396 24 c 128
 354 -1 308 -14 255 -14 c 0
258 17 m 0
 288 17 317 25 344 42 c 128
 371 59 397 83 419 112 c 128
 441 141 460 173 476 210 c 128
 492 247 507 286 516 326 c 128
 525 366 532 406 534 445 c 0
 536 476 533 507 526 536 c 128
 519 565 507 589 490 608 c 128
 473 627 452 636 423 636 c 0
 394 636 365 627 339 610 c 128
 313 593 287 569 265 540 c 128
 243 511 223 477 206 440 c 128
 189 403 176 365 165 324 c 128
 154 283 149 244 147 205 c 0
 145 174 148 144 155 115 c 128
 162 86 174 62 190 44 c 128
 206 26 229 17 258 17 c 0
EndSplineSet
EndChar

StartChar: Thorn
Encoding: 222 222 134
Width: 600
Flags: W
LayerCount: 2
Fore
SplineSet
29 -5 m 0
 21 -5 15 -4 11 -2 c 128
 7 0 5 2 5 6 c 0
 5 14 17 20 41 24 c 0
 66 29 86 36 102 47 c 128
 118 58 130 75 137 98 c 2
 275 550 l 2
 282 573 282 590 276 600 c 128
 270 610 256 617 234 622 c 0
 224 624 217 627 214 630 c 128
 211 633 210 637 210 642 c 0
 210 646 213 648 219 650 c 128
 225 652 232 653 240 653 c 0
 257 653 270 653 281 652 c 128
 292 651 302 650 312 650 c 128
 322 650 334 650 348 650 c 0
 361 650 373 650 382 650 c 128
 391 650 400 651 410 652 c 128
 420 653 433 653 450 653 c 0
 466 653 474 649 474 642 c 0
 474 637 471 633 464 630 c 128
 457 627 448 624 437 622 c 0
 421 619 407 615 396 610 c 128
 385 605 375 597 368 588 c 128
 361 579 354 566 349 550 c 2
 332 498 l 1
 327 527 l 1
 332 528 340 528 350 528 c 128
 360 528 369 529 377 529 c 0
 419 529 456 521 488 506 c 128
 520 491 544 469 562 441 c 128
 580 413 589 380 589 341 c 0
 589 308 581 279 566 252 c 128
 551 225 530 203 504 184 c 128
 478 165 448 150 414 140 c 128
 380 130 346 124 310 124 c 0
 303 124 295 124 284 126 c 128
 273 128 268 132 268 137 c 0
 268 141 270 144 275 146 c 128
 280 148 285 149 291 150 c 0
 300 151 310 153 320 154 c 128
 330 155 339 156 348 159 c 0
 369 165 389 173 408 184 c 128
 427 195 444 210 458 226 c 128
 472 242 484 261 492 282 c 128
 500 303 504 326 504 352 c 0
 504 380 498 406 486 428 c 128
 474 450 457 467 436 480 c 128
 415 493 390 500 363 500 c 0
 354 500 347 498 342 496 c 128
 337 494 333 490 330 484 c 128
 327 478 324 470 321 460 c 2
 211 98 l 2
 204 75 206 58 215 47 c 128
 224 36 240 29 262 24 c 0
 272 22 279 20 282 17 c 128
 285 14 287 11 287 6 c 0
 287 2 284 0 278 -2 c 128
 272 -4 265 -5 257 -5 c 0
 240 -5 227 -5 216 -4 c 128
 205 -3 196 -2 186 -1 c 128
 176 0 164 0 149 0 c 0
 126 0 107 0 91 -2 c 128
 75 -4 54 -5 29 -5 c 0
EndSplineSet
EndChar

StartChar: germandbls
Encoding: 223 223 135
Width: 600
Flags: W
LayerCount: 2
Fore
SplineSet
-42 -288 m 0
 -59 -288 -74 -287 -88 -284 c 128
 -102 -281 -112 -275 -120 -268 c 128
 -128 -261 -133 -251 -133 -238 c 0
 -133 -226 -129 -216 -121 -207 c 128
 -113 -198 -104 -194 -94 -194 c 0
 -89 -194 -84 -197 -79 -202 c 128
 -74 -207 -69 -213 -62 -219 c 0
 -56 -224 -48 -229 -40 -234 c 128
 -32 -239 -22 -241 -10 -241 c 0
 11 -241 26 -232 36 -213 c 128
 46 -194 55 -165 64 -124 c 0
 66 -114 69 -98 74 -77 c 128
 79 -56 84 -32 89 -6 c 128
 94 20 99 43 104 66 c 128
 109 89 113 106 116 118 c 0
 127 171 140 222 154 272 c 128
 168 322 184 369 202 414 c 0
 229 483 260 538 294 581 c 128
 328 624 366 656 408 676 c 128
 450 696 494 706 543 706 c 0
 586 706 618 698 637 682 c 128
 656 666 666 647 666 626 c 0
 666 610 660 593 647 576 c 128
 634 559 618 541 598 524 c 128
 578 507 559 491 538 475 c 128
 517 459 499 444 483 431 c 0
 472 422 461 413 450 404 c 128
 439 395 429 384 422 372 c 128
 415 360 412 343 412 324 c 0
 412 319 414 310 418 297 c 128
 422 284 428 271 434 258 c 128
 440 245 444 234 447 227 c 0
 456 210 463 193 468 177 c 128
 473 161 476 145 476 130 c 0
 476 105 470 84 457 68 c 128
 444 52 432 40 421 31 c 0
 406 20 388 9 368 0 c 128
 348 -9 325 -14 300 -14 c 0
 281 -14 266 -10 255 -2 c 128
 244 6 238 17 238 30 c 0
 238 43 240 54 246 63 c 128
 252 72 259 76 266 76 c 0
 270 76 275 74 280 70 c 128
 285 66 291 62 296 57 c 0
 303 52 310 47 318 42 c 128
 326 37 338 34 353 34 c 0
 368 34 382 40 396 52 c 128
 410 64 417 79 417 98 c 0
 417 110 415 124 410 140 c 128
 405 156 398 171 389 188 c 0
 382 203 375 220 366 240 c 128
 357 260 353 277 353 292 c 0
 353 309 357 325 364 341 c 128
 371 357 383 373 398 390 c 128
 413 407 433 424 457 443 c 0
 466 450 477 458 492 470 c 128
 507 482 522 495 538 510 c 128
 554 525 567 541 578 558 c 128
 589 575 595 592 595 609 c 0
 595 626 588 642 574 655 c 128
 560 668 539 675 510 675 c 256
 481 675 454 667 428 650 c 128
 402 633 378 610 356 583 c 128
 334 556 316 526 299 495 c 128
 282 464 269 434 259 406 c 0
 246 369 232 327 219 282 c 128
 206 237 193 191 182 143 c 128
 171 95 161 47 152 0 c 0
 147 -29 139 -61 129 -94 c 128
 119 -127 106 -159 90 -188 c 128
 74 -217 56 -241 34 -260 c 128
 12 -279 -13 -288 -42 -288 c 0
EndSplineSet
EndChar

